<?xml version="1.0" encoding="utf-8"?>
<!-- Generator: Adobe Illustrator 15.0.0, SVG Export Plug-In . SVG Version: 6.00 Build 0)  -->
<!DOCTYPE svg PUBLIC "-//W3C//DTD SVG 1.1//EN" "http://www.w3.org/Graphics/SVG/1.1/DTD/svg11.dtd">
<svg version="1.1" id="CUT" xmlns="http://www.w3.org/2000/svg" xmlns:xlink="http://www.w3.org/1999/xlink" x="0px" y="0px"
	 width="1459.427px" height="1051.568px" viewBox="0 0 1459.427 1051.568" enable-background="new 0 0 1459.427 1051.568"
	 xml:space="preserve">
<g id="Center_Tiles">
	<g id="many_cuts">
		<g id="row_5">
			<g id="Layer_19_copy_10_4_">
				
					<line fill="none" stroke="#EB2428" stroke-width="0.001" stroke-miterlimit="10" x1="564.884" y1="961.282" x2="564.884" y2="834.2"/>
				<polyline fill="none" stroke="#1B9647" stroke-width="0.001" stroke-miterlimit="10" points="454.958,1024.927 564.888,961.288 
					564.884,961.282 				"/>
				
					<line fill="none" stroke="#EB2428" stroke-width="0.001" stroke-miterlimit="10" x1="344.761" y1="961.481" x2="454.958" y2="1024.927"/>
			</g>
			<path fill="none" stroke="#F6EB13" stroke-width="0.001" stroke-miterlimit="10" d="M454.979,933.444
				c-4.756,0-9.371-0.932-13.714-2.768c-4.197-1.777-7.964-4.317-11.201-7.553c-3.236-3.235-5.776-7.003-7.551-11.199
				c-1.836-4.344-2.769-8.958-2.769-13.715c0-4.755,0.932-9.37,2.769-13.714c1.774-4.195,4.315-7.963,7.551-11.198
				c3.237-3.236,7.004-5.776,11.201-7.553c4.343-1.836,8.958-2.768,13.714-2.768c4.755,0,9.37,0.932,13.712,2.768
				c4.197,1.776,7.965,4.316,11.2,7.553c3.237,3.235,5.777,7.003,7.553,11.198c1.835,4.344,2.768,8.959,2.768,13.714
				c0,4.757-0.932,9.371-2.768,13.715c-1.775,4.196-4.316,7.964-7.553,11.199c-3.235,3.235-7.003,5.775-11.2,7.553
				C464.35,932.513,459.735,933.444,454.979,933.444z"/>
			<g id="Layer_19_copy_10_3_">
				<polyline fill="none" stroke="#EB2428" stroke-width="0.001" stroke-miterlimit="10" points="785.011,961.288 785.007,961.282 
					785.007,834.2 				"/>
				
					<line fill="none" stroke="#1B9647" stroke-width="0.001" stroke-miterlimit="10" x1="675.081" y1="1024.927" x2="785.011" y2="961.288"/>
				
					<line fill="none" stroke="#EB2428" stroke-width="0.001" stroke-miterlimit="10" x1="564.884" y1="961.481" x2="675.081" y2="1024.927"/>
			</g>
			<path fill="none" stroke="#F6EB13" stroke-width="0.001" stroke-miterlimit="10" d="M675.103,933.444
				c-4.756,0-9.371-0.932-13.715-2.768c-4.196-1.777-7.963-4.317-11.2-7.553c-3.235-3.235-5.776-7.003-7.551-11.199
				c-1.837-4.344-2.769-8.958-2.769-13.715c0-4.755,0.932-9.37,2.769-13.714c1.774-4.195,4.315-7.963,7.551-11.198
				c3.237-3.236,7.004-5.776,11.2-7.553c4.344-1.836,8.959-2.768,13.715-2.768c4.755,0,9.37,0.932,13.713,2.768
				c4.196,1.776,7.964,4.316,11.199,7.553c3.236,3.235,5.777,7.003,7.553,11.198c1.836,4.344,2.768,8.959,2.768,13.714
				c0,4.757-0.932,9.371-2.768,13.715c-1.775,4.196-4.316,7.964-7.553,11.199c-3.235,3.235-7.003,5.775-11.199,7.553
				C684.473,932.513,679.857,933.444,675.103,933.444z"/>
			<g id="Layer_19_copy_10_2_">
				
					<line fill="none" stroke="#EB2428" stroke-width="0.001" stroke-miterlimit="10" x1="1005.013" y1="961.282" x2="1005.013" y2="834.2"/>
				<polyline fill="none" stroke="#1B9647" stroke-width="0.001" stroke-miterlimit="10" points="895.087,1024.927 
					1005.017,961.288 1005.013,961.282 				"/>
				
					<line fill="none" stroke="#EB2428" stroke-width="0.001" stroke-miterlimit="10" x1="784.89" y1="961.481" x2="895.087" y2="1024.927"/>
			</g>
			<path fill="none" stroke="#F6EB13" stroke-width="0.001" stroke-miterlimit="10" d="M895.108,933.444
				c-4.756,0-9.371-0.932-13.715-2.768c-4.196-1.777-7.963-4.317-11.2-7.553c-3.235-3.235-5.776-7.003-7.551-11.199
				c-1.837-4.344-2.769-8.958-2.769-13.715c0-4.755,0.932-9.37,2.769-13.714c1.774-4.195,4.315-7.963,7.551-11.198
				c3.237-3.236,7.004-5.776,11.2-7.553c4.344-1.836,8.959-2.768,13.715-2.768c4.755,0,9.37,0.932,13.713,2.768
				c4.196,1.776,7.964,4.316,11.199,7.553c3.236,3.235,5.777,7.003,7.553,11.198c1.836,4.344,2.768,8.959,2.768,13.714
				c0,4.757-0.932,9.371-2.768,13.715c-1.775,4.196-4.316,7.964-7.553,11.199c-3.235,3.235-7.003,5.775-11.199,7.553
				C904.479,932.513,899.863,933.444,895.108,933.444z"/>
			<g id="Layer_19_copy_10_1_">
				
					<line fill="none" stroke="#EB2428" stroke-width="0.001" stroke-miterlimit="10" x1="1225.136" y1="961.282" x2="1225.136" y2="834.2"/>
				<polyline fill="none" stroke="#1B9647" stroke-width="0.001" stroke-miterlimit="10" points="1115.21,1024.927 1225.14,961.288 
					1225.136,961.282 				"/>
				
					<line fill="none" stroke="#EB2428" stroke-width="0.001" stroke-miterlimit="10" x1="1005.013" y1="961.481" x2="1115.21" y2="1024.927"/>
			</g>
			<path fill="none" stroke="#F6EB13" stroke-width="0.001" stroke-miterlimit="10" d="M1115.231,933.444
				c-4.756,0-9.371-0.932-13.715-2.768c-4.196-1.777-7.963-4.317-11.2-7.553c-3.235-3.235-5.776-7.003-7.551-11.199
				c-1.837-4.344-2.769-8.958-2.769-13.715c0-4.755,0.932-9.37,2.769-13.714c1.774-4.195,4.315-7.963,7.551-11.198
				c3.237-3.236,7.004-5.776,11.2-7.553c4.344-1.836,8.959-2.768,13.715-2.768c4.755,0,9.37,0.932,13.713,2.768
				c4.196,1.776,7.964,4.316,11.199,7.553c3.236,3.235,5.777,7.003,7.553,11.198c1.836,4.344,2.768,8.959,2.768,13.714
				c0,4.757-0.932,9.371-2.768,13.715c-1.775,4.196-4.316,7.964-7.553,11.199c-3.235,3.235-7.003,5.775-11.199,7.553
				C1124.602,932.513,1119.986,933.444,1115.231,933.444z"/>
			<g id="Layer_19_copy_10">
				
					<line fill="none" stroke="#EB2428" stroke-width="0.001" stroke-miterlimit="10" x1="344.514" y1="961.864" x2="344.514" y2="834.782"/>
				<polyline fill="none" stroke="#1B9647" stroke-width="0.001" stroke-miterlimit="10" points="234.588,1025.509 344.518,961.87 
					344.514,961.864 				"/>
				<polyline fill="none" stroke="#EB2428" stroke-width="0.001" stroke-miterlimit="10" points="124.391,834.973 124.391,962.063 
					234.588,1025.509 				"/>
			</g>
			<path fill="none" stroke="#F6EB13" stroke-width="0.001" stroke-miterlimit="10" d="M234.609,934.026
				c-4.756,0-9.371-0.932-13.714-2.768c-4.196-1.777-7.963-4.317-11.2-7.554c-3.236-3.235-5.776-7.002-7.551-11.198
				c-1.836-4.345-2.768-8.958-2.768-13.715c0-4.755,0.932-9.37,2.768-13.715c1.775-4.194,4.315-7.962,7.551-11.198
				s7.004-5.776,11.2-7.552c4.344-1.836,8.958-2.768,13.714-2.768s9.37,0.932,13.713,2.768c4.197,1.775,7.965,4.315,11.2,7.552
				c3.236,3.236,5.777,7.004,7.553,11.198c1.836,4.345,2.768,8.96,2.768,13.715c0,4.757-0.932,9.37-2.768,13.715
				c-1.775,4.196-4.316,7.963-7.553,11.198c-3.234,3.236-7.002,5.776-11.2,7.554C243.979,933.095,239.365,934.026,234.609,934.026z"
				/>
			<g id="Layer_19_copy_13">
				<polyline fill="none" stroke="#EB2428" stroke-width="0.001" stroke-miterlimit="10" points="1444.717,961 1445.546,960.52 
					1445.542,960.513 1445.542,833.431 1335.331,770.013 				"/>
				
					<line fill="none" stroke="#1B9647" stroke-width="0.001" stroke-miterlimit="10" x1="1335.616" y1="1024.158" x2="1444.717" y2="961"/>
				
					<line fill="none" stroke="#EB2428" stroke-width="0.001" stroke-miterlimit="10" x1="1225.419" y1="960.713" x2="1335.616" y2="1024.158"/>
			</g>
			<path fill="none" stroke="#F6EB13" stroke-width="0.001" stroke-miterlimit="10" d="M1335.638,932.675
				c-4.756,0-9.371-0.932-13.715-2.768c-4.196-1.777-7.963-4.317-11.2-7.552c-3.235-3.236-5.776-7.004-7.551-11.199
				c-1.837-4.344-2.769-8.959-2.769-13.715c0-4.755,0.932-9.37,2.769-13.714c1.774-4.196,4.315-7.964,7.551-11.198
				c3.237-3.237,7.004-5.776,11.2-7.553c4.344-1.836,8.959-2.769,13.715-2.769c4.755,0,9.37,0.933,13.713,2.769
				c4.196,1.776,7.964,4.315,11.199,7.553c3.236,3.234,5.777,7.002,7.553,11.198c1.836,4.344,2.768,8.959,2.768,13.714
				c0,4.756-0.932,9.371-2.768,13.715c-1.775,4.195-4.316,7.963-7.553,11.199c-3.235,3.234-7.003,5.774-11.199,7.552
				C1345.008,931.743,1340.393,932.675,1335.638,932.675z"/>
		</g>
		<g id="row_4">
			<g id="Layer_19_copy_6_4_">
				
					<line fill="none" stroke="#EB2428" stroke-width="0.001" stroke-miterlimit="10" x1="235.083" y1="644.699" x2="235.089" y2="644.668"/>
				<path fill="none" stroke="#EB2428" stroke-width="0.001" stroke-miterlimit="10" d="M455.212,644.477"/>
				
					<line fill="none" stroke="#EB2428" stroke-width="0.001" stroke-miterlimit="10" x1="455.212" y1="771.559" x2="455.212" y2="644.477"/>
				<polyline fill="none" stroke="#1B9647" stroke-width="0.001" stroke-miterlimit="10" points="345.286,835.203 455.216,771.564 
					455.212,771.559 				"/>
				
					<line fill="none" stroke="#EB2428" stroke-width="0.001" stroke-miterlimit="10" x1="235.089" y1="771.758" x2="345.286" y2="835.203"/>
			</g>
			<path fill="none" stroke="#F6EB13" stroke-width="0.001" stroke-miterlimit="10" d="M345.308,743.721
				c-4.756,0-9.371-0.932-13.714-2.768c-4.197-1.777-7.964-4.317-11.201-7.554c-3.236-3.234-5.776-7.002-7.551-11.198
				c-1.836-4.345-2.769-8.958-2.769-13.715c0-4.755,0.932-9.37,2.769-13.715c1.774-4.194,4.315-7.962,7.551-11.198
				c3.237-3.235,7.004-5.776,11.201-7.552c4.343-1.836,8.958-2.768,13.714-2.768c4.755,0,9.37,0.932,13.712,2.768
				c4.197,1.775,7.965,4.316,11.2,7.552c3.237,3.236,5.777,7.004,7.553,11.198c1.835,4.345,2.768,8.96,2.768,13.715
				c0,4.757-0.932,9.37-2.768,13.715c-1.775,4.196-4.316,7.964-7.553,11.198c-3.235,3.236-7.003,5.776-11.2,7.554
				C354.678,742.789,350.063,743.721,345.308,743.721z"/>
			<g id="Layer_19_copy_6_3_">
				
					<line fill="none" stroke="#EB2428" stroke-width="0.001" stroke-miterlimit="10" x1="455.206" y1="644.699" x2="455.212" y2="644.668"/>
				<path fill="none" stroke="#EB2428" stroke-width="0.001" stroke-miterlimit="10" d="M675.335,644.477"/>
				<polyline fill="none" stroke="#EB2428" stroke-width="0.001" stroke-miterlimit="10" points="675.339,771.564 675.335,771.559 
					675.335,644.477 				"/>
				
					<line fill="none" stroke="#1B9647" stroke-width="0.001" stroke-miterlimit="10" x1="565.409" y1="835.203" x2="675.339" y2="771.564"/>
				
					<line fill="none" stroke="#EB2428" stroke-width="0.001" stroke-miterlimit="10" x1="455.212" y1="771.758" x2="565.409" y2="835.203"/>
			</g>
			<path fill="none" stroke="#F6EB13" stroke-width="0.001" stroke-miterlimit="10" d="M565.431,743.721
				c-4.756,0-9.371-0.932-13.715-2.768c-4.196-1.777-7.963-4.317-11.2-7.554c-3.235-3.234-5.776-7.002-7.551-11.198
				c-1.837-4.345-2.769-8.958-2.769-13.715c0-4.755,0.932-9.37,2.769-13.715c1.774-4.194,4.315-7.962,7.551-11.198
				c3.237-3.235,7.004-5.776,11.2-7.552c4.344-1.836,8.959-2.768,13.715-2.768c4.755,0,9.37,0.932,13.713,2.768
				c4.196,1.775,7.964,4.316,11.199,7.552c3.236,3.236,5.777,7.004,7.553,11.198c1.836,4.345,2.768,8.96,2.768,13.715
				c0,4.757-0.932,9.37-2.768,13.715c-1.775,4.196-4.316,7.964-7.553,11.198c-3.235,3.236-7.003,5.776-11.199,7.554
				C574.801,742.789,570.186,743.721,565.431,743.721z"/>
			<g id="Layer_19_copy_6_2_">
				
					<line fill="none" stroke="#EB2428" stroke-width="0.001" stroke-miterlimit="10" x1="675.212" y1="644.699" x2="675.218" y2="644.668"/>
				<path fill="none" stroke="#EB2428" stroke-width="0.001" stroke-miterlimit="10" d="M895.341,644.477"/>
				<polyline fill="none" stroke="#EB2428" stroke-width="0.001" stroke-miterlimit="10" points="895.345,771.564 895.341,771.559 
					895.341,644.477 				"/>
				
					<line fill="none" stroke="#1B9647" stroke-width="0.001" stroke-miterlimit="10" x1="785.415" y1="835.203" x2="895.345" y2="771.564"/>
				
					<line fill="none" stroke="#EB2428" stroke-width="0.001" stroke-miterlimit="10" x1="675.218" y1="771.758" x2="785.415" y2="835.203"/>
			</g>
			<path fill="none" stroke="#F6EB13" stroke-width="0.001" stroke-miterlimit="10" d="M785.437,743.721
				c-4.756,0-9.371-0.932-13.715-2.768c-4.196-1.777-7.963-4.317-11.2-7.554c-3.235-3.234-5.776-7.002-7.551-11.198
				c-1.837-4.345-2.769-8.958-2.769-13.715c0-4.755,0.932-9.37,2.769-13.715c1.774-4.194,4.315-7.962,7.551-11.198
				c3.237-3.235,7.004-5.776,11.2-7.552c4.344-1.836,8.959-2.768,13.715-2.768c4.755,0,9.37,0.932,13.713,2.768
				c4.196,1.775,7.964,4.316,11.199,7.552c3.236,3.236,5.777,7.004,7.553,11.198c1.836,4.345,2.768,8.96,2.768,13.715
				c0,4.757-0.932,9.37-2.768,13.715c-1.775,4.196-4.316,7.964-7.553,11.198c-3.235,3.236-7.003,5.776-11.199,7.554
				C794.807,742.789,790.191,743.721,785.437,743.721z"/>
			<g id="Layer_19_copy_6_1_">
				
					<line fill="none" stroke="#EB2428" stroke-width="0.001" stroke-miterlimit="10" x1="895.335" y1="644.699" x2="895.341" y2="644.668"/>
				<path fill="none" stroke="#EB2428" stroke-width="0.001" stroke-miterlimit="10" d="M1115.464,644.477"/>
				
					<line fill="none" stroke="#EB2428" stroke-width="0.001" stroke-miterlimit="10" x1="1115.464" y1="771.559" x2="1115.464" y2="644.477"/>
				<polyline fill="none" stroke="#1B9647" stroke-width="0.001" stroke-miterlimit="10" points="1005.538,835.203 
					1115.468,771.564 1115.464,771.559 				"/>
				
					<line fill="none" stroke="#EB2428" stroke-width="0.001" stroke-miterlimit="10" x1="895.341" y1="771.758" x2="1005.538" y2="835.203"/>
			</g>
			<path fill="none" stroke="#F6EB13" stroke-width="0.001" stroke-miterlimit="10" d="M1005.56,743.721
				c-4.756,0-9.371-0.932-13.715-2.768c-4.196-1.777-7.963-4.317-11.2-7.554c-3.235-3.234-5.776-7.002-7.551-11.198
				c-1.837-4.345-2.769-8.958-2.769-13.715c0-4.755,0.932-9.37,2.769-13.715c1.774-4.194,4.315-7.962,7.551-11.198
				c3.237-3.235,7.004-5.776,11.2-7.552c4.344-1.836,8.959-2.768,13.715-2.768c4.755,0,9.37,0.932,13.713,2.768
				c4.196,1.775,7.964,4.316,11.199,7.552c3.237,3.236,5.777,7.004,7.553,11.198c1.836,4.345,2.768,8.96,2.768,13.715
				c0,4.757-0.932,9.37-2.768,13.715c-1.775,4.196-4.315,7.964-7.553,11.198c-3.235,3.236-7.003,5.776-11.199,7.554
				C1014.93,742.789,1010.314,743.721,1005.56,743.721z"/>
			<g id="Layer_19_copy_6">
				<path fill="none" stroke="#EB2428" stroke-width="0.001" stroke-miterlimit="10" d="M234.842,644.477"/>
				<polyline fill="none" stroke="#EB2428" stroke-width="0.001" stroke-miterlimit="10" points="234.846,771.564 234.842,771.559 
					234.842,644.477 				"/>
				
					<line fill="none" stroke="#1B9647" stroke-width="0.001" stroke-miterlimit="10" x1="124.917" y1="835.203" x2="234.846" y2="771.564"/>
				<polyline fill="none" stroke="#EB2428" stroke-width="0.001" stroke-miterlimit="10" points="14.713,644.699 14.719,644.668 
					14.719,771.758 124.917,835.203 				"/>
				<polyline fill="none" stroke="#1B9647" stroke-width="0.001" stroke-miterlimit="10" points="124.625,581.089 14.708,644.732 
					14.713,644.699 				"/>
			</g>
			<path fill="none" stroke="#F6EB13" stroke-width="0.001" stroke-miterlimit="10" d="M124.937,743.721
				c-4.756,0-9.371-0.932-13.714-2.768c-4.196-1.777-7.963-4.317-11.2-7.554c-3.236-3.234-5.776-7.002-7.551-11.198
				c-1.836-4.345-2.768-8.958-2.768-13.715c0-4.755,0.932-9.37,2.768-13.715c1.775-4.194,4.315-7.962,7.551-11.198
				c3.236-3.235,7.004-5.776,11.2-7.552c4.344-1.836,8.958-2.768,13.714-2.768s9.37,0.932,13.713,2.768
				c4.197,1.775,7.965,4.316,11.2,7.552c3.236,3.236,5.777,7.004,7.553,11.198c1.836,4.345,2.768,8.96,2.768,13.715
				c0,4.757-0.932,9.37-2.768,13.715c-1.775,4.196-4.316,7.964-7.553,11.198c-3.234,3.236-7.002,5.776-11.2,7.554
				C134.307,742.789,129.693,743.721,124.937,743.721z"/>
			<g id="Layer_19_copy_12">
				<polyline fill="none" stroke="#EB2428" stroke-width="0.001" stroke-miterlimit="10" points="1335.634,770.02 1335.63,770.013 
					1335.63,642.931 				"/>
				
					<line fill="none" stroke="#1B9647" stroke-width="0.001" stroke-miterlimit="10" x1="1225.704" y1="833.658" x2="1335.634" y2="770.02"/>
				
					<line fill="none" stroke="#EB2428" stroke-width="0.001" stroke-miterlimit="10" x1="1115.507" y1="770.213" x2="1225.704" y2="833.658"/>
			</g>
			<path fill="none" stroke="#F6EB13" stroke-width="0.001" stroke-miterlimit="10" d="M1225.726,742.175
				c-4.756,0-9.371-0.932-13.715-2.768c-4.196-1.777-7.963-4.317-11.2-7.552c-3.236-3.236-5.776-7.004-7.551-11.199
				c-1.837-4.344-2.769-8.959-2.769-13.715c0-4.755,0.932-9.37,2.769-13.714c1.774-4.196,4.314-7.964,7.551-11.198
				c3.237-3.237,7.004-5.776,11.2-7.553c4.344-1.836,8.959-2.769,13.715-2.769c4.755,0,9.37,0.933,13.713,2.769
				c4.196,1.776,7.964,4.315,11.199,7.553c3.236,3.234,5.777,7.002,7.553,11.198c1.836,4.344,2.768,8.959,2.768,13.714
				c0,4.756-0.932,9.371-2.768,13.715c-1.775,4.195-4.316,7.963-7.553,11.199c-3.235,3.234-7.003,5.774-11.199,7.552
				C1235.096,741.243,1230.48,742.175,1225.726,742.175z"/>
		</g>
		<g id="row_3">
			<g id="Layer_19_copy_4_3_">
				
					<line fill="none" stroke="#EB2428" stroke-width="0.001" stroke-miterlimit="10" x1="564.884" y1="580.082" x2="564.884" y2="453"/>
				<polyline fill="none" stroke="#1B9647" stroke-width="0.001" stroke-miterlimit="10" points="454.958,643.727 564.888,580.088 
					564.884,580.082 				"/>
				
					<line fill="none" stroke="#EB2428" stroke-width="0.001" stroke-miterlimit="10" x1="344.761" y1="580.282" x2="454.958" y2="643.727"/>
			</g>
			<path fill="none" stroke="#F6EB13" stroke-width="0.001" stroke-miterlimit="10" d="M454.979,552.244
				c-4.756,0-9.371-0.932-13.714-2.768c-4.197-1.777-7.964-4.318-11.201-7.552c-3.236-3.235-5.776-7.003-7.551-11.199
				c-1.836-4.344-2.769-8.958-2.769-13.714c0-4.755,0.932-9.37,2.769-13.714c1.774-4.196,4.315-7.964,7.551-11.199
				c3.237-3.237,7.004-5.776,11.201-7.552c4.343-1.835,8.958-2.768,13.714-2.768c4.755,0,9.37,0.933,13.712,2.768
				c4.197,1.776,7.965,4.315,11.2,7.552c3.237,3.235,5.777,7.003,7.553,11.199c1.835,4.344,2.768,8.958,2.768,13.714
				c0,4.757-0.932,9.371-2.768,13.714c-1.775,4.196-4.316,7.964-7.553,11.199c-3.235,3.234-7.003,5.775-11.2,7.552
				C464.35,551.312,459.735,552.244,454.979,552.244z"/>
			<g id="Layer_19_copy_4_2_">
				
					<line fill="none" stroke="#EB2428" stroke-width="0.001" stroke-miterlimit="10" x1="785.007" y1="580.082" x2="785.007" y2="453"/>
				<polyline fill="none" stroke="#1B9647" stroke-width="0.001" stroke-miterlimit="10" points="675.081,643.727 785.011,580.088 
					785.007,580.082 				"/>
				
					<line fill="none" stroke="#EB2428" stroke-width="0.001" stroke-miterlimit="10" x1="564.884" y1="580.282" x2="675.081" y2="643.727"/>
			</g>
			<path fill="none" stroke="#F6EB13" stroke-width="0.001" stroke-miterlimit="10" d="M675.103,552.244
				c-4.756,0-9.371-0.932-13.715-2.768c-4.196-1.777-7.963-4.318-11.2-7.552c-3.235-3.235-5.776-7.003-7.551-11.199
				c-1.837-4.344-2.769-8.958-2.769-13.714c0-4.755,0.932-9.37,2.769-13.714c1.774-4.196,4.315-7.964,7.551-11.199
				c3.237-3.237,7.004-5.776,11.2-7.552c4.344-1.835,8.959-2.768,13.715-2.768c4.755,0,9.37,0.933,13.713,2.768
				c4.196,1.776,7.964,4.315,11.199,7.552c3.236,3.235,5.777,7.003,7.553,11.199c1.836,4.344,2.768,8.958,2.768,13.714
				c0,4.757-0.932,9.371-2.768,13.714c-1.775,4.196-4.316,7.964-7.553,11.199c-3.235,3.234-7.003,5.775-11.199,7.552
				C684.473,551.312,679.857,552.244,675.103,552.244z"/>
			<g id="Layer_19_copy_4_1_">
				
					<line fill="none" stroke="#EB2428" stroke-width="0.001" stroke-miterlimit="10" x1="1005.013" y1="580.082" x2="1005.013" y2="453"/>
				<polyline fill="none" stroke="#1B9647" stroke-width="0.001" stroke-miterlimit="10" points="895.087,643.727 1005.017,580.088 
					1005.013,580.082 				"/>
				
					<line fill="none" stroke="#EB2428" stroke-width="0.001" stroke-miterlimit="10" x1="784.89" y1="580.282" x2="895.087" y2="643.727"/>
			</g>
			<path fill="none" stroke="#F6EB13" stroke-width="0.001" stroke-miterlimit="10" d="M895.108,552.244
				c-4.756,0-9.371-0.932-13.715-2.768c-4.196-1.777-7.963-4.318-11.2-7.552c-3.235-3.235-5.776-7.003-7.551-11.199
				c-1.837-4.344-2.769-8.958-2.769-13.714c0-4.755,0.932-9.37,2.769-13.714c1.774-4.196,4.315-7.964,7.551-11.199
				c3.237-3.237,7.004-5.776,11.2-7.552c4.344-1.835,8.959-2.768,13.715-2.768c4.755,0,9.37,0.933,13.713,2.768
				c4.196,1.776,7.964,4.315,11.199,7.552c3.236,3.235,5.777,7.003,7.553,11.199c1.836,4.344,2.768,8.958,2.768,13.714
				c0,4.757-0.932,9.371-2.768,13.714c-1.775,4.196-4.316,7.964-7.553,11.199c-3.235,3.234-7.003,5.775-11.199,7.552
				C904.479,551.312,899.863,552.244,895.108,552.244z"/>
			<g id="Layer_19_copy_4">
				<polyline fill="none" stroke="#EB2428" stroke-width="0.001" stroke-miterlimit="10" points="1225.136,580.082 1225.136,453 
					1114.925,389.582 				"/>
				<polyline fill="none" stroke="#1B9647" stroke-width="0.001" stroke-miterlimit="10" points="1115.21,643.727 1225.14,580.088 
					1225.136,580.082 				"/>
				
					<line fill="none" stroke="#EB2428" stroke-width="0.001" stroke-miterlimit="10" x1="1005.013" y1="580.282" x2="1115.21" y2="643.727"/>
			</g>
			<path fill="none" stroke="#F6EB13" stroke-width="0.001" stroke-miterlimit="10" d="M1115.231,552.244
				c-4.756,0-9.371-0.932-13.715-2.768c-4.196-1.777-7.963-4.318-11.2-7.552c-3.235-3.235-5.776-7.003-7.551-11.199
				c-1.837-4.344-2.769-8.958-2.769-13.714c0-4.755,0.932-9.37,2.769-13.714c1.774-4.196,4.315-7.964,7.551-11.199
				c3.237-3.237,7.004-5.776,11.2-7.552c4.344-1.835,8.959-2.768,13.715-2.768c4.755,0,9.37,0.933,13.713,2.768
				c4.196,1.776,7.964,4.315,11.199,7.552c3.236,3.235,5.777,7.003,7.553,11.199c1.836,4.344,2.768,8.958,2.768,13.714
				c0,4.757-0.932,9.371-2.768,13.714c-1.775,4.196-4.316,7.964-7.553,11.199c-3.235,3.234-7.003,5.775-11.199,7.552
				C1124.602,551.312,1119.986,552.244,1115.231,552.244z"/>
			<g id="Layer_19_copy_7">
				
					<line fill="none" stroke="#EB2428" stroke-width="0.001" stroke-miterlimit="10" x1="344.514" y1="580.664" x2="344.514" y2="453.582"/>
				<polyline fill="none" stroke="#1B9647" stroke-width="0.001" stroke-miterlimit="10" points="233.826,643.869 234.588,644.309 
					344.518,580.669 344.514,580.664 				"/>
				<polyline fill="none" stroke="#EB2428" stroke-width="0.001" stroke-miterlimit="10" points="124.391,453.772 124.391,580.863 
					233.826,643.869 				"/>
			</g>
			<path fill="none" stroke="#F6EB13" stroke-width="0.001" stroke-miterlimit="10" d="M234.609,552.826
				c-4.756,0-9.371-0.932-13.714-2.768c-4.196-1.777-7.963-4.318-11.2-7.553c-3.236-3.235-5.776-7.003-7.551-11.199
				c-1.836-4.344-2.768-8.958-2.768-13.714c0-4.755,0.932-9.37,2.768-13.714c1.775-4.196,4.315-7.964,7.551-11.199
				c3.236-3.237,7.004-5.776,11.2-7.552c4.344-1.835,8.958-2.768,13.714-2.768s9.37,0.933,13.713,2.768
				c4.197,1.776,7.965,4.315,11.2,7.552c3.236,3.235,5.777,7.003,7.553,11.199c1.836,4.344,2.768,8.958,2.768,13.714
				c0,4.757-0.932,9.371-2.768,13.714c-1.775,4.196-4.316,7.964-7.553,11.199c-3.234,3.235-7.002,5.775-11.2,7.553
				C243.979,551.894,239.365,552.826,234.609,552.826z"/>
			<g id="Layer_19_copy_11">
				<polyline fill="none" stroke="#EB2428" stroke-width="0.001" stroke-miterlimit="10" points="1445.542,579.313 
					1445.542,452.231 1335.331,388.813 				"/>
				<polyline fill="none" stroke="#1B9647" stroke-width="0.001" stroke-miterlimit="10" points="1335.616,642.958 
					1445.546,579.319 1445.542,579.313 				"/>
				
					<line fill="none" stroke="#EB2428" stroke-width="0.001" stroke-miterlimit="10" x1="1225.419" y1="579.513" x2="1335.616" y2="642.958"/>
			</g>
			<path fill="none" stroke="#F6EB13" stroke-width="0.001" stroke-miterlimit="10" d="M1335.638,551.475
				c-4.756,0-9.371-0.932-13.715-2.768c-4.196-1.777-7.963-4.318-11.2-7.552c-3.235-3.236-5.776-7.004-7.551-11.2
				c-1.837-4.343-2.769-8.958-2.769-13.714c0-4.755,0.932-9.37,2.769-13.713c1.774-4.196,4.315-7.964,7.551-11.199
				c3.237-3.237,7.004-5.776,11.2-7.552c4.344-1.835,8.959-2.768,13.715-2.768c4.755,0,9.37,0.933,13.713,2.768
				c4.196,1.776,7.964,4.315,11.199,7.552c3.236,3.235,5.777,7.003,7.553,11.199c1.836,4.343,2.768,8.958,2.768,13.713
				c0,4.756-0.932,9.371-2.768,13.714c-1.775,4.196-4.316,7.964-7.553,11.2c-3.235,3.234-7.003,5.774-11.199,7.552
				C1345.008,550.542,1340.393,551.475,1335.638,551.475z"/>
		</g>
		<g id="row_2">
			<g id="Layer_19_copy_5_4_">
				
					<line fill="none" stroke="#EB2428" stroke-width="0.001" stroke-miterlimit="10" x1="235.083" y1="262.699" x2="235.089" y2="262.667"/>
				<path fill="none" stroke="#EB2428" stroke-width="0.001" stroke-miterlimit="10" d="M455.212,262.476"/>
				<polyline fill="none" stroke="#EB2428" stroke-width="0.001" stroke-miterlimit="10" points="455.216,389.564 455.212,389.558 
					455.212,262.476 				"/>
				
					<line fill="none" stroke="#1B9647" stroke-width="0.001" stroke-miterlimit="10" x1="345.286" y1="453.203" x2="455.216" y2="389.564"/>
				
					<line fill="none" stroke="#EB2428" stroke-width="0.001" stroke-miterlimit="10" x1="235.089" y1="389.758" x2="345.286" y2="453.203"/>
			</g>
			<path fill="none" stroke="#F6EB13" stroke-width="0.001" stroke-miterlimit="10" d="M345.308,361.72
				c-4.756,0-9.371-0.932-13.714-2.768c-4.197-1.777-7.964-4.318-11.201-7.553c-3.236-3.235-5.776-7.003-7.551-11.199
				c-1.836-4.344-2.769-8.958-2.769-13.714c0-4.755,0.932-9.37,2.769-13.714c1.774-4.196,4.315-7.964,7.551-11.199
				c3.237-3.237,7.004-5.776,11.201-7.552c4.343-1.835,8.958-2.768,13.714-2.768c4.755,0,9.37,0.933,13.712,2.768
				c4.197,1.776,7.965,4.315,11.2,7.552c3.237,3.235,5.777,7.003,7.553,11.199c1.835,4.344,2.768,8.958,2.768,13.714
				c0,4.757-0.932,9.371-2.768,13.714c-1.775,4.196-4.316,7.964-7.553,11.199c-3.235,3.235-7.003,5.775-11.2,7.553
				C354.678,360.788,350.063,361.72,345.308,361.72z"/>
			<g id="Layer_19_copy_5_3_">
				
					<line fill="none" stroke="#EB2428" stroke-width="0.001" stroke-miterlimit="10" x1="455.206" y1="262.699" x2="455.212" y2="262.667"/>
				<path fill="none" stroke="#EB2428" stroke-width="0.001" stroke-miterlimit="10" d="M675.335,262.476"/>
				<polyline fill="none" stroke="#EB2428" stroke-width="0.001" stroke-miterlimit="10" points="675.339,389.564 675.335,389.558 
					675.335,262.476 				"/>
				
					<line fill="none" stroke="#1B9647" stroke-width="0.001" stroke-miterlimit="10" x1="565.409" y1="453.203" x2="675.339" y2="389.564"/>
				
					<line fill="none" stroke="#EB2428" stroke-width="0.001" stroke-miterlimit="10" x1="455.212" y1="389.758" x2="565.409" y2="453.203"/>
			</g>
			<path fill="none" stroke="#F6EB13" stroke-width="0.001" stroke-miterlimit="10" d="M565.431,361.72
				c-4.756,0-9.371-0.932-13.715-2.768c-4.196-1.777-7.963-4.318-11.2-7.553c-3.235-3.235-5.776-7.003-7.551-11.199
				c-1.837-4.344-2.769-8.958-2.769-13.714c0-4.755,0.932-9.37,2.769-13.714c1.774-4.196,4.315-7.964,7.551-11.199
				c3.237-3.237,7.004-5.776,11.2-7.552c4.344-1.835,8.959-2.768,13.715-2.768c4.755,0,9.37,0.933,13.713,2.768
				c4.196,1.776,7.964,4.315,11.199,7.552c3.236,3.235,5.777,7.003,7.553,11.199c1.836,4.344,2.768,8.958,2.768,13.714
				c0,4.757-0.932,9.371-2.768,13.714c-1.775,4.196-4.316,7.964-7.553,11.199c-3.235,3.235-7.003,5.775-11.199,7.553
				C574.801,360.788,570.186,361.72,565.431,361.72z"/>
			<g id="Layer_19_copy_5_2_">
				
					<line fill="none" stroke="#EB2428" stroke-width="0.001" stroke-miterlimit="10" x1="675.212" y1="262.699" x2="675.218" y2="262.667"/>
				<path fill="none" stroke="#EB2428" stroke-width="0.001" stroke-miterlimit="10" d="M895.341,262.476"/>
				<polyline fill="none" stroke="#EB2428" stroke-width="0.001" stroke-miterlimit="10" points="895.345,389.564 895.341,389.558 
					895.341,262.476 				"/>
				
					<line fill="none" stroke="#1B9647" stroke-width="0.001" stroke-miterlimit="10" x1="785.415" y1="453.203" x2="895.345" y2="389.564"/>
				
					<line fill="none" stroke="#EB2428" stroke-width="0.001" stroke-miterlimit="10" x1="675.218" y1="389.758" x2="785.415" y2="453.203"/>
			</g>
			<path fill="none" stroke="#F6EB13" stroke-width="0.001" stroke-miterlimit="10" d="M785.437,361.72
				c-4.756,0-9.371-0.932-13.715-2.768c-4.196-1.777-7.963-4.318-11.2-7.553c-3.235-3.235-5.776-7.003-7.551-11.199
				c-1.837-4.344-2.769-8.958-2.769-13.714c0-4.755,0.932-9.37,2.769-13.714c1.774-4.196,4.315-7.964,7.551-11.199
				c3.237-3.237,7.004-5.776,11.2-7.552c4.344-1.835,8.959-2.768,13.715-2.768c4.755,0,9.37,0.933,13.713,2.768
				c4.196,1.776,7.964,4.315,11.199,7.552c3.236,3.235,5.777,7.003,7.553,11.199c1.836,4.344,2.768,8.958,2.768,13.714
				c0,4.757-0.932,9.371-2.768,13.714c-1.775,4.196-4.316,7.964-7.553,11.199c-3.235,3.235-7.003,5.775-11.199,7.553
				C794.807,360.788,790.191,361.72,785.437,361.72z"/>
			<g id="Layer_19_copy_5_1_">
				
					<line fill="none" stroke="#EB2428" stroke-width="0.001" stroke-miterlimit="10" x1="895.335" y1="262.699" x2="895.341" y2="262.667"/>
				<path fill="none" stroke="#EB2428" stroke-width="0.001" stroke-miterlimit="10" d="M1115.464,262.476"/>
				
					<line fill="none" stroke="#EB2428" stroke-width="0.001" stroke-miterlimit="10" x1="1115.464" y1="389.558" x2="1115.464" y2="262.476"/>
				<polyline fill="none" stroke="#1B9647" stroke-width="0.001" stroke-miterlimit="10" points="1005.538,453.203 
					1115.468,389.564 1115.464,389.558 				"/>
				
					<line fill="none" stroke="#EB2428" stroke-width="0.001" stroke-miterlimit="10" x1="895.341" y1="389.758" x2="1005.538" y2="453.203"/>
			</g>
			<path fill="none" stroke="#F6EB13" stroke-width="0.001" stroke-miterlimit="10" d="M1005.56,361.72
				c-4.756,0-9.371-0.932-13.715-2.768c-4.196-1.777-7.963-4.318-11.2-7.553c-3.235-3.235-5.776-7.003-7.551-11.199
				c-1.837-4.344-2.769-8.958-2.769-13.714c0-4.755,0.932-9.37,2.769-13.714c1.774-4.196,4.315-7.964,7.551-11.199
				c3.237-3.237,7.004-5.776,11.2-7.552c4.344-1.835,8.959-2.768,13.715-2.768c4.755,0,9.37,0.933,13.713,2.768
				c4.196,1.776,7.964,4.315,11.199,7.552c3.237,3.235,5.777,7.003,7.553,11.199c1.836,4.344,2.768,8.958,2.768,13.714
				c0,4.757-0.932,9.371-2.768,13.714c-1.775,4.196-4.315,7.964-7.553,11.199c-3.235,3.235-7.003,5.775-11.199,7.553
				C1014.93,360.788,1010.314,361.72,1005.56,361.72z"/>
			<g id="Layer_19_copy_5">
				<path fill="none" stroke="#EB2428" stroke-width="0.001" stroke-miterlimit="10" d="M234.842,262.476"/>
				<polyline fill="none" stroke="#EB2428" stroke-width="0.001" stroke-miterlimit="10" points="234.846,389.564 234.842,389.558 
					234.842,262.476 				"/>
				
					<line fill="none" stroke="#1B9647" stroke-width="0.001" stroke-miterlimit="10" x1="124.917" y1="453.203" x2="234.846" y2="389.564"/>
				<polyline fill="none" stroke="#EB2428" stroke-width="0.001" stroke-miterlimit="10" points="14.713,262.699 14.719,262.667 
					14.719,389.758 124.917,453.203 				"/>
				<polyline fill="none" stroke="#1B9647" stroke-width="0.001" stroke-miterlimit="10" points="124.625,199.09 14.708,262.731 
					14.713,262.699 				"/>
			</g>
			<path fill="none" stroke="#F6EB13" stroke-width="0.001" stroke-miterlimit="10" d="M124.937,361.72
				c-4.756,0-9.371-0.932-13.714-2.768c-4.196-1.777-7.963-4.318-11.2-7.553c-3.236-3.235-5.776-7.003-7.551-11.199
				c-1.836-4.344-2.768-8.958-2.768-13.714c0-4.755,0.932-9.37,2.768-13.714c1.775-4.196,4.315-7.964,7.551-11.199
				c3.236-3.237,7.004-5.776,11.2-7.552c4.344-1.835,8.958-2.768,13.714-2.768s9.37,0.933,13.713,2.768
				c4.197,1.776,7.965,4.315,11.2,7.552c3.236,3.235,5.777,7.003,7.553,11.199c1.836,4.344,2.768,8.958,2.768,13.714
				c0,4.757-0.932,9.371-2.768,13.714c-1.775,4.196-4.316,7.964-7.553,11.199c-3.234,3.235-7.002,5.775-11.2,7.553
				C134.307,360.788,129.693,361.72,124.937,361.72z"/>
			<g id="Layer_19_copy_9">
				
					<line fill="none" stroke="#EB2428" stroke-width="0.001" stroke-miterlimit="10" x1="1335.339" y1="388.809" x2="1335.339" y2="261.727"/>
				<polyline fill="none" stroke="#1B9647" stroke-width="0.001" stroke-miterlimit="10" points="1225.413,452.454 
					1335.343,388.815 1335.339,388.809 				"/>
			</g>
			<path fill="none" stroke="#F6EB13" stroke-width="0.001" stroke-miterlimit="10" d="M1225.435,360.971
				c-4.756,0-9.371-0.932-13.715-2.768c-4.196-1.777-7.963-4.318-11.2-7.553c-3.235-3.235-5.776-7.003-7.551-11.199
				c-1.837-4.344-2.769-8.958-2.769-13.714c0-4.755,0.932-9.37,2.769-13.714c1.774-4.196,4.315-7.964,7.551-11.199
				c3.237-3.237,7.004-5.776,11.2-7.552c4.344-1.835,8.959-2.768,13.715-2.768c4.755,0,9.37,0.933,13.713,2.768
				c4.196,1.776,7.964,4.315,11.199,7.552c3.236,3.235,5.777,7.003,7.553,11.199c1.836,4.344,2.768,8.958,2.768,13.714
				c0,4.757-0.932,9.371-2.768,13.714c-1.775,4.196-4.316,7.964-7.553,11.199c-3.235,3.235-7.003,5.775-11.199,7.553
				C1234.805,360.039,1230.189,360.971,1225.435,360.971z"/>
		</g>
		<g id="row_1">
			<g id="Layer_19_copy">
				<polyline fill="none" stroke="#1B9647" stroke-width="0.001" stroke-miterlimit="10" points="454.673,7.582 344.755,71.223 
					344.761,71.191 				"/>
				<polyline fill="none" stroke="#EB2428" stroke-width="0.001" stroke-miterlimit="10" points="564.884,198.082 564.884,71 
					454.673,7.582 				"/>
				<polyline fill="none" stroke="#1B9647" stroke-width="0.001" stroke-miterlimit="10" points="454.958,261.727 564.888,198.088 
					564.884,198.082 				"/>
				
					<line fill="none" stroke="#EB2428" stroke-width="0.001" stroke-miterlimit="10" x1="344.761" y1="198.282" x2="454.958" y2="261.727"/>
			</g>
			<g id="Layer_19_copy_2">
				<polyline fill="none" stroke="#1B9647" stroke-width="0.001" stroke-miterlimit="10" points="674.796,7.582 564.878,71.223 
					564.884,71.191 				"/>
				<polyline fill="none" stroke="#EB2428" stroke-width="0.001" stroke-miterlimit="10" points="785.007,198.082 785.007,71 
					674.796,7.582 				"/>
				<polyline fill="none" stroke="#1B9647" stroke-width="0.001" stroke-miterlimit="10" points="675.081,261.727 785.011,198.088 
					785.007,198.082 				"/>
				
					<line fill="none" stroke="#EB2428" stroke-width="0.001" stroke-miterlimit="10" x1="564.884" y1="198.282" x2="675.081" y2="261.727"/>
			</g>
			<path fill="none" stroke="#F6EB13" stroke-width="0.001" stroke-miterlimit="10" d="M675.103,170.244
				c-4.756,0-9.371-0.932-13.715-2.768c-4.196-1.777-7.963-4.318-11.2-7.553c-3.235-3.235-5.776-7.003-7.551-11.199
				c-1.837-4.344-2.769-8.958-2.769-13.714c0-4.755,0.932-9.37,2.769-13.714c1.774-4.196,4.315-7.964,7.551-11.199
				c3.237-3.237,7.004-5.776,11.2-7.552c4.344-1.835,8.959-2.768,13.715-2.768c4.755,0,9.37,0.933,13.713,2.768
				c4.196,1.776,7.964,4.315,11.199,7.552c3.236,3.235,5.777,7.003,7.553,11.199c1.836,4.344,2.768,8.958,2.768,13.714
				c0,4.757-0.932,9.371-2.768,13.714c-1.775,4.196-4.316,7.964-7.553,11.199c-3.235,3.235-7.003,5.775-11.199,7.553
				C684.473,169.312,679.857,170.244,675.103,170.244z"/>
			<g id="Layer_19_copy_3_1_">
				<polyline fill="none" stroke="#1B9647" stroke-width="0.001" stroke-miterlimit="10" points="894.802,7.582 784.884,71.223 
					784.89,71.191 				"/>
				<polyline fill="none" stroke="#EB2428" stroke-width="0.001" stroke-miterlimit="10" points="1005.013,198.082 1005.013,71 
					894.802,7.582 				"/>
				<polyline fill="none" stroke="#1B9647" stroke-width="0.001" stroke-miterlimit="10" points="895.087,261.727 1005.017,198.088 
					1005.013,198.082 				"/>
				
					<line fill="none" stroke="#EB2428" stroke-width="0.001" stroke-miterlimit="10" x1="784.89" y1="198.282" x2="895.087" y2="261.727"/>
			</g>
			<path fill="none" stroke="#F6EB13" stroke-width="0.001" stroke-miterlimit="10" d="M895.108,170.244
				c-4.756,0-9.371-0.932-13.715-2.768c-4.196-1.777-7.963-4.318-11.2-7.553c-3.235-3.235-5.776-7.003-7.551-11.199
				c-1.837-4.344-2.769-8.958-2.769-13.714c0-4.755,0.932-9.37,2.769-13.714c1.774-4.196,4.315-7.964,7.551-11.199
				c3.237-3.237,7.004-5.776,11.2-7.552c4.344-1.835,8.959-2.768,13.715-2.768c4.755,0,9.37,0.933,13.713,2.768
				c4.196,1.776,7.964,4.315,11.199,7.552c3.236,3.235,5.777,7.003,7.553,11.199c1.836,4.344,2.768,8.958,2.768,13.714
				c0,4.757-0.932,9.371-2.768,13.714c-1.775,4.196-4.316,7.964-7.553,11.199c-3.235,3.235-7.003,5.775-11.199,7.553
				C904.479,169.312,899.863,170.244,895.108,170.244z"/>
			<g id="Layer_19_copy_3">
				<polyline fill="none" stroke="#1B9647" stroke-width="0.001" stroke-miterlimit="10" points="1114.925,7.582 1005.007,71.223 
					1005.013,71.191 				"/>
				<polyline fill="none" stroke="#EB2428" stroke-width="0.001" stroke-miterlimit="10" points="1225.136,198.082 1225.136,71 
					1114.925,7.582 				"/>
				<polyline fill="none" stroke="#1B9647" stroke-width="0.001" stroke-miterlimit="10" points="1115.21,261.727 1225.14,198.088 
					1225.136,198.082 				"/>
				
					<line fill="none" stroke="#EB2428" stroke-width="0.001" stroke-miterlimit="10" x1="1005.013" y1="198.282" x2="1115.21" y2="261.727"/>
			</g>
			<path fill="none" stroke="#F6EB13" stroke-width="0.001" stroke-miterlimit="10" d="M1115.231,170.244
				c-4.756,0-9.371-0.932-13.715-2.768c-4.196-1.777-7.963-4.318-11.2-7.553c-3.235-3.235-5.776-7.003-7.551-11.199
				c-1.837-4.344-2.769-8.958-2.769-13.714c0-4.755,0.932-9.37,2.769-13.714c1.774-4.196,4.315-7.964,7.551-11.199
				c3.237-3.237,7.004-5.776,11.2-7.552c4.344-1.835,8.959-2.768,13.715-2.768c4.755,0,9.37,0.933,13.713,2.768
				c4.196,1.776,7.964,4.315,11.199,7.552c3.236,3.235,5.777,7.003,7.553,11.199c1.836,4.344,2.768,8.958,2.768,13.714
				c0,4.757-0.932,9.371-2.768,13.714c-1.775,4.196-4.316,7.964-7.553,11.199c-3.235,3.235-7.003,5.775-11.199,7.553
				C1124.602,169.312,1119.986,170.244,1115.231,170.244z"/>
			<g id="Layer_19_copy_8">
				<polyline fill="none" stroke="#1B9647" stroke-width="0.001" stroke-miterlimit="10" points="1335.054,7.582 1225.136,71.223 
					1225.142,71.191 				"/>
				<polyline fill="none" stroke="#EB2428" stroke-width="0.001" stroke-miterlimit="10" points="1445.269,198.088 
					1445.265,198.082 1445.265,71 1335.054,7.582 				"/>
				
					<line fill="none" stroke="#1B9647" stroke-width="0.001" stroke-miterlimit="10" x1="1335.339" y1="261.727" x2="1445.269" y2="198.088"/>
				
					<line fill="none" stroke="#EB2428" stroke-width="0.001" stroke-miterlimit="10" x1="1225.142" y1="198.282" x2="1335.339" y2="261.727"/>
			</g>
			<path fill="none" stroke="#F6EB13" stroke-width="0.001" stroke-miterlimit="10" d="M1335.36,170.244
				c-4.756,0-9.371-0.932-13.715-2.768c-4.196-1.777-7.963-4.318-11.2-7.553c-3.235-3.235-5.776-7.003-7.551-11.199
				c-1.837-4.344-2.769-8.958-2.769-13.714c0-4.755,0.932-9.37,2.769-13.714c1.774-4.196,4.315-7.964,7.551-11.199
				c3.237-3.237,7.004-5.776,11.2-7.552c4.344-1.835,8.959-2.768,13.715-2.768c4.755,0,9.37,0.933,13.713,2.768
				c4.196,1.776,7.964,4.315,11.199,7.552c3.237,3.235,5.777,7.003,7.553,11.199c1.836,4.344,2.768,8.958,2.768,13.714
				c0,4.757-0.932,9.371-2.768,13.714c-1.775,4.196-4.315,7.964-7.553,11.199c-3.235,3.235-7.003,5.775-11.199,7.553
				C1344.73,169.312,1340.115,170.244,1335.36,170.244z"/>
		</g>
	</g>
	<g id="One_cut">
		<g id="Layer_19">
			<polyline fill="none" stroke="#1B9647" stroke-width="0.001" stroke-miterlimit="10" points="234.588,261.727 344.518,198.088 
				344.514,198.082 			"/>
			<polyline fill="none" stroke="#EB2428" stroke-width="0.001" stroke-miterlimit="10" points="124.385,71.223 124.391,71.191 
				124.391,198.282 234.588,261.727 			"/>
			
				<line fill="none" stroke="#1B9647" stroke-width="0.001" stroke-miterlimit="10" x1="234.302" y1="7.582" x2="124.385" y2="71.223"/>
			<polyline fill="none" stroke="#EB2428" stroke-width="0.001" stroke-miterlimit="10" points="344.514,198.082 344.514,71 
				234.302,7.582 			"/>
		</g>
	</g>
</g>
<g id="Pips">
	<path fill="none" stroke="#3B55A5" stroke-width="0.001" stroke-miterlimit="10" d="M454.979,926.397
		c-3.805,0-7.497-0.745-10.972-2.214c-3.357-1.422-6.371-3.454-8.96-6.042c-2.589-2.589-4.621-5.603-6.041-8.96
		c-1.469-3.475-2.215-7.166-2.215-10.972c0-3.804,0.746-7.496,2.215-10.971c1.419-3.356,3.452-6.37,6.041-8.959
		c2.589-2.589,5.603-4.621,8.96-6.042c3.475-1.469,7.167-2.214,10.972-2.214c3.804,0,7.496,0.745,10.97,2.214
		c3.357,1.421,6.372,3.453,8.96,6.042c2.589,2.589,4.622,5.603,6.042,8.959c1.468,3.475,2.214,7.167,2.214,10.971
		c0,3.806-0.746,7.497-2.214,10.972c-1.42,3.357-3.453,6.371-6.042,8.96c-2.588,2.588-5.603,4.62-8.96,6.042
		C462.476,925.652,458.784,926.397,454.979,926.397z"/>
	<path fill="none" stroke="#3B55A5" stroke-width="0.001" stroke-miterlimit="10" d="M675.103,926.397
		c-3.805,0-7.497-0.745-10.972-2.214c-3.357-1.422-6.371-3.454-8.961-6.042c-2.588-2.589-4.621-5.603-6.04-8.96
		c-1.47-3.475-2.215-7.166-2.215-10.972c0-3.804,0.745-7.496,2.215-10.971c1.419-3.356,3.452-6.37,6.04-8.959
		c2.59-2.589,5.604-4.621,8.961-6.042c3.475-1.469,7.167-2.214,10.972-2.214c3.804,0,7.496,0.745,10.97,2.214
		c3.357,1.421,6.371,3.453,8.96,6.042s4.622,5.603,6.042,8.959c1.469,3.475,2.214,7.167,2.214,10.971
		c0,3.806-0.745,7.497-2.214,10.972c-1.42,3.357-3.453,6.371-6.042,8.96c-2.589,2.588-5.603,4.62-8.96,6.042
		C682.599,925.652,678.906,926.397,675.103,926.397z"/>
	<path fill="none" stroke="#3B55A5" stroke-width="0.001" stroke-miterlimit="10" d="M895.108,926.397
		c-3.805,0-7.497-0.745-10.972-2.214c-3.357-1.422-6.371-3.454-8.961-6.042c-2.588-2.589-4.621-5.603-6.04-8.96
		c-1.47-3.475-2.215-7.166-2.215-10.972c0-3.804,0.745-7.496,2.215-10.971c1.419-3.356,3.452-6.37,6.04-8.959
		c2.59-2.589,5.604-4.621,8.961-6.042c3.475-1.469,7.167-2.214,10.972-2.214c3.804,0,7.496,0.745,10.97,2.214
		c3.357,1.421,6.371,3.453,8.96,6.042s4.622,5.603,6.042,8.959c1.469,3.475,2.214,7.167,2.214,10.971
		c0,3.806-0.745,7.497-2.214,10.972c-1.42,3.357-3.453,6.371-6.042,8.96c-2.589,2.588-5.603,4.62-8.96,6.042
		C902.604,925.652,898.912,926.397,895.108,926.397z"/>
	<path fill="none" stroke="#3B55A5" stroke-width="0.001" stroke-miterlimit="10" d="M1115.231,926.397
		c-3.805,0-7.497-0.745-10.972-2.214c-3.357-1.422-6.371-3.454-8.961-6.042c-2.588-2.589-4.621-5.603-6.04-8.96
		c-1.47-3.475-2.215-7.166-2.215-10.972c0-3.804,0.745-7.496,2.215-10.971c1.419-3.356,3.452-6.37,6.04-8.959
		c2.59-2.589,5.604-4.621,8.961-6.042c3.475-1.469,7.167-2.214,10.972-2.214c3.804,0,7.496,0.745,10.97,2.214
		c3.357,1.421,6.371,3.453,8.96,6.042s4.622,5.603,6.042,8.959c1.469,3.475,2.214,7.167,2.214,10.971
		c0,3.806-0.745,7.497-2.214,10.972c-1.42,3.357-3.453,6.371-6.042,8.96c-2.589,2.588-5.603,4.62-8.96,6.042
		C1122.728,925.652,1119.035,926.397,1115.231,926.397z"/>
	<path fill="none" stroke="#3B55A5" stroke-width="0.001" stroke-miterlimit="10" d="M234.609,926.979
		c-3.805,0-7.497-0.745-10.972-2.214c-3.356-1.422-6.371-3.454-8.959-6.043c-2.589-2.588-4.621-5.602-6.041-8.959
		c-1.469-3.476-2.214-7.166-2.214-10.972c0-3.804,0.745-7.496,2.214-10.972c1.42-3.355,3.452-6.369,6.041-8.959
		c2.589-2.589,5.603-4.621,8.959-6.041c3.475-1.469,7.167-2.214,10.972-2.214s7.496,0.745,10.97,2.214
		c3.358,1.42,6.373,3.452,8.96,6.041c2.589,2.59,4.622,5.604,6.042,8.959c1.469,3.476,2.214,7.168,2.214,10.972
		c0,3.806-0.746,7.496-2.214,10.972c-1.42,3.357-3.453,6.371-6.042,8.959c-2.587,2.589-5.602,4.621-8.96,6.043
		C242.105,926.234,238.414,926.979,234.609,926.979z"/>
	<path fill="none" stroke="#3B55A5" stroke-width="0.001" stroke-miterlimit="10" d="M1335.638,925.628
		c-3.805,0-7.497-0.745-10.972-2.214c-3.357-1.422-6.371-3.454-8.961-6.041c-2.588-2.59-4.621-5.604-6.04-8.96
		c-1.47-3.475-2.215-7.167-2.215-10.972c0-3.804,0.745-7.496,2.215-10.971c1.419-3.357,3.452-6.371,6.04-8.959
		c2.59-2.59,5.604-4.621,8.961-6.042c3.475-1.469,7.167-2.215,10.972-2.215c3.804,0,7.496,0.746,10.97,2.215
		c3.357,1.421,6.371,3.452,8.96,6.042c2.589,2.588,4.622,5.602,6.042,8.959c1.469,3.475,2.214,7.167,2.214,10.971
		c0,3.805-0.745,7.497-2.214,10.972c-1.42,3.356-3.453,6.37-6.042,8.96c-2.589,2.587-5.603,4.619-8.96,6.041
		C1343.134,924.883,1339.441,925.628,1335.638,925.628z"/>
	<path fill="none" stroke="#3B55A5" stroke-width="0.001" stroke-miterlimit="10" d="M345.308,736.674
		c-3.805,0-7.497-0.745-10.972-2.214c-3.357-1.422-6.371-3.454-8.96-6.043c-2.589-2.588-4.621-5.602-6.041-8.959
		c-1.469-3.476-2.215-7.166-2.215-10.972c0-3.804,0.746-7.496,2.215-10.972c1.419-3.355,3.452-6.369,6.041-8.959
		c2.589-2.588,5.603-4.621,8.96-6.041c3.475-1.469,7.167-2.214,10.972-2.214c3.804,0,7.496,0.745,10.97,2.214
		c3.357,1.42,6.372,3.453,8.96,6.041c2.589,2.59,4.622,5.604,6.042,8.959c1.468,3.476,2.214,7.168,2.214,10.972
		c0,3.806-0.746,7.496-2.214,10.972c-1.42,3.357-3.453,6.371-6.042,8.959c-2.588,2.589-5.603,4.621-8.96,6.043
		C352.804,735.929,349.112,736.674,345.308,736.674z"/>
	<path fill="none" stroke="#3B55A5" stroke-width="0.001" stroke-miterlimit="10" d="M565.431,736.674
		c-3.805,0-7.497-0.745-10.972-2.214c-3.357-1.422-6.371-3.454-8.961-6.043c-2.588-2.588-4.621-5.602-6.04-8.959
		c-1.47-3.476-2.215-7.166-2.215-10.972c0-3.804,0.745-7.496,2.215-10.972c1.419-3.355,3.452-6.369,6.04-8.959
		c2.59-2.588,5.604-4.621,8.961-6.041c3.475-1.469,7.167-2.214,10.972-2.214c3.804,0,7.496,0.745,10.97,2.214
		c3.357,1.42,6.371,3.453,8.96,6.041c2.589,2.59,4.622,5.604,6.042,8.959c1.469,3.476,2.214,7.168,2.214,10.972
		c0,3.806-0.745,7.496-2.214,10.972c-1.42,3.357-3.453,6.371-6.042,8.959c-2.589,2.589-5.603,4.621-8.96,6.043
		C572.927,735.929,569.234,736.674,565.431,736.674z"/>
	<path fill="none" stroke="#3B55A5" stroke-width="0.001" stroke-miterlimit="10" d="M785.437,736.674
		c-3.805,0-7.497-0.745-10.972-2.214c-3.357-1.422-6.371-3.454-8.961-6.043c-2.588-2.588-4.621-5.602-6.04-8.959
		c-1.47-3.476-2.215-7.166-2.215-10.972c0-3.804,0.745-7.496,2.215-10.972c1.419-3.355,3.452-6.369,6.04-8.959
		c2.59-2.588,5.604-4.621,8.961-6.041c3.475-1.469,7.167-2.214,10.972-2.214c3.804,0,7.496,0.745,10.97,2.214
		c3.357,1.42,6.371,3.453,8.96,6.041c2.589,2.59,4.622,5.604,6.042,8.959c1.469,3.476,2.214,7.168,2.214,10.972
		c0,3.806-0.745,7.496-2.214,10.972c-1.42,3.357-3.453,6.371-6.042,8.959c-2.589,2.589-5.603,4.621-8.96,6.043
		C792.933,735.929,789.24,736.674,785.437,736.674z"/>
	<path fill="none" stroke="#3B55A5" stroke-width="0.001" stroke-miterlimit="10" d="M1005.56,736.674
		c-3.805,0-7.497-0.745-10.972-2.214c-3.357-1.422-6.371-3.454-8.961-6.043c-2.588-2.588-4.621-5.602-6.04-8.959
		c-1.47-3.476-2.215-7.166-2.215-10.972c0-3.804,0.745-7.496,2.215-10.972c1.419-3.355,3.452-6.369,6.04-8.959
		c2.59-2.588,5.604-4.621,8.961-6.041c3.475-1.469,7.167-2.214,10.972-2.214c3.804,0,7.496,0.745,10.97,2.214
		c3.357,1.42,6.371,3.453,8.96,6.041c2.59,2.59,4.622,5.604,6.042,8.959c1.469,3.476,2.214,7.168,2.214,10.972
		c0,3.806-0.745,7.496-2.214,10.972c-1.42,3.357-3.452,6.371-6.042,8.959c-2.589,2.589-5.603,4.621-8.96,6.043
		C1013.056,735.929,1009.363,736.674,1005.56,736.674z"/>
	<path fill="none" stroke="#3B55A5" stroke-width="0.001" stroke-miterlimit="10" d="M124.937,736.674
		c-3.805,0-7.497-0.745-10.972-2.214c-3.356-1.422-6.371-3.454-8.959-6.043c-2.589-2.588-4.621-5.602-6.041-8.959
		c-1.469-3.476-2.214-7.166-2.214-10.972c0-3.804,0.745-7.496,2.214-10.972c1.42-3.355,3.452-6.369,6.041-8.959
		c2.589-2.588,5.603-4.621,8.959-6.041c3.475-1.469,7.167-2.214,10.972-2.214s7.496,0.745,10.97,2.214
		c3.358,1.42,6.373,3.453,8.96,6.041c2.589,2.59,4.622,5.604,6.042,8.959c1.469,3.476,2.214,7.168,2.214,10.972
		c0,3.806-0.746,7.496-2.214,10.972c-1.42,3.357-3.453,6.371-6.042,8.959c-2.587,2.589-5.602,4.621-8.96,6.043
		C132.433,735.929,128.742,736.674,124.937,736.674z"/>
	<path fill="none" stroke="#3B55A5" stroke-width="0.001" stroke-miterlimit="10" d="M1225.726,735.128
		c-3.805,0-7.497-0.745-10.972-2.214c-3.357-1.422-6.371-3.454-8.961-6.041c-2.589-2.59-4.621-5.604-6.04-8.96
		c-1.47-3.475-2.215-7.167-2.215-10.972c0-3.804,0.745-7.496,2.215-10.971c1.419-3.357,3.451-6.371,6.04-8.959
		c2.59-2.59,5.604-4.621,8.961-6.042c3.475-1.469,7.167-2.215,10.972-2.215c3.804,0,7.496,0.746,10.97,2.215
		c3.357,1.421,6.371,3.452,8.96,6.042c2.589,2.588,4.622,5.602,6.042,8.959c1.469,3.475,2.214,7.167,2.214,10.971
		c0,3.805-0.745,7.497-2.214,10.972c-1.42,3.356-3.453,6.37-6.042,8.96c-2.589,2.587-5.603,4.619-8.96,6.041
		C1233.222,734.383,1229.529,735.128,1225.726,735.128z"/>
	<path fill="none" stroke="#3B55A5" stroke-width="0.001" stroke-miterlimit="10" d="M454.979,545.197
		c-3.805,0-7.497-0.746-10.972-2.214c-3.357-1.422-6.371-3.454-8.96-6.042c-2.589-2.588-4.621-5.603-6.041-8.959
		c-1.469-3.475-2.215-7.166-2.215-10.972c0-3.804,0.746-7.496,2.215-10.971c1.419-3.356,3.452-6.371,6.041-8.959
		c2.589-2.59,5.603-4.621,8.96-6.042c3.475-1.468,7.167-2.214,10.972-2.214c3.804,0,7.496,0.746,10.97,2.214
		c3.357,1.42,6.372,3.452,8.96,6.042c2.589,2.588,4.622,5.603,6.042,8.959c1.468,3.475,2.214,7.167,2.214,10.971
		c0,3.806-0.746,7.497-2.214,10.972c-1.42,3.357-3.453,6.371-6.042,8.959c-2.588,2.587-5.603,4.62-8.96,6.042
		C462.476,544.451,458.784,545.197,454.979,545.197z"/>
	<path fill="none" stroke="#3B55A5" stroke-width="0.001" stroke-miterlimit="10" d="M675.103,545.197
		c-3.805,0-7.497-0.746-10.972-2.214c-3.357-1.422-6.371-3.454-8.961-6.042c-2.588-2.588-4.621-5.603-6.04-8.959
		c-1.47-3.475-2.215-7.166-2.215-10.972c0-3.804,0.745-7.496,2.215-10.971c1.419-3.356,3.452-6.371,6.04-8.959
		c2.59-2.59,5.604-4.621,8.961-6.042c3.475-1.468,7.167-2.214,10.972-2.214c3.804,0,7.496,0.746,10.97,2.214
		c3.357,1.42,6.371,3.452,8.96,6.042c2.589,2.588,4.622,5.603,6.042,8.959c1.469,3.475,2.214,7.167,2.214,10.971
		c0,3.806-0.745,7.497-2.214,10.972c-1.42,3.357-3.453,6.371-6.042,8.959c-2.589,2.587-5.603,4.62-8.96,6.042
		C682.599,544.451,678.906,545.197,675.103,545.197z"/>
	<path fill="none" stroke="#3B55A5" stroke-width="0.001" stroke-miterlimit="10" d="M895.108,545.197
		c-3.805,0-7.497-0.746-10.972-2.214c-3.357-1.422-6.371-3.454-8.961-6.042c-2.588-2.588-4.621-5.603-6.04-8.959
		c-1.47-3.475-2.215-7.166-2.215-10.972c0-3.804,0.745-7.496,2.215-10.971c1.419-3.356,3.452-6.371,6.04-8.959
		c2.59-2.59,5.604-4.621,8.961-6.042c3.475-1.468,7.167-2.214,10.972-2.214c3.804,0,7.496,0.746,10.97,2.214
		c3.357,1.42,6.371,3.452,8.96,6.042c2.589,2.588,4.622,5.603,6.042,8.959c1.469,3.475,2.214,7.167,2.214,10.971
		c0,3.806-0.745,7.497-2.214,10.972c-1.42,3.357-3.453,6.371-6.042,8.959c-2.589,2.587-5.603,4.62-8.96,6.042
		C902.604,544.451,898.912,545.197,895.108,545.197z"/>
	<path fill="none" stroke="#3B55A5" stroke-width="0.001" stroke-miterlimit="10" d="M1115.231,545.197
		c-3.805,0-7.497-0.746-10.972-2.214c-3.357-1.422-6.371-3.454-8.961-6.042c-2.588-2.588-4.621-5.603-6.04-8.959
		c-1.47-3.475-2.215-7.166-2.215-10.972c0-3.804,0.745-7.496,2.215-10.971c1.419-3.356,3.452-6.371,6.04-8.959
		c2.59-2.59,5.604-4.621,8.961-6.042c3.475-1.468,7.167-2.214,10.972-2.214c3.804,0,7.496,0.746,10.97,2.214
		c3.357,1.42,6.371,3.452,8.96,6.042c2.589,2.588,4.622,5.603,6.042,8.959c1.469,3.475,2.214,7.167,2.214,10.971
		c0,3.806-0.745,7.497-2.214,10.972c-1.42,3.357-3.453,6.371-6.042,8.959c-2.589,2.587-5.603,4.62-8.96,6.042
		C1122.728,544.451,1119.035,545.197,1115.231,545.197z"/>
	<path fill="none" stroke="#3B55A5" stroke-width="0.001" stroke-miterlimit="10" d="M234.609,545.779
		c-3.805,0-7.497-0.746-10.972-2.214c-3.356-1.422-6.371-3.454-8.959-6.042c-2.589-2.588-4.621-5.603-6.041-8.959
		c-1.469-3.475-2.214-7.166-2.214-10.972c0-3.804,0.745-7.496,2.214-10.971c1.42-3.356,3.452-6.371,6.041-8.959
		c2.589-2.59,5.603-4.621,8.959-6.042c3.475-1.468,7.167-2.214,10.972-2.214s7.496,0.746,10.97,2.214
		c3.358,1.42,6.373,3.452,8.96,6.042c2.589,2.588,4.622,5.603,6.042,8.959c1.469,3.475,2.214,7.167,2.214,10.971
		c0,3.806-0.746,7.497-2.214,10.972c-1.42,3.357-3.453,6.371-6.042,8.959c-2.587,2.588-5.602,4.62-8.96,6.042
		C242.105,545.033,238.414,545.779,234.609,545.779z"/>
	<path fill="none" stroke="#3B55A5" stroke-width="0.001" stroke-miterlimit="10" d="M1335.638,544.428
		c-3.805,0-7.497-0.746-10.972-2.214c-3.357-1.422-6.371-3.455-8.961-6.042c-2.588-2.589-4.621-5.603-6.04-8.96
		c-1.47-3.475-2.215-7.166-2.215-10.971c0-3.804,0.745-7.496,2.215-10.971c1.419-3.357,3.452-6.372,6.04-8.959
		c2.59-2.59,5.604-4.621,8.961-6.042c3.475-1.468,7.167-2.214,10.972-2.214c3.804,0,7.496,0.746,10.97,2.214
		c3.357,1.421,6.371,3.452,8.96,6.042c2.589,2.588,4.622,5.603,6.042,8.959c1.469,3.475,2.214,7.167,2.214,10.971
		c0,3.805-0.745,7.497-2.214,10.971c-1.42,3.357-3.453,6.371-6.042,8.96c-2.589,2.587-5.603,4.62-8.96,6.042
		C1343.134,543.682,1339.441,544.428,1335.638,544.428z"/>
	<path fill="none" stroke="#3B55A5" stroke-width="0.001" stroke-miterlimit="10" d="M345.308,354.673
		c-3.805,0-7.497-0.746-10.972-2.214c-3.357-1.422-6.371-3.454-8.96-6.042c-2.589-2.588-4.621-5.603-6.041-8.959
		c-1.469-3.475-2.215-7.166-2.215-10.972c0-3.804,0.746-7.496,2.215-10.971c1.419-3.356,3.452-6.371,6.041-8.959
		c2.589-2.59,5.603-4.621,8.96-6.042c3.475-1.468,7.167-2.214,10.972-2.214c3.804,0,7.496,0.746,10.97,2.214
		c3.357,1.42,6.372,3.452,8.96,6.042c2.589,2.588,4.622,5.603,6.042,8.959c1.468,3.475,2.214,7.167,2.214,10.971
		c0,3.806-0.746,7.497-2.214,10.972c-1.42,3.357-3.453,6.371-6.042,8.959c-2.588,2.588-5.603,4.62-8.96,6.042
		C352.804,353.928,349.112,354.673,345.308,354.673z"/>
	<path fill="none" stroke="#3B55A5" stroke-width="0.001" stroke-miterlimit="10" d="M565.431,354.673
		c-3.805,0-7.497-0.746-10.972-2.214c-3.357-1.422-6.371-3.454-8.961-6.042c-2.588-2.588-4.621-5.603-6.04-8.959
		c-1.47-3.475-2.215-7.166-2.215-10.972c0-3.804,0.745-7.496,2.215-10.971c1.419-3.356,3.452-6.371,6.04-8.959
		c2.59-2.59,5.604-4.621,8.961-6.042c3.475-1.468,7.167-2.214,10.972-2.214c3.804,0,7.496,0.746,10.97,2.214
		c3.357,1.42,6.371,3.452,8.96,6.042c2.589,2.588,4.622,5.603,6.042,8.959c1.469,3.475,2.214,7.167,2.214,10.971
		c0,3.806-0.745,7.497-2.214,10.972c-1.42,3.357-3.453,6.371-6.042,8.959c-2.589,2.588-5.603,4.62-8.96,6.042
		C572.927,353.928,569.234,354.673,565.431,354.673z"/>
	<path fill="none" stroke="#3B55A5" stroke-width="0.001" stroke-miterlimit="10" d="M785.437,354.673
		c-3.805,0-7.497-0.746-10.972-2.214c-3.357-1.422-6.371-3.454-8.961-6.042c-2.588-2.588-4.621-5.603-6.04-8.959
		c-1.47-3.475-2.215-7.166-2.215-10.972c0-3.804,0.745-7.496,2.215-10.971c1.419-3.356,3.452-6.371,6.04-8.959
		c2.59-2.59,5.604-4.621,8.961-6.042c3.475-1.468,7.167-2.214,10.972-2.214c3.804,0,7.496,0.746,10.97,2.214
		c3.357,1.42,6.371,3.452,8.96,6.042c2.589,2.588,4.622,5.603,6.042,8.959c1.469,3.475,2.214,7.167,2.214,10.971
		c0,3.806-0.745,7.497-2.214,10.972c-1.42,3.357-3.453,6.371-6.042,8.959c-2.589,2.588-5.603,4.62-8.96,6.042
		C792.933,353.928,789.24,354.673,785.437,354.673z"/>
	<path fill="none" stroke="#3B55A5" stroke-width="0.001" stroke-miterlimit="10" d="M1005.56,354.673
		c-3.805,0-7.497-0.746-10.972-2.214c-3.357-1.422-6.371-3.454-8.961-6.042c-2.588-2.588-4.621-5.603-6.04-8.959
		c-1.47-3.475-2.215-7.166-2.215-10.972c0-3.804,0.745-7.496,2.215-10.971c1.419-3.356,3.452-6.371,6.04-8.959
		c2.59-2.59,5.604-4.621,8.961-6.042c3.475-1.468,7.167-2.214,10.972-2.214c3.804,0,7.496,0.746,10.97,2.214
		c3.357,1.42,6.371,3.452,8.96,6.042c2.59,2.588,4.622,5.603,6.042,8.959c1.469,3.475,2.214,7.167,2.214,10.971
		c0,3.806-0.745,7.497-2.214,10.972c-1.42,3.357-3.452,6.371-6.042,8.959c-2.589,2.588-5.603,4.62-8.96,6.042
		C1013.056,353.928,1009.363,354.673,1005.56,354.673z"/>
	<path fill="none" stroke="#3B55A5" stroke-width="0.001" stroke-miterlimit="10" d="M124.937,354.673
		c-3.805,0-7.497-0.746-10.972-2.214c-3.356-1.422-6.371-3.454-8.959-6.042c-2.589-2.588-4.621-5.603-6.041-8.959
		c-1.469-3.475-2.214-7.166-2.214-10.972c0-3.804,0.745-7.496,2.214-10.971c1.42-3.356,3.452-6.371,6.041-8.959
		c2.589-2.59,5.603-4.621,8.959-6.042c3.475-1.468,7.167-2.214,10.972-2.214s7.496,0.746,10.97,2.214
		c3.358,1.42,6.373,3.452,8.96,6.042c2.589,2.588,4.622,5.603,6.042,8.959c1.469,3.475,2.214,7.167,2.214,10.971
		c0,3.806-0.746,7.497-2.214,10.972c-1.42,3.357-3.453,6.371-6.042,8.959c-2.587,2.588-5.602,4.62-8.96,6.042
		C132.433,353.928,128.742,354.673,124.937,354.673z"/>
	<path fill="none" stroke="#3B55A5" stroke-width="0.001" stroke-miterlimit="10" d="M1225.435,353.924
		c-3.805,0-7.497-0.746-10.972-2.214c-3.357-1.422-6.371-3.454-8.961-6.042c-2.588-2.588-4.621-5.603-6.04-8.959
		c-1.47-3.475-2.215-7.166-2.215-10.972c0-3.804,0.745-7.496,2.215-10.971c1.419-3.356,3.452-6.371,6.04-8.959
		c2.59-2.59,5.604-4.621,8.961-6.042c3.475-1.468,7.167-2.214,10.972-2.214c3.804,0,7.496,0.746,10.97,2.214
		c3.357,1.42,6.371,3.452,8.96,6.042c2.589,2.588,4.622,5.603,6.042,8.959c1.469,3.475,2.214,7.167,2.214,10.971
		c0,3.806-0.745,7.497-2.214,10.972c-1.42,3.357-3.453,6.371-6.042,8.959c-2.589,2.588-5.603,4.62-8.96,6.042
		C1232.931,353.179,1229.238,353.924,1225.435,353.924z"/>
	<path fill="none" stroke="#3B55A5" stroke-width="0.001" stroke-miterlimit="10" d="M675.103,163.197
		c-3.805,0-7.497-0.746-10.972-2.214c-3.357-1.422-6.371-3.455-8.961-6.042c-2.588-2.588-4.621-5.602-6.04-8.959
		c-1.47-3.475-2.215-7.166-2.215-10.972c0-3.804,0.745-7.496,2.215-10.971c1.419-3.356,3.452-6.371,6.04-8.959
		c2.59-2.59,5.604-4.621,8.961-6.042c3.475-1.469,7.167-2.215,10.972-2.215c3.804,0,7.496,0.746,10.97,2.215
		c3.357,1.42,6.371,3.452,8.96,6.042c2.589,2.588,4.622,5.603,6.042,8.959c1.469,3.475,2.214,7.167,2.214,10.971
		c0,3.806-0.745,7.497-2.214,10.972c-1.42,3.357-3.453,6.371-6.042,8.959s-5.603,4.621-8.96,6.042
		C682.599,162.452,678.906,163.197,675.103,163.197z"/>
	<path fill="none" stroke="#3B55A5" stroke-width="0.001" stroke-miterlimit="10" d="M895.108,163.197
		c-3.805,0-7.497-0.746-10.972-2.214c-3.357-1.422-6.371-3.455-8.961-6.042c-2.588-2.588-4.621-5.602-6.04-8.959
		c-1.47-3.475-2.215-7.166-2.215-10.972c0-3.804,0.745-7.496,2.215-10.971c1.419-3.356,3.452-6.371,6.04-8.959
		c2.59-2.59,5.604-4.621,8.961-6.042c3.475-1.469,7.167-2.215,10.972-2.215c3.804,0,7.496,0.746,10.97,2.215
		c3.357,1.42,6.371,3.452,8.96,6.042c2.589,2.588,4.622,5.603,6.042,8.959c1.469,3.475,2.214,7.167,2.214,10.971
		c0,3.806-0.745,7.497-2.214,10.972c-1.42,3.357-3.453,6.371-6.042,8.959s-5.603,4.621-8.96,6.042
		C902.604,162.452,898.912,163.197,895.108,163.197z"/>
	<path fill="none" stroke="#3B55A5" stroke-width="0.001" stroke-miterlimit="10" d="M1115.231,163.197
		c-3.805,0-7.497-0.746-10.972-2.214c-3.357-1.422-6.371-3.455-8.961-6.042c-2.588-2.588-4.621-5.602-6.04-8.959
		c-1.47-3.475-2.215-7.166-2.215-10.972c0-3.804,0.745-7.496,2.215-10.971c1.419-3.356,3.452-6.371,6.04-8.959
		c2.59-2.59,5.604-4.621,8.961-6.042c3.475-1.469,7.167-2.215,10.972-2.215c3.804,0,7.496,0.746,10.97,2.215
		c3.357,1.42,6.371,3.452,8.96,6.042c2.589,2.588,4.622,5.603,6.042,8.959c1.469,3.475,2.214,7.167,2.214,10.971
		c0,3.806-0.745,7.497-2.214,10.972c-1.42,3.357-3.453,6.371-6.042,8.959s-5.603,4.621-8.96,6.042
		C1122.728,162.452,1119.035,163.197,1115.231,163.197z"/>
	<path fill="none" stroke="#3B55A5" stroke-width="0.001" stroke-miterlimit="10" d="M1335.36,163.197
		c-3.805,0-7.497-0.746-10.972-2.214c-3.357-1.422-6.371-3.455-8.961-6.042c-2.588-2.588-4.621-5.602-6.04-8.959
		c-1.47-3.475-2.215-7.166-2.215-10.972c0-3.804,0.745-7.496,2.215-10.971c1.419-3.356,3.452-6.371,6.04-8.959
		c2.59-2.59,5.604-4.621,8.961-6.042c3.475-1.469,7.167-2.215,10.972-2.215c3.804,0,7.496,0.746,10.97,2.215
		c3.357,1.42,6.371,3.452,8.96,6.042c2.59,2.588,4.622,5.603,6.042,8.959c1.469,3.475,2.214,7.167,2.214,10.971
		c0,3.806-0.745,7.497-2.214,10.972c-1.42,3.357-3.452,6.371-6.042,8.959c-2.589,2.588-5.603,4.621-8.96,6.042
		C1342.856,162.452,1339.164,163.197,1335.36,163.197z"/>
</g>
</svg>
