<?xml version="1.0" encoding="utf-8"?>
<!-- Generator: Adobe Illustrator 15.0.0, SVG Export Plug-In . SVG Version: 6.00 Build 0)  -->
<!DOCTYPE svg PUBLIC "-//W3C//DTD SVG 1.1//EN" "http://www.w3.org/Graphics/SVG/1.1/DTD/svg11.dtd">
<svg version="1.1" xmlns="http://www.w3.org/2000/svg" xmlns:xlink="http://www.w3.org/1999/xlink" x="0px" y="0px"
	 width="536.491px" height="301.296px" viewBox="0 0 536.491 301.296" enable-background="new 0 0 536.491 301.296"
	 xml:space="preserve">
<g id="etch_light">
	<g>
		<path fill="#00BA58" d="M171.411,58.135c0.145-2.538,2.461-5.892,1.36-7.484C172.926,52.75,170.726,55.519,171.411,58.135z"/>
		<path fill="#00BA58" d="M187.513,114.608c0.298,0.291,0.836,0.291,1.134,0c1.169-3.09,1.799-6.225,2.949-8.845
			c-0.524-0.97,0.205-1.075,0.454-1.587c0.282-0.581-0.594-0.574-0.454-0.908c0.258-0.612,1.271-0.947,1.587-1.588
			c0.301-0.607,0.04-1.377,0.227-2.041c0.529-1.87,2.186-3.708,2.042-5.896c1.471-2.6,3.534-6.005,4.083-9.3
			c1.008-0.048,0.933-1.183,1.587-1.587c0.141-0.879,0.188-0.934-0.227-1.587c2.272-1.823,2.879-4.514,4.537-7.258
			c1.83-1.874,4.016-3.394,5.216-5.896c-0.232-0.222-0.459-0.449-0.68-0.681c-10.393,8.603-14.198,23.189-19.279,36.969
			c-1.686,4.574-4.291,8.758-5.442,13.381c-0.771,0.466-0.834,1.427-0.908,2.041C186.63,120.324,188.039,116.252,187.513,114.608z"
			/>
		<path fill="#00BA58" d="M183.204,73.33c1.481-0.182,1.045-2.28,2.042-2.949c0.075-0.443,0.374-1.841,0.68-2.721
			c-0.075,0-0.151,0-0.227,0C184.805,69.488,184.009,71.415,183.204,73.33z"/>
		<path fill="#00BA58" d="M209.512,75.145c-0.634,1.509-2.847,2.56-2.721,4.083C207.753,78.069,209.78,76.776,209.512,75.145z"/>
		<path fill="#00BA58" d="M231.966,80.361c-0.06-0.319-0.497-0.259-0.681-0.454c-1.843,2.542-4.098,5.881-5.443,8.165
			C228.317,85.936,229.827,82.834,231.966,80.361z"/>
		<path fill="#00BA58" d="M159.844,100.773c0.167-3.727,2.176-5.632,1.814-9.299c-3.052,7.607-7.293,14.026-10.433,21.546
			c7.678-7.366,15.776-14.312,21.773-23.36C168.521,93.124,165.33,99.075,159.844,100.773z"/>
		<path fill="#00BA58" d="M171.864,95.103c-0.026-0.277-0.068-0.537-0.454-0.453c-1.235,2.369-2.412,4.852-3.856,7.257
			c-1.423,2.374-3.486,4.491-4.536,6.577c-0.233,0.463-0.803,1.667-0.226,2.041C166.086,105.655,169.056,100.46,171.864,95.103z"/>
		<path fill="#00BA58" d="M159.39,113.701c-0.948,1.329-2.087,2.893-2.268,4.082c2.093-2.064,3.325-4.99,5.443-7.031
			C161.303,110.68,160.247,112.5,159.39,113.701z"/>
		<path fill="#00BA58" d="M184.565,140.463c1.207-0.835,2.149-2.471,3.402-3.855c1.373-1.517,2.894-1.774,2.949-3.629
			c-3.603,3.277-6.75,7.009-9.98,10.66c0.836-0.499,1.955-0.9,2.723-1.587C183.947,141.792,184.111,140.777,184.565,140.463z"/>
		<path fill="#00BA58" d="M208.152,161.329c-1.372,0.821-2.122,2.264-2.949,3.629c-0.212,3.527-0.364,7.88-1.134,11.339
			C207.807,173.685,206.425,165.952,208.152,161.329z"/>
		<path fill="#00BA58" d="M52.34,206.462c4.51-4.865,8.014-10.735,12.474-15.649c0.072-0.533,0.358-0.851,0.227-1.587
			c5.204-6.061,10.649-11.879,15.423-18.371c-5.89,5.784-12.643,12.981-18.372,20.866c-6.136,8.446-12.909,17.872-16.557,27.669
			c1.743-4.23,4.235-7.71,6.804-11.113C52.34,207.671,52.34,207.067,52.34,206.462z"/>
		<path fill="#00BA58" d="M207.471,172.215c-0.521,0.462-0.082,1.884-0.226,2.722C207.766,174.475,207.327,173.053,207.471,172.215z
			"/>
		<path fill="#00BA58" d="M207.245,178.566c0.142,0.689-0.291,1.953,0.226,2.268C207.329,180.145,207.762,178.88,207.245,178.566z"
			/>
		<path fill="#00BA58" d="M200.441,223.246c2.893-7.137,5.169-15.595,6.35-23.814c0.849-5.904-0.603-11.979-0.453-18.598
			c-5.158,8.828-12.691,15.281-19.278,22.68c4.91-2.424,7.161-7.505,12.474-9.526c3.878,3.479,2.531,9.781,2.042,15.422
			c-4.431,13.037-6.852,28.542-12.474,41.278c0.758-0.149,1.109-0.705,1.814-0.907c0.42-4.04,2.468-6.86,3.628-9.979
			C196.593,234.289,198.227,228.706,200.441,223.246z"/>
		<path fill="#00BA58" d="M207.471,186.277c0-0.908,0-1.814,0-2.722C207.096,183.947,207.096,185.886,207.471,186.277z"/>
		<path fill="#00BA58" d="M41.227,212.585c-1.615,0.427-2.366,1.717-3.855,2.269c2.43,1.501,5.074,2.788,7.484,4.309
			c5.235-12.229,12.769-22.159,20.186-32.206c-1.241,0.346-1.619,1.557-2.949,1.814C55.922,197.494,49.45,205.916,41.227,212.585z"
			/>
		<path fill="#00BA58" d="M207.925,191.72c0,1.134,0,2.268,0,3.402C208.302,194.508,208.302,192.333,207.925,191.72z"/>
		<path fill="#00BA58" d="M217.678,214.627c0-0.756,0-1.512,0-2.269C217.302,212.603,217.302,214.383,217.678,214.627z"/>
		<path fill="#00BA58" d="M120.154,216.668c0.097-0.432,0.488-0.57,0.453-1.134C119.933,215.264,119.632,216.49,120.154,216.668z"/>
		<path fill="#00BA58" d="M117.205,224.152c0.488-2.324,2.579-5.415,2.268-7.031C118.824,219.422,116.616,221.369,117.205,224.152z"
			/>
		<path fill="#00BA58" d="M115.164,228.688c-1.313,3.149-2.24,6.681-3.176,10.206c1.825-2.484,1.944-6.675,3.402-9.525
			C115.355,229.102,115.43,228.725,115.164,228.688z"/>
		<path fill="#00BA58" d="M183.658,240.708c-1.236,2.369-2.413,4.852-3.856,7.258c-1.424,2.373-3.486,4.491-4.537,6.577
			c-0.232,0.462-0.803,1.667-0.226,2.041c3.294-4.871,6.265-10.065,9.072-15.422C184.085,240.886,184.043,240.625,183.658,240.708z"
			/>
		<path fill="#00BA58" d="M138.071,255.904c2.744-1.944,4.605-5.978,5.216-9.299c-2.101,5.082-5.518,8.847-7.711,13.835
			C136.924,259.444,137.73,257.908,138.071,255.904z"/>
		<path fill="#00BA58" d="M170.957,261.121c0.597-0.553,0.765-0.128,1.361-0.68c0.169-1.752,2.248-2.699,2.268-3.856
			C172.913,257.635,171.986,259.429,170.957,261.121z"/>
		<path fill="#00BA58" d="M134.442,263.163c-0.903,2.122-2.286,3.763-3.176,5.896c0.151,0,0.303,0,0.454,0
			C132.612,267.337,134.918,264.754,134.442,263.163z"/>
		<path fill="#00BA58" d="M60.051,109.164c-1.002,0.813-1.91,1.721-2.722,2.722C58.332,111.074,59.239,110.167,60.051,109.164z"/>
		<path fill="#00BA58" d="M45.536,123.68c-1.153,0.963-2.211,2.021-3.175,3.175C43.514,125.891,44.572,124.834,45.536,123.68z"/>
		<path fill="#00BA58" d="M41,141.597c0.851-0.661,1.608-1.417,2.269-2.269C42.417,139.991,41.662,140.746,41,141.597z"/>
		<path fill="#00BA58" d="M68.215,117.556c1.154-0.963,2.212-2.022,3.176-3.175C70.239,115.345,69.18,116.403,68.215,117.556z"/>
		<path fill="#00BA58" d="M87.267,99.639c1.079-0.888,2.061-1.871,2.949-2.948C89.139,97.579,88.156,98.562,87.267,99.639z"/>
		<path fill="#00BA58" d="M89.081,102.36c3.523-4.919,7.909-10.016,10.433-15.195c-2.758,2.534-4.897,5.788-7.484,8.617
			c-5.078,5.556-10.884,10.537-16.329,15.423c-2.729,2.448-5.589,4.888-7.485,7.939c9.633-6.85,20.413-12.55,30.392-19.052
			C95.732,99.903,92.214,104.296,89.081,102.36z"/>
		<path fill="#00BA58" d="M102.009,116.648c0.851-0.66,1.607-1.417,2.268-2.267C103.426,115.042,102.67,115.798,102.009,116.648z"/>
		<path fill="#00BA58" d="M83.185,143.638c-5.067,1.208-8.035,5.725-13.381,5.897c3.018-5.525,8.539-8.547,11.567-14.063
			c-10.086,8.89-21.346,17.816-27.442,29.938c9.07-9.679,21.788-15.71,32.659-23.588c-0.274-0.047-0.139-0.251,0-0.454
			C85.377,142.051,83.645,142.208,83.185,143.638z"/>
		<path fill="#00BA58" d="M73.885,176.524c0.927-0.736,1.759-1.568,2.496-2.495C75.454,174.766,74.623,175.598,73.885,176.524z"/>
		<path fill="#00BA58" d="M76.608,173.576c0.851-0.661,1.607-1.417,2.268-2.267C78.024,171.969,77.269,172.725,76.608,173.576z"/>
		<path fill="#00BA58" d="M162.565,78.773c-1.561,5.185-2.813,10.777-3.856,15.876c-1.177,1.846-2.589,4.415-2.722,6.577
			c9.56-14.027,11.378-35.797,16.33-54.433c0.423-0.012,0.48,0.174,0.226,0.454c0.285-0.093,0.464-0.292,0.454-0.681
			c-5.151-4.071-11.542-6.904-17.237-10.433c4.689,10.596,7.002,23.87,7.711,34.474C162.276,72.995,162.241,76.389,162.565,78.773z"
			/>
		<path fill="#00BA58" d="M183.204,73.557c-0.664,1.377-1.284,2.799-1.814,4.309c0.515-0.165,0.678-0.682,0.907-1.133
			C182.408,75.728,184.082,74.059,183.204,73.557z"/>
		<path fill="#00BA58" d="M191.143,130.257c-0.981,0.915-1.753,2.261-2.722,3.402c-0.896,1.056-2.495,1.88-2.495,3.176
			c-3.254,2.656-7.486,6.264-10.66,9.752c-4.089,0.841-6.868,4.913-11.566,5.897c1.733-8.482,4.029-15.352,5.216-23.588
			c-0.514-0.234-0.191-0.782-0.453,0c-3.714,11.055-8.203,26.66-13.381,37.195c13.763-11.864,27.465-23.791,39.01-37.875
			C193.073,128.862,192.625,130.078,191.143,130.257z"/>
		<path fill="#00BA58" d="M194.998,128.67c-0.852,0.661-1.608,1.417-2.268,2.268C193.581,130.276,194.336,129.521,194.998,128.67z"
			/>
		<path fill="#00BA58" d="M162.338,160.648c-1.002,0.813-1.91,1.719-2.722,2.722C160.619,162.558,161.526,161.651,162.338,160.648z"
			/>
		<path fill="#00BA58" d="M130.813,259.307c1.079-0.737,1.256-2.374,2.269-3.176c0.326-1.943,2.041-4.459,2.949-6.577
			C133.6,252.114,132.571,256.074,130.813,259.307z"/>
		<path fill="#00BA58" d="M160.07,214.4c0.852-0.661,1.607-1.417,2.269-2.268C161.487,212.793,160.731,213.549,160.07,214.4z"/>
		<path fill="#00BA58" d="M179.349,197.163c1.229-1.039,2.362-2.173,3.402-3.401C181.522,194.8,180.387,195.935,179.349,197.163z"/>
		<path fill="#00BA58" d="M226.75,135.473c1.607-1.417,3.118-2.929,4.536-4.536C229.679,132.355,228.167,133.868,226.75,135.473z"/>
		<path fill="#00BA58" d="M232.646,130.711c-1.606,1.417-3.118,2.929-4.536,4.536C229.718,133.83,231.229,132.317,232.646,130.711z"
			/>
		<path fill="#00BA58" d="M227.884,193.081c-0.193-0.042-0.214,0.088-0.227,0.226c0.076,0,0.151,0,0.227,0
			c0.012-0.134,0.036-0.257,0.213-0.226c0.004-0.074,0.01-0.153,0.014-0.227C227.918,192.813,227.896,192.943,227.884,193.081z"/>
		<path fill="#00BA58" d="M228.111,193.081c-0.006,0.02-0.012,0.04-0.018,0.059v0C228.099,193.121,228.104,193.101,228.111,193.081z
			"/>
		<path fill="#00BA58" d="M228.093,193.141c-0.438,1.38-0.859,2.819-1.253,4.305c-0.009,0.034-0.018,0.07-0.026,0.104
			c-0.187,0.708-0.369,1.426-0.543,2.153c-0.031,0.127-0.058,0.259-0.087,0.387c-0.15,0.639-0.298,1.281-0.436,1.933
			c-0.036,0.168-0.066,0.34-0.101,0.509c-0.127,0.616-0.254,1.234-0.369,1.859c-0.039,0.212-0.071,0.427-0.109,0.64
			c-0.104,0.587-0.208,1.174-0.301,1.767c-0.03,0.196-0.054,0.395-0.083,0.592c-0.091,0.612-0.182,1.225-0.26,1.841
			c-0.102,0.813-0.192,1.63-0.269,2.447c-0.669,7.155-1.517,14.114-2.495,20.412c1.349-1.07,2.99-1.849,4.537-2.722
			c2.956-6.029,9.625-8.626,14.062-13.381c0.554-0.594,0.787-1.47,1.36-2.041c0.762-0.759,1.898-1.112,2.722-1.814
			c2.286-1.952,4.03-4.6,6.351-6.124c0.184-0.043,0.226-0.228,0.453-0.227c-0.087-0.323-0.272-0.382,0-0.68
			c-5.641,4.943-11.799,10.579-18.824,13.381C226.069,214.001,227.582,201.604,228.093,193.141z"/>
		<path fill="#00BA58" d="M237.636,122.319c-1.5,1.524-2.945,3.104-3.629,5.444c3.583-2.91,5.747-7.15,8.393-10.887
			c2.683-3.791,5.66-7.563,7.484-12.02c0.741,0.336,0.655-1.275,1.134-0.454c0.075,0,0.151,0,0.227,0c0-4.385,0-8.769,0-13.155
			c-1.976-0.669-3.27-2.021-5.216-2.721C247.421,100.982,242.56,113.345,237.636,122.319z"/>
		<path fill="#00BA58" d="M211.554,73.33c1.046-0.09,1.975-2.256,2.949-3.175c0.336,0.118,0.571,0.336,0.907,0.454
			c-0.177-0.654-1.097-0.565-1.587-0.907C213.604,71.448,211.731,71.542,211.554,73.33z"/>
		<path fill="#00BA58" d="M45.31,122.773c0.927-0.736,1.758-1.569,2.495-2.495C46.878,121.015,46.046,121.846,45.31,122.773z"/>
		<path fill="#00BA58" d="M52.567,115.516c1.455-1.267,2.816-2.627,4.083-4.083C55.194,112.699,53.833,114.06,52.567,115.516z"/>
		<path fill="#00BA58" d="M76.608,79.907c-2.72,2.798-3.25,7.788-6.124,10.433c-2.624,5.616-6.236,10.246-8.846,15.875
			c5.884-5.812,10.372-13.476,15.649-20.412c5.323-6.994,10.337-14.745,11.34-24.267c-3.715,2.407-7.745,4.501-11.567,6.803
			C78.707,72.075,75.951,77.205,76.608,79.907z"/>
		<path fill="#00BA58" d="M172.544,92.608c2.515-2.172,3.705-5.669,6.351-7.711c-0.062,2.258-2.264,4.619-1.361,6.35
			c1.37-4.104,2.909-8.885,4.309-12.247c-3.815,3.896-6.744,8.677-9.752,13.381C172.376,92.332,172.554,92.028,172.544,92.608z"/>
		<path fill="#00BA58" d="M165.514,100.093c-1.229,1.039-2.362,2.173-3.402,3.401C163.34,102.455,164.475,101.321,165.514,100.093z"
			/>
		<path fill="#00BA58" d="M160.978,104.628c-2.892,2.704-5.689,5.5-8.392,8.392C155.478,110.318,158.275,107.521,160.978,104.628z"
			/>
		<path fill="#00BA58" d="M90.215,160.875c-0.926,0.736-1.758,1.568-2.494,2.495C88.647,162.634,89.479,161.802,90.215,160.875z"/>
		<path fill="#00BA58" d="M127.638,165.185c-0.269,0.261-0.802,0.256-1.361,0.227c0.086,0.767-0.394,0.967-0.68,1.36
			c-2.354,0.974-3.72,2.933-6.125,3.855c0.317-6.184,4.375-8.627,6.125-13.38c0.213-0.466,1.167-0.193,1.134-0.908
			c1.395-2.484,3.892-4.995,4.309-7.71c2.944-2.424,3.995-6.741,5.217-10.887c-8.979,16.5-21.082,29.874-27.669,48.763
			c9.337-9.638,19.044-18.907,27.216-29.711C133.031,159.54,130.516,162.545,127.638,165.185z"/>
		<path fill="#00BA58" d="M132.401,162.917c0.21-0.205,0.708-0.006,0.907-0.228c0.707-0.791,1.474-1.782,2.268-2.721
			c1.611-1.905,4.383-4.559,4.99-6.804c1.302-0.362,1.32-2.005,2.722-2.269c1.068-2.409,2.821-4.134,4.536-5.897
			c0.587-1.757,1.911-2.776,3.176-3.854c0.923-2.706,3.337-3.92,4.083-6.804c0.472-0.133,0.732-0.477,1.134-0.681
			c0.057-0.925,0.845-1.119,0.68-2.268c4.345-1.703,4.91-7.187,8.618-9.525c0.347-1.165,1.104-1.92,1.587-2.948
			c-0.267-0.036-0.645,0.038-0.68-0.228c0.737,0.132,1.055-0.154,1.587-0.227c0.201-1.386,1.615-1.561,1.587-3.174
			c1.765-0.582,2.299-3.596,3.63-3.855c0,0.075,0,0.151,0,0.227c1.07-2.635,1.832-5.577,2.722-8.392
			c-14.513,22.759-30.544,43.998-47.855,63.958C130.13,166.598,130.984,164.297,132.401,162.917z"/>
		<path fill="#00BA58" d="M118.339,177.658c-1.229,1.04-2.363,2.173-3.402,3.402C116.166,180.021,117.299,178.887,118.339,177.658z"
			/>
		<path fill="#00BA58" d="M98.154,248.647c-0.165-0.286,0.139-0.833,0-1.134c-0.808-1.753-1.969-3.899-2.268-5.897
			c-0.468-3.129-0.069-6.551,0.227-8.392c0.07-0.434-0.48-0.892-0.453-1.134c0.038-0.343,0.599-0.799,0.68-1.133
			c0.141-0.582,0.172-1.674,0.227-2.269c0.268-2.904,1.23-7.054,1.36-9.299c-3.457,8.185-6.076,17.208-10.66,24.268
			c4.388,2.568,8.843,5.068,13.155,7.711C100.016,250.118,98.708,249.608,98.154,248.647z"/>
		<path fill="#00BA58" d="M110.854,242.297c-1.333,4.336-2.797,8.543-4.763,12.247c2.688-2.179,2.55-6.016,4.537-8.618
			C109.987,245.046,111.732,243.414,110.854,242.297z"/>
		<path fill="#00BA58" d="M207.018,123.68c-0.851,0.66-1.607,1.417-2.268,2.268C205.601,125.287,206.357,124.531,207.018,123.68z"/>
		<path fill="#00BA58" d="M177.534,150.896c-1.002,0.812-1.91,1.721-2.722,2.722C175.814,152.805,176.722,151.898,177.534,150.896z"
			/>
		<path fill="#00BA58" d="M172.771,155.432c-1.078,0.889-2.061,1.872-2.948,2.948C170.9,157.493,171.883,156.51,172.771,155.432z"/>
		<path fill="#00BA58" d="M162.792,166.999c1.001-0.813,1.908-1.72,2.721-2.722C164.512,165.089,163.604,165.997,162.792,166.999z"
			/>
		<path fill="#00BA58" d="M174.132,155.432c1.001-0.813,1.908-1.719,2.721-2.722C175.852,153.523,174.944,154.43,174.132,155.432z"
			/>
		<path fill="#00BA58" d="M177.988,151.803c0.851-0.661,1.607-1.417,2.268-2.268C179.404,150.196,178.648,150.952,177.988,151.803z"
			/>
		<path fill="#00BA58" d="M198.627,133.206c1.304-1.115,2.514-2.325,3.628-3.628C200.951,130.692,199.741,131.902,198.627,133.206z"
			/>
		<path fill="#00BA58" d="M187.74,132.071c-0.926,0.736-1.758,1.569-2.494,2.495C186.172,133.83,187.003,132.998,187.74,132.071z"/>
		<path fill="#00BA58" d="M75.927,159.288c-1.153,0.964-2.211,2.022-3.175,3.175C73.905,161.499,74.964,160.441,75.927,159.288z"/>
		<path fill="#00BA58" d="M60.051,168.586c0.851-0.661,1.606-1.417,2.268-2.268C61.468,166.979,60.712,167.735,60.051,168.586z"/>
		<path fill="#00BA58" d="M138.979,171.988c1.228-1.039,2.362-2.173,3.401-3.402C141.151,169.626,140.017,170.759,138.979,171.988z"
			/>
		<path fill="#00BA58" d="M99.288,158.154c-0.927,0.737-1.758,1.568-2.496,2.495C97.719,159.912,98.551,159.08,99.288,158.154z"/>
		<path fill="#00BA58" d="M186.379,191.04c-1.305,1.115-2.514,2.325-3.629,3.629C184.055,193.554,185.265,192.344,186.379,191.04z"
			/>
		<path fill="#00BA58" d="M181.843,195.803c-1.38,1.19-2.665,2.476-3.855,3.856C179.367,198.468,180.652,197.182,181.843,195.803z"
			/>
		<path fill="#00BA58" d="M161.658,230.957c3.73-5.569,7.859-10.739,12.248-15.65C168.645,219.195,163.656,224.563,161.658,230.957z
			"/>
		<path fill="#00BA58" d="M202.708,181.287c-3.16,5.761-8.126,9.715-11.566,15.196c-4.732,2.526-6.807,7.708-11.567,10.206
			c-0.444,2.104-3.552,2.576-3.402,4.537c-3.023,1.738-5.138,4.387-7.031,7.257c13.372-11.954,27.454-23.2,37.196-38.783
			c0-1.588,0-3.175,0-4.763c-1.71,1.466-2.738,3.613-4.083,5.443C202.654,180.435,202.772,180.771,202.708,181.287z"/>
		<path fill="#00BA58" d="M163.699,218.028c-0.926,0.738-1.758,1.569-2.495,2.496C162.13,219.787,162.962,218.956,163.699,218.028z"
			/>
		<path fill="#00BA58" d="M160.297,220.297c1.91-1.72,3.724-3.534,5.444-5.443C163.831,216.573,162.017,218.388,160.297,220.297z"/>
		<path fill="#00BA58" d="M421.239,57.183c0.145-2.538,2.461-5.892,1.36-7.484C422.754,51.799,420.554,54.567,421.239,57.183z"/>
		<path fill="#00BA58" d="M437.341,113.657c0.298,0.291,0.836,0.291,1.134,0c1.169-3.09,1.799-6.225,2.948-8.846
			c-0.524-0.97,0.205-1.075,0.454-1.587c0.282-0.581-0.594-0.574-0.454-0.907c0.258-0.613,1.271-0.947,1.587-1.588
			c0.301-0.607,0.04-1.378,0.227-2.041c0.529-1.87,2.186-3.708,2.042-5.896c1.471-2.6,3.534-6.005,4.083-9.3
			c1.009-0.049,0.933-1.184,1.587-1.587c0.141-0.879,0.188-0.934-0.227-1.587c2.272-1.823,2.879-4.514,4.537-7.258
			c1.83-1.873,4.016-3.394,5.216-5.896c-0.231-0.221-0.459-0.449-0.68-0.681c-10.393,8.603-14.198,23.189-19.278,36.969
			c-1.687,4.574-4.292,8.758-5.443,13.381c-0.771,0.466-0.833,1.427-0.908,2.041C436.458,119.372,437.867,115.3,437.341,113.657z"/>
		<path fill="#00BA58" d="M433.032,72.378c1.481-0.182,1.045-2.28,2.042-2.949c0.075-0.443,0.374-1.841,0.68-2.721
			c-0.075,0-0.151,0-0.227,0C434.633,68.537,433.837,70.463,433.032,72.378z"/>
		<path fill="#00BA58" d="M459.34,74.193c-0.633,1.509-2.847,2.56-2.721,4.083C457.581,77.117,459.608,75.825,459.34,74.193z"/>
		<path fill="#00BA58" d="M481.794,79.41c-0.06-0.32-0.497-0.26-0.681-0.455c-1.843,2.542-4.098,5.881-5.443,8.166
			C478.146,84.984,479.656,81.882,481.794,79.41z"/>
		<path fill="#00BA58" d="M409.672,99.821c0.167-3.727,2.176-5.632,1.814-9.299c-3.053,7.607-7.293,14.026-10.433,21.546
			c7.678-7.367,15.776-14.313,21.773-23.361C418.35,92.172,415.159,98.124,409.672,99.821z"/>
		<path fill="#00BA58" d="M421.692,94.151c-0.026-0.277-0.068-0.537-0.453-0.453c-1.236,2.369-2.413,4.852-3.856,7.257
			c-1.424,2.374-3.486,4.491-4.537,6.577c-0.232,0.463-0.803,1.667-0.226,2.041C415.914,104.703,418.884,99.509,421.692,94.151z"/>
		<path fill="#00BA58" d="M409.218,112.75c-0.948,1.329-2.087,2.893-2.268,4.082c2.093-2.064,3.325-4.99,5.443-7.031
			C411.131,109.728,410.075,111.548,409.218,112.75z"/>
		<path fill="#00BA58" d="M434.394,139.511c1.206-0.835,2.149-2.471,3.401-3.855c1.373-1.517,2.895-1.774,2.949-3.629
			c-3.603,3.277-6.75,7.009-9.979,10.66c0.835-0.5,1.954-0.901,2.722-1.587C433.775,140.841,433.939,139.826,434.394,139.511z"/>
		<path fill="#00BA58" d="M457.98,160.377c-1.372,0.821-2.122,2.264-2.949,3.629c-0.212,3.527-0.364,7.88-1.134,11.34
			C457.635,172.733,456.253,165,457.98,160.377z"/>
		<path fill="#00BA58" d="M302.168,205.511c4.51-4.865,8.014-10.735,12.474-15.649c0.072-0.533,0.358-0.851,0.227-1.587
			c5.204-6.061,10.65-11.879,15.423-18.371c-5.89,5.784-12.643,12.981-18.371,20.866c-6.136,8.446-12.909,17.872-16.557,27.669
			c1.743-4.23,4.235-7.71,6.804-11.113C302.168,206.72,302.168,206.115,302.168,205.511z"/>
		<path fill="#00BA58" d="M457.299,171.264c-0.52,0.462-0.082,1.883-0.226,2.721C457.594,173.523,457.155,172.102,457.299,171.264z"
			/>
		<path fill="#00BA58" d="M457.073,177.614c0.142,0.689-0.291,1.953,0.226,2.268C457.158,179.193,457.59,177.929,457.073,177.614z"
			/>
		<path fill="#00BA58" d="M450.269,222.294c2.893-7.137,5.169-15.595,6.35-23.814c0.849-5.904-0.603-11.979-0.453-18.598
			c-5.158,8.828-12.691,15.281-19.278,22.68c4.911-2.423,7.161-7.505,12.474-9.526c3.879,3.479,2.531,9.781,2.042,15.422
			c-4.431,13.037-6.852,28.543-12.474,41.278c0.758-0.149,1.109-0.705,1.814-0.907c0.42-4.04,2.469-6.86,3.628-9.979
			C446.422,233.337,448.055,227.754,450.269,222.294z"/>
		<path fill="#00BA58" d="M457.299,185.326c0-0.908,0-1.814,0-2.722C456.924,182.996,456.924,184.934,457.299,185.326z"/>
		<path fill="#00BA58" d="M291.055,211.634c-1.615,0.426-2.366,1.716-3.855,2.268c2.43,1.501,5.073,2.788,7.484,4.309
			c5.235-12.229,12.769-22.159,20.185-32.206c-1.241,0.346-1.619,1.557-2.948,1.814C305.75,196.542,299.279,204.964,291.055,211.634
			z"/>
		<path fill="#00BA58" d="M457.753,190.769c0,1.134,0,2.268,0,3.403C458.13,193.557,458.13,191.382,457.753,190.769z"/>
		<path fill="#00BA58" d="M467.506,213.676c0-0.756,0-1.512,0-2.269C467.13,211.651,467.13,213.431,467.506,213.676z"/>
		<path fill="#00BA58" d="M369.982,215.717c0.097-0.432,0.488-0.57,0.453-1.134C369.761,214.313,369.46,215.539,369.982,215.717z"/>
		<path fill="#00BA58" d="M367.033,223.201c0.488-2.325,2.579-5.415,2.268-7.031C368.652,218.47,366.444,220.417,367.033,223.201z"
			/>
		<path fill="#00BA58" d="M364.992,227.737c-1.313,3.149-2.24,6.682-3.175,10.206c1.825-2.484,1.943-6.675,3.402-9.525
			C365.183,228.15,365.258,227.774,364.992,227.737z"/>
		<path fill="#00BA58" d="M433.486,239.757c-1.236,2.369-2.413,4.852-3.856,7.258c-1.424,2.373-3.486,4.491-4.537,6.578
			c-0.232,0.462-0.803,1.667-0.226,2.041c3.294-4.871,6.264-10.065,9.071-15.422C433.914,239.935,433.872,239.674,433.486,239.757z"
			/>
		<path fill="#00BA58" d="M387.899,254.953c2.744-1.943,4.605-5.978,5.216-9.299c-2.101,5.082-5.518,8.847-7.711,13.836
			C386.752,258.493,387.559,256.957,387.899,254.953z"/>
		<path fill="#00BA58" d="M420.785,260.169c0.598-0.553,0.765-0.128,1.361-0.68c0.169-1.752,2.248-2.7,2.268-3.856
			C422.741,256.683,421.814,258.477,420.785,260.169z"/>
		<path fill="#00BA58" d="M384.271,262.211c-0.903,2.122-2.286,3.763-3.175,5.896c0.151,0,0.302,0,0.453,0
			C382.44,266.386,384.746,263.803,384.271,262.211z"/>
		<path fill="#00BA58" d="M309.879,108.213c-1.002,0.813-1.91,1.72-2.722,2.722C308.16,110.123,309.067,109.215,309.879,108.213z"/>
		<path fill="#00BA58" d="M295.364,122.729c-1.153,0.963-2.211,2.021-3.175,3.175C293.342,124.939,294.4,123.882,295.364,122.729z"
			/>
		<path fill="#00BA58" d="M290.828,140.646c0.851-0.661,1.608-1.417,2.269-2.269C292.246,139.039,291.49,139.795,290.828,140.646z"
			/>
		<path fill="#00BA58" d="M318.044,116.604c1.153-0.963,2.212-2.022,3.175-3.175C320.067,114.393,319.008,115.452,318.044,116.604z"
			/>
		<path fill="#00BA58" d="M337.095,98.688c1.078-0.888,2.061-1.871,2.948-2.949C338.967,96.627,337.984,97.61,337.095,98.688z"/>
		<path fill="#00BA58" d="M338.91,101.409c3.522-4.919,7.909-10.016,10.433-15.195c-2.758,2.534-4.897,5.789-7.484,8.618
			c-5.078,5.555-10.884,10.536-16.329,15.423c-2.729,2.448-5.589,4.887-7.485,7.938c9.633-6.85,20.412-12.55,30.392-19.052
			C345.561,98.951,342.042,103.344,338.91,101.409z"/>
		<path fill="#00BA58" d="M351.837,115.697c0.851-0.66,1.607-1.417,2.268-2.267C353.254,114.091,352.499,114.847,351.837,115.697z"
			/>
		<path fill="#00BA58" d="M333.014,142.687c-5.068,1.208-8.036,5.725-13.381,5.897c3.018-5.525,8.538-8.547,11.567-14.063
			c-10.087,8.89-21.347,17.816-27.443,29.938c9.07-9.679,21.788-15.71,32.659-23.587c-0.274-0.048-0.139-0.252,0-0.454
			C335.205,141.1,333.473,141.256,333.014,142.687z"/>
		<path fill="#00BA58" d="M323.714,175.573c0.927-0.736,1.759-1.568,2.496-2.494C325.283,173.814,324.452,174.646,323.714,175.573z"
			/>
		<path fill="#00BA58" d="M326.436,172.624c0.851-0.661,1.607-1.417,2.268-2.267C327.853,171.018,327.097,171.773,326.436,172.624z"
			/>
		<path fill="#00BA58" d="M422.826,45.616c-5.151-4.071-11.542-6.903-17.237-10.433c4.689,10.596,7.002,23.87,7.711,34.474
			c-1.196,2.387-1.231,5.78-0.907,8.165c-1.561,5.185-2.813,10.777-3.856,15.876c-1.177,1.846-2.588,4.415-2.721,6.578
			c9.56-14.027,11.377-35.797,16.33-54.433c0.423-0.012,0.48,0.174,0.226,0.454C422.657,46.204,422.836,46.004,422.826,45.616z"/>
		<path fill="#00BA58" d="M433.032,72.605c-0.664,1.377-1.284,2.799-1.814,4.309c0.515-0.165,0.678-0.682,0.907-1.133
			C432.236,74.776,433.91,73.107,433.032,72.605z"/>
		<path fill="#00BA58" d="M440.971,129.306c-0.981,0.915-1.753,2.261-2.722,3.401c-0.896,1.056-2.496,1.88-2.496,3.176
			c-3.254,2.656-7.486,6.264-10.66,9.752c-4.09,0.841-6.869,4.913-11.566,5.897c1.733-8.482,4.029-15.352,5.216-23.588
			c-0.514-0.234-0.191-0.781-0.453,0c-3.714,11.055-8.203,26.66-13.381,37.195c13.763-11.864,27.465-23.791,39.01-37.875
			C442.901,127.911,442.454,129.126,440.971,129.306z"/>
		<path fill="#00BA58" d="M444.826,127.718c-0.852,0.661-1.608,1.417-2.268,2.268C443.409,129.325,444.164,128.569,444.826,127.718z
			"/>
		<path fill="#00BA58" d="M412.167,159.697c-1.002,0.812-1.909,1.719-2.722,2.721C410.447,161.606,411.354,160.699,412.167,159.697z
			"/>
		<path fill="#00BA58" d="M380.641,258.355c1.079-0.737,1.256-2.374,2.269-3.176c0.325-1.943,2.041-4.459,2.948-6.577
			C383.428,251.163,382.399,255.123,380.641,258.355z"/>
		<path fill="#00BA58" d="M409.898,213.449c0.852-0.661,1.607-1.417,2.268-2.268C411.315,211.842,410.56,212.598,409.898,213.449z"
			/>
		<path fill="#00BA58" d="M429.177,196.211c1.229-1.039,2.362-2.173,3.402-3.401C431.35,193.849,430.215,194.983,429.177,196.211z"
			/>
		<path fill="#00BA58" d="M476.578,134.521c1.606-1.417,3.118-2.929,4.536-4.536C479.507,131.403,477.996,132.916,476.578,134.521z"
			/>
		<path fill="#00BA58" d="M482.475,129.76c-1.607,1.417-3.118,2.929-4.536,4.536C479.546,132.878,481.057,131.366,482.475,129.76z"
			/>
		<path fill="#00BA58" d="M477.925,192.129c0.006,0.001,0.008-0.001,0.014,0C477.933,192.128,477.93,192.13,477.925,192.129
			L477.925,192.129z"/>
		<path fill="#00BA58" d="M477.939,192.129c-0.006,0.019-0.012,0.04-0.018,0.059v0C477.927,192.169,477.933,192.149,477.939,192.129
			z"/>
		<path fill="#00BA58" d="M501.072,204.15c-5.641,4.943-11.798,10.579-18.824,13.381c-6.351-4.481-4.837-16.879-4.327-25.342
			c-0.219,0.69-0.434,1.395-0.644,2.113c-0.001,0.004-0.002,0.009-0.004,0.014c-0.208,0.713-0.41,1.44-0.606,2.178
			c-0.009,0.035-0.018,0.071-0.027,0.105c-0.187,0.708-0.369,1.425-0.542,2.152c-0.031,0.128-0.058,0.26-0.087,0.388
			c-0.15,0.64-0.298,1.281-0.436,1.933c-0.035,0.166-0.065,0.334-0.1,0.5c-0.128,0.62-0.254,1.24-0.371,1.868
			c-0.037,0.201-0.068,0.406-0.104,0.608c-0.106,0.598-0.212,1.196-0.307,1.799c-0.03,0.196-0.054,0.394-0.083,0.591
			c-0.091,0.612-0.182,1.225-0.26,1.841c-0.102,0.814-0.192,1.63-0.269,2.447c-0.669,7.155-1.517,14.114-2.495,20.412
			c1.349-1.07,2.99-1.848,4.537-2.722c2.956-6.029,9.625-8.626,14.062-13.381c0.554-0.594,0.787-1.47,1.36-2.041
			c0.763-0.759,1.898-1.112,2.722-1.814c2.286-1.952,4.03-4.6,6.351-6.124c0.184-0.043,0.226-0.228,0.453-0.227
			C500.984,204.507,500.8,204.448,501.072,204.15z"/>
		<path fill="#00BA58" d="M477.939,191.902c-0.193-0.042-0.214,0.089-0.227,0.227c-0.193-0.042-0.214,0.088-0.227,0.227
			c0.076,0,0.151,0,0.227,0c0.012-0.133,0.037-0.254,0.208-0.227c0.002,0,0.003,0,0.005,0
			C477.929,192.055,477.935,191.976,477.939,191.902z"/>
		<path fill="#00BA58" d="M501.072,90.295c-1.975-0.669-3.27-2.021-5.215-2.721c1.394,12.457-3.469,24.819-8.392,33.793
			c-1.5,1.524-2.945,3.104-3.629,5.444c3.583-2.91,5.747-7.15,8.393-10.887c2.683-3.791,5.66-7.564,7.484-12.021
			c0.74,0.336,0.655-1.275,1.133-0.454c0.076,0,0.151,0,0.227,0C501.072,99.066,501.072,94.681,501.072,90.295z"/>
		<path fill="#00BA58" d="M461.382,72.378c1.046-0.09,1.975-2.256,2.948-3.175c0.336,0.118,0.571,0.336,0.907,0.454
			c-0.177-0.654-1.097-0.565-1.587-0.907C463.432,70.497,461.56,70.591,461.382,72.378z"/>
		<path fill="#00BA58" d="M295.138,121.821c0.927-0.736,1.758-1.569,2.495-2.495C296.706,120.063,295.875,120.895,295.138,121.821z"
			/>
		<path fill="#00BA58" d="M302.396,114.564c1.455-1.267,2.816-2.627,4.083-4.083C305.022,111.747,303.661,113.108,302.396,114.564z"
			/>
		<path fill="#00BA58" d="M326.436,78.956c-2.72,2.798-3.25,7.788-6.124,10.433c-2.624,5.617-6.236,10.246-8.846,15.875
			c5.884-5.812,10.372-13.476,15.649-20.412c5.323-6.994,10.337-14.745,11.34-24.267c-3.715,2.408-7.745,4.501-11.567,6.803
			C328.535,71.123,325.779,76.253,326.436,78.956z"/>
		<path fill="#00BA58" d="M422.372,91.657c2.515-2.172,3.706-5.669,6.352-7.711c-0.062,2.258-2.265,4.619-1.361,6.35
			c1.37-4.104,2.91-8.885,4.309-12.247c-3.815,3.896-6.744,8.677-9.752,13.381C422.205,91.38,422.382,91.076,422.372,91.657z"/>
		<path fill="#00BA58" d="M415.342,99.141c-1.229,1.039-2.363,2.173-3.403,3.402C413.169,101.503,414.303,100.37,415.342,99.141z"/>
		<path fill="#00BA58" d="M410.806,103.677c-2.892,2.704-5.689,5.5-8.392,8.392C405.306,109.366,408.104,106.569,410.806,103.677z"
			/>
		<path fill="#00BA58" d="M340.043,159.924c-0.926,0.736-1.758,1.568-2.494,2.494C338.476,161.682,339.307,160.851,340.043,159.924z
			"/>
		<path fill="#00BA58" d="M377.466,164.233c-0.269,0.261-0.802,0.256-1.361,0.227c0.086,0.767-0.393,0.967-0.68,1.36
			c-2.354,0.974-3.72,2.933-6.125,3.855c0.317-6.184,4.375-8.628,6.125-13.38c0.214-0.466,1.168-0.193,1.134-0.908
			c1.395-2.484,3.892-4.995,4.309-7.71c2.944-2.424,3.995-6.741,5.216-10.887c-8.978,16.5-21.082,29.874-27.669,48.762
			c9.337-9.638,19.044-18.907,27.216-29.711C382.859,158.588,380.344,161.593,377.466,164.233z"/>
		<path fill="#00BA58" d="M382.229,161.965c0.21-0.205,0.708-0.006,0.907-0.227c0.707-0.791,1.474-1.783,2.268-2.722
			c1.611-1.905,4.383-4.559,4.99-6.804c1.301-0.362,1.32-2.006,2.721-2.269c1.068-2.409,2.821-4.134,4.536-5.897
			c0.587-1.757,1.912-2.775,3.176-3.854c0.923-2.706,3.337-3.92,4.083-6.804c0.472-0.133,0.733-0.477,1.134-0.681
			c0.057-0.925,0.845-1.119,0.68-2.268c4.345-1.703,4.91-7.187,8.619-9.525c0.347-1.165,1.104-1.92,1.587-2.948
			c-0.267-0.036-0.644,0.038-0.68-0.227c0.737,0.131,1.055-0.154,1.587-0.228c0.201-1.386,1.615-1.561,1.587-3.174
			c1.765-0.582,2.299-3.596,3.63-3.855c0,0.075,0,0.151,0,0.227c1.069-2.635,1.832-5.577,2.721-8.392
			c-14.513,22.758-30.544,43.998-47.855,63.957C379.958,165.646,380.813,163.346,382.229,161.965z"/>
		<path fill="#00BA58" d="M368.167,176.707c-1.229,1.04-2.363,2.173-3.402,3.402C365.994,179.069,367.128,177.935,368.167,176.707z"
			/>
		<path fill="#00BA58" d="M347.982,247.695c-0.165-0.286,0.139-0.833,0-1.134c-0.807-1.753-1.969-3.899-2.268-5.897
			c-0.468-3.128-0.069-6.551,0.227-8.392c0.07-0.434-0.48-0.892-0.453-1.134c0.038-0.343,0.599-0.799,0.68-1.133
			c0.141-0.581,0.172-1.674,0.228-2.269c0.268-2.904,1.23-7.054,1.36-9.299c-3.457,8.185-6.076,17.208-10.66,24.268
			c4.388,2.568,8.843,5.068,13.155,7.711C349.844,249.167,348.537,248.656,347.982,247.695z"/>
		<path fill="#00BA58" d="M360.683,241.345c-1.333,4.336-2.797,8.543-4.763,12.248c2.688-2.179,2.55-6.016,4.537-8.619
			C359.815,244.094,361.561,242.462,360.683,241.345z"/>
		<path fill="#00BA58" d="M456.846,122.729c-0.851,0.661-1.606,1.417-2.268,2.268C455.429,124.335,456.186,123.579,456.846,122.729z
			"/>
		<path fill="#00BA58" d="M427.362,149.944c-1.002,0.813-1.909,1.721-2.722,2.722C425.643,151.854,426.55,150.946,427.362,149.944z"
			/>
		<path fill="#00BA58" d="M422.599,154.48c-1.078,0.889-2.061,1.872-2.948,2.948C420.729,156.541,421.711,155.558,422.599,154.48z"
			/>
		<path fill="#00BA58" d="M412.621,166.047c1.001-0.812,1.908-1.72,2.722-2.722C414.34,164.138,413.433,165.045,412.621,166.047z"/>
		<path fill="#00BA58" d="M423.96,154.48c1.001-0.812,1.908-1.719,2.721-2.722C425.68,152.572,424.772,153.479,423.96,154.48z"/>
		<path fill="#00BA58" d="M427.816,150.852c0.851-0.661,1.607-1.417,2.268-2.268C429.232,149.245,428.477,150,427.816,150.852z"/>
		<path fill="#00BA58" d="M448.455,132.254c1.304-1.115,2.514-2.325,3.628-3.628C450.78,129.74,449.57,130.95,448.455,132.254z"/>
		<path fill="#00BA58" d="M437.568,131.12c-0.926,0.736-1.758,1.569-2.494,2.494C436,132.878,436.832,132.046,437.568,131.12z"/>
		<path fill="#00BA58" d="M325.755,158.336c-1.153,0.964-2.211,2.022-3.175,3.175C323.733,160.547,324.792,159.489,325.755,158.336z
			"/>
		<path fill="#00BA58" d="M309.879,167.635c0.851-0.662,1.606-1.417,2.269-2.269C311.297,166.028,310.54,166.784,309.879,167.635z"
			/>
		<path fill="#00BA58" d="M388.807,171.037c1.228-1.039,2.362-2.173,3.401-3.401C390.98,168.674,389.845,169.808,388.807,171.037z"
			/>
		<path fill="#00BA58" d="M349.116,157.202c-0.926,0.737-1.758,1.568-2.495,2.495C347.547,158.96,348.379,158.128,349.116,157.202z"
			/>
		<path fill="#00BA58" d="M436.208,190.088c-1.305,1.115-2.514,2.325-3.628,3.629C433.883,192.603,435.093,191.393,436.208,190.088z
			"/>
		<path fill="#00BA58" d="M431.671,194.851c-1.38,1.19-2.665,2.476-3.855,3.856C429.196,197.517,430.48,196.23,431.671,194.851z"/>
		<path fill="#00BA58" d="M411.486,230.005c3.73-5.569,7.859-10.739,12.247-15.65C418.473,218.244,413.484,223.612,411.486,230.005z
			"/>
		<path fill="#00BA58" d="M452.537,180.335c-3.16,5.761-8.126,9.715-11.566,15.196c-4.731,2.527-6.807,7.708-11.567,10.206
			c-0.443,2.104-3.552,2.576-3.402,4.537c-3.023,1.739-5.138,4.387-7.031,7.257c13.373-11.954,27.454-23.2,37.196-38.783
			c0-1.588,0-3.175,0-4.763c-1.71,1.466-2.738,3.613-4.083,5.443C452.482,179.483,452.6,179.819,452.537,180.335z"/>
		<path fill="#00BA58" d="M413.528,217.077c-0.927,0.738-1.758,1.569-2.496,2.496C411.959,218.835,412.791,218.004,413.528,217.077z
			"/>
		<path fill="#00BA58" d="M410.125,219.346c1.91-1.72,3.724-3.535,5.444-5.443C413.659,215.622,411.846,217.436,410.125,219.346z"/>
	</g>
</g>
<g id="etch_deep">
	<g>
		<path d="M187.513,125.268c4.679-6.223,6.56-16.035,9.3-24.495c1.733-5.353,4.349-10.073,6.804-14.288
			c0.227,0,0.27-0.184,0.453-0.228c-0.025-0.275-0.067-0.537-0.453-0.453c-7.504,9.2-8.916,23.83-14.288,34.927
			c-2.322,4.795-6.389,7.253-9.073,11.34C182.358,129.849,185.495,127.954,187.513,125.268z"/>
		<path d="M141.7,109.392c-3.018,5.573-7.743,9.593-12.247,14.062c-5.775,5.729-13.398,9.171-19.051,15.875
			c13.023-10.185,28.914-19.469,35.154-37.194c0.238-0.013,0.178-0.291-0.227-0.227C143.578,103.958,142.873,107.225,141.7,109.392z
			"/>
		<path d="M204.75,125.948c-8.429,8.959-18.031,16.745-27.216,24.947c-0.813,1.002-1.72,1.91-2.722,2.722
			c-0.818,0.467-1.224,1.346-2.042,1.814c-0.888,1.078-1.871,2.061-2.948,2.948c-14.957,16.115-29.739,32.405-37.422,55.793
			c2.073-1.19,2.366-4.027,3.175-6.123c6.39-16.56,16.949-28.884,27.217-41.051c0.812-1.002,1.719-1.91,2.721-2.722
			c2.816-3.004,5.495-6.146,8.619-8.845c0.812-1.001,1.719-1.909,2.721-2.722c0.527-0.153,0.608-0.753,1.134-0.907
			c0.661-0.851,1.417-1.607,2.268-2.268c6.227-5.34,12.442-10.691,18.372-16.33c1.114-1.304,2.324-2.514,3.628-3.628
			c5.283-4.708,10.136-10.468,14.062-16.33c1.344-2.007,2.81-4.079,3.402-6.351c-4.283,5.543-7.664,11.993-12.701,16.783
			C206.357,124.531,205.601,125.287,204.75,125.948z"/>
		<path d="M194.317,119.597c-2.003,4.48-3.958,8.892-6.577,12.474c-0.736,0.927-1.568,1.758-2.494,2.495
			c-2.023,1.53-4.069,3.038-5.67,4.99c2.754-2.246,5.772-3.593,8.165-6.123c6.44-6.813,7.624-18.498,13.154-26.31
			C197.1,109.877,196.275,115.223,194.317,119.597z"/>
		<path d="M120.38,122.093c-5.5,8.236-12.189,14.913-20.412,20.412c-8.086,5.408-16.314,10.966-24.041,16.783
			c-0.963,1.153-2.022,2.211-3.175,3.175c-0.342,0.716-1.227,0.891-1.134,2.041C86.133,149.534,110.356,142.309,120.38,122.093z"/>
		<path d="M103.597,132.526c-2.903,4.943-7.34,7.717-11.793,11.566c-9.438,8.156-22.462,13.844-30.845,22.227
			c-1.854,1.854-4.402,4.734-4.083,7.257c0.647-2.075,2.037-3.405,3.175-4.989c0.661-0.852,1.417-1.607,2.268-2.268
			c9.337-7.969,21.062-14.216,30.618-22C97.249,140.807,102.136,137.26,103.597,132.526z"/>
		<path d="M135.122,177.658c0.785-2.39,2.472-3.879,3.856-5.67c1.039-1.229,2.173-2.362,3.401-3.402
			c2.488-2.451,4.948-5.12,6.805-8.392c1.808-3.187,3.864-6.555,4.536-10.206c-3.059,8.685-9.023,14.745-14.515,20.866
			C137.503,172.751,134.734,174.755,135.122,177.658z"/>
		<path d="M137.844,163.597c-2.757,3.988-5.505,7.896-8.619,11.567c-6.094,7.187-13.794,14.005-15.875,24.268
			c7.872-19.193,25.759-29.58,32.433-49.216C143.296,154.951,140.741,159.405,137.844,163.597z"/>
		<path d="M109.494,154.071c-0.025-0.277-0.068-0.537-0.454-0.454c-3.691,8.114-6.854,15.305-12.248,21.546
			c-5.211,6.031-11.676,11.551-13.381,20.185c2.813-7.415,8.015-12.522,12.475-17.917
			C101.667,170.437,105.722,163.393,109.494,154.071z"/>
		<path d="M100.421,157.02c-0.339,0.417-0.946,0.565-1.133,1.134c-0.737,0.926-1.569,1.758-2.496,2.495
			c-15.188,18.076-22.262,44.266-35.154,64.638c2.909-1.484,3.733-4.953,5.217-7.711c10.219-19.015,17.883-41.023,31.071-56.7
			C98.841,159.788,100.202,158.555,100.421,157.02z"/>
		<path d="M63.227,75.372c-8.971,5.223-18.123,10.165-26.763,15.875c0,41.279,0,82.555,0,123.833
			c35.825,20.953,71.756,41.796,107.957,62.371c35.929-20.542,71.575-41.374,107.503-61.917c0-41.58,0-83.16,0-124.74
			c-36.032-20.59-71.558-41.693-107.73-62.145C117.193,44.241,89.956,59.81,63.227,75.372z M37.144,91.701
			c12.939-8.153,26.664-15.522,39.917-23.361c3.822-2.302,7.852-4.396,11.567-6.803c-1.003,9.522-6.017,17.273-11.34,24.267
			c-5.277,6.936-9.766,14.6-15.649,20.412c-1.422,1.98-3.213,3.591-4.989,5.217c-1.267,1.455-2.628,2.816-4.083,4.083
			c-1.678,1.497-3.12,3.23-4.763,4.763c-0.737,0.926-1.568,1.758-2.495,2.495c-2.998,2.219-4.726,5.707-8.166,7.484
			C37.144,117.405,37.144,104.553,37.144,91.701z M45.536,219.39c3.648-9.798,10.421-19.223,16.557-27.669
			c5.729-7.885,12.482-15.082,18.372-20.866c2.14-2.773,4.75-5.077,7.257-7.484c0.736-0.927,1.568-1.758,2.494-2.495
			c19.272-17.47,42.841-30.643,62.371-47.855c2.703-2.892,5.5-5.688,8.392-8.392c0.474-0.281,0.852-0.66,1.133-1.134
			c1.04-1.228,2.173-2.362,3.402-3.401c2.243-2.52,4.555-4.971,6.577-7.711c3.008-4.704,5.937-9.485,9.752-13.381
			c0.635-0.431,1.194-2.124,1.815-1.814c-3.119,8.274-4.584,16.344-7.711,23.814c-2.969,7.09-7.989,13.177-12.248,19.278
			c-6.487,9.294-12.999,18.225-20.185,26.989c-2.606,3.179-4.794,6.733-7.711,9.525c-8.172,10.804-17.879,20.073-27.216,29.711
			c6.588-18.889,18.691-32.263,27.669-48.763c-0.029-0.407,0.277-0.478,0.226-0.907c-1.181-0.005-1.703,2.499-2.947,3.176
			c-7.687,13.869-17.561,27.354-24.948,42.638c-1.831,3.787-2.74,8.626-4.083,12.927c-1.339,4.289-2.669,8.58-4.083,12.701
			c-2.897,8.449-6.358,16.736-9.071,24.721c-1.34,3.943-2.668,6.836-4.763,10.206C72.846,235.324,59.042,227.506,45.536,219.39z
			 M106.091,254.544c-1.919-1.029-3.655-2.241-5.67-3.175c-4.312-2.643-8.767-5.143-13.155-7.711
			c4.584-7.059,7.203-16.083,10.66-24.268c2.36-7.129,4.975-15.168,7.257-22.453c0.946-3.018,1.588-6.783,2.948-8.845
			c1.932-2.929,5.1-4.396,6.805-7.031c1.039-1.229,2.173-2.362,3.402-3.402c3.08-3.649,6.467-6.988,9.752-10.433
			c17.312-19.959,33.342-41.199,47.855-63.958c-0.89,2.815-1.652,5.757-2.722,8.392c-5.965,19.133-11.758,38.44-19.505,55.792
			c-8.085,8.435-14.449,19.548-21.093,29.937c-3.668,5.738-6.661,11.001-9.979,17.464c-1.181,2.3-2.745,4.516-3.629,6.803
			c-1.456,3.765-2.526,8.6-3.629,12.701c-1.1,4.092-3.004,7.807-4.762,11.567C108.641,248.528,108.779,252.365,106.091,254.544z
			 M189.101,250.688c-5.489,3.357-11.161,6.529-16.783,9.753c-0.597,0.552-0.764,0.127-1.361,0.68
			c-8.673,5.313-17.688,10.285-26.536,15.423c-4.368-2.36-8.83-4.628-12.701-7.485c-0.151,0-0.302,0-0.454,0
			c-1.264-0.625-2.401-1.379-3.628-2.041c7.728-12.024,14.231-25.056,21.999-36.968c3.918-6.008,7.782-11.865,12.701-16.784
			c4.854-4.854,10.194-9.081,15.649-13.607c1.19-1.38,2.475-2.666,3.855-3.856c0.154-0.527,0.754-0.607,0.908-1.134
			c1.115-1.304,2.324-2.514,3.629-3.629c6.18-8.788,13.198-16.739,18.824-26.082c0.827-1.365,1.577-2.808,2.949-3.629
			c-1.728,4.624-0.345,12.356-4.083,14.968c-9.427,16.202-24.283,26.975-38.328,38.557c-1.721,1.909-3.535,3.723-5.444,5.443
			c-5.593,6.805-10.677,14.12-14.742,22.453c2.374-1.346,2.892-4.923,4.309-7.257c0.764-1.257,2.09-2.34,2.949-3.628
			c2.547-3.82,5.152-8.128,8.392-11.34c0.737-0.927,1.569-1.758,2.495-2.496c13.161-12.241,28.606-22.196,38.556-37.648
			c1.345-1.831,2.373-3.978,4.083-5.443c0,1.587,0,3.174,0,4.763c-9.742,15.583-23.824,26.83-37.196,38.783
			c-3.498,3.91-7.115,7.702-8.391,13.834c0.561-0.196,0.833-0.68,0.907-1.36c1.998-6.394,6.987-11.762,12.248-15.65
			c4.303-4.012,8.792-7.84,13.154-11.793c6.587-7.399,14.121-13.852,19.278-22.68c-0.149,6.619,1.302,12.694,0.453,18.598
			c-1.181,8.219-3.458,16.677-6.35,23.814c-2.214,5.46-3.848,11.043-5.897,16.556c-1.16,3.119-3.208,5.94-3.628,9.979
			C190.21,249.983,189.859,250.539,189.101,250.688z M251.244,215.08c-2.658,1.273-5.147,2.715-7.484,4.31
			c1.301-2.632,5.095-4.732,7.258-7.257C251.539,212.669,251.098,214.167,251.244,215.08z M172.998,46.567c0-0.075,0-0.151,0-0.226
			c11.721,6.121,23.818,13.83,35.834,20.412c-5.233,5.983-10.151,13.6-13.608,22.227c-1.662,4.148-2.965,8.926-4.536,13.38
			c-1.542,4.375-4.263,8.414-5.442,12.474c-0.517,1.777-0.546,3.288-1.361,4.763c0.184,0.043,0.226,0.228,0.454,0.227
			c0.074-0.614,0.137-1.575,0.908-2.041c1.151-4.624,3.756-8.807,5.442-13.381c5.081-13.779,8.886-28.366,19.279-36.969
			c0.221,0.232,0.448,0.459,0.68,0.681c1.377,0.209,1.986,1.188,3.175,1.587c0.49,0.341,1.41,0.252,1.587,0.907
			c5.225,3.168,10.678,6.107,15.876,9.299c0.184,0.195,0.621,0.135,0.681,0.454c4.808,2.6,9.521,5.297,14.062,8.165
			c1.946,0.7,3.24,2.052,5.216,2.721c0,4.386,0,8.77,0,13.155c0,33.568,0,67.132,0,100.7c-0.272,0.298-0.087,0.357,0,0.68
			c0,1.814,0,3.628,0,5.444c-2.04,1.419-3.913,3.005-5.67,4.762c-1.66,1.66-3.156,3.846-4.989,5.217
			c-3.728,2.787-8.426,4.037-12.248,7.031c4.126-6.006,12.22-10.006,16.784-16.33c2.63-1.224,3.776-3.935,5.67-5.897
			c-2.321,1.524-4.065,4.172-6.351,6.124c-0.824,0.703-1.959,1.056-2.722,1.814c-0.573,0.57-0.807,1.447-1.36,2.041
			c-4.436,4.755-11.106,7.352-14.062,13.381c-1.547,0.873-3.188,1.652-4.537,2.722c0.978-6.298,1.826-13.257,2.495-20.412
			c0.077-0.817,0.167-1.634,0.269-2.447c0.078-0.616,0.168-1.229,0.26-1.841c0.029-0.197,0.053-0.396,0.083-0.592
			c0.093-0.593,0.197-1.18,0.301-1.767c0.038-0.213,0.07-0.428,0.109-0.64c0.115-0.625,0.242-1.242,0.369-1.859
			c0.035-0.169,0.065-0.341,0.101-0.509c0.138-0.651,0.286-1.293,0.436-1.933c0.03-0.128,0.057-0.26,0.087-0.387
			c0.174-0.728,0.356-1.445,0.543-2.153c0.009-0.034,0.017-0.07,0.026-0.104c0.394-1.486,0.815-2.926,1.253-4.306
			c0.006-0.02,0.012-0.04,0.018-0.059c-0.006-0.001-0.008,0.001-0.014,0c-0.177-0.031-0.201,0.092-0.213,0.226
			c-0.076,0-0.151,0-0.227,0c-0.685,2.038-1.229,4.215-2.268,5.897c-1.388,11.286-2.825,23.31-4.762,33.34
			c-2.068,1.259-4.145,2.509-6.351,3.628c2.217-6.602,2.32-14.001,3.403-21.545c-0.376-0.245-0.376-2.024,0-2.269
			c-0.56-13.772-0.548-30.131,3.628-40.597c-1.791,0.718-1.685,2.95-2.041,4.536c-1.699,7.577-2.443,17.933-2.721,28.124
			c-0.104,3.793,0.472,7.668,0.227,11.34c-0.517,7.709-2.271,14.695-3.402,21.092c-2.693,1.239-5.586,3.485-7.938,4.31
			c2.646-7.623,4.579-16.171,5.896-25.628c1.349-9.669,0.792-19.89,1.361-30.165c0.197-3.563,1.125-7.144,1.587-10.66
			c1.839-13.972,5.714-25.826,14.289-32.659c-1.287,0.042-2.351,1.367-3.175,2.268c-6.298,6.88-10.118,17.372-11.793,29.938
			c-0.467,3.5-1.313,7.039-1.587,10.433c-0.841,10.385,0.156,21.099-1.361,31.071c-1.511,9.93-4.027,18.403-6.35,26.309
			c-4.244,2.258-8.166,4.838-12.475,7.031c6.061-17.3,13.456-33.265,16.103-53.979c0-1.134,0-2.269,0-3.402
			c0.026-1.992-0.727-3.205-0.454-5.443c-0.375-0.392-0.375-2.331,0-2.722c0-0.907,0-1.814,0-2.721
			c-0.517-0.315-0.084-1.579-0.226-2.268c0-1.21,0-2.419,0-3.629c0.144-0.838-0.294-2.259,0.226-2.722
			c-0.073-4.556,1.226-11.279,2.723-15.649c3.358-9.811,11.014-14.853,17.917-21.319c1.417-1.607,2.929-3.119,4.536-4.536
			c7.082-7.811,12.904-16.883,18.371-26.31c-0.479-0.821-0.393,0.79-1.134,0.454c-1.824,4.457-4.801,8.229-7.484,12.02
			c-2.646,3.737-4.809,7.977-8.393,10.887c-0.55,1.415-1.983,1.948-2.721,3.175c-1.418,1.606-2.929,3.119-4.536,4.536
			c-6.737,6.328-13.94,10.804-17.463,20.64c-0.362,1.011-0.175,2.043-0.681,3.175c-0.533,1.196-1.918,2.22-2.949,3.629
			c-2.679,3.668-5.267,8.183-7.938,11.793c-1.839,2.487-4.166,4.805-5.897,7.257c-3.102,4.395-5.033,8.55-9.072,11.794
			c-1.04,1.228-2.173,2.362-3.402,3.401c-5.094,5.566-11.841,9.479-17.01,14.97c-0.661,0.851-1.417,1.607-2.269,2.268
			c-10.363,12.543-18.512,27.301-26.989,41.731c-1.012,0.802-1.19,2.439-2.269,3.176c-0.866,2.837-2.266,5.142-3.855,7.257
			c-6.591-3.614-12.838-7.574-19.504-11.113c2.155-4.048,3.729-8.307,5.67-12.474c3.99-8.565,5.314-18.16,9.526-26.536
			c5.895-11.725,13.497-22.705,20.412-33.566c4.646-7.296,9.482-14.431,16.557-19.504c0.812-1.002,1.719-1.909,2.722-2.722
			c6.267-5.603,12.984-10.754,18.597-17.01c3.23-3.651,6.377-7.383,9.98-10.66c0.628-0.657,1.239-1.331,1.814-2.041
			c0.66-0.851,1.417-1.607,2.268-2.268c6.195-7.333,12.403-14.648,18.143-22.454c2.83-3.846,4.912-8.351,7.711-12.473
			c2.809-4.137,5.678-8.388,6.577-13.608c-1.755,1.996-2.377,4.519-3.401,6.804c-1.043,2.327-2.411,4.186-3.856,6.35
			c-2.761,4.135-5.026,8.494-7.938,12.475c-5.698,7.789-11.577,15.52-18.144,22.453c-11.545,14.084-25.247,26.011-39.01,37.875
			c5.178-10.535,9.667-26.141,13.381-37.195c0.262-0.782-0.061-0.234,0.453,0c4.567-16.118,9.594-33.54,14.969-49.216
			c1.913-5.578,2.524-11.578,4.536-16.783c0.694-1.796,2.426-3.658,2.268-5.897c-2.245,2.896-3.229,7.054-4.763,10.66
			c-0.306,0.88-0.604,2.278-0.68,2.721c-0.234,2.867-1.234,4.965-2.949,6.352c-0.229,0.451-0.392,0.968-0.907,1.133
			c-2.88,3.848-5.862,7.596-8.392,11.794c-5.997,9.048-14.095,15.994-21.773,23.36c3.14-7.52,7.38-13.938,10.433-21.546
			c5.145-13.227,7.811-28.932,10.886-44.226c0.254-0.28,0.197-0.466-0.226-0.454c-4.952,18.636-6.77,40.405-16.33,54.433
			c-1.797,4.779-4.453,8.702-6.351,13.381c-23.15,19.337-50.843,34.131-70.762,56.7c-0.661,0.851-1.417,1.606-2.268,2.267
			c-0.043,0.184-0.228,0.226-0.227,0.454c-0.737,0.927-1.569,1.758-2.496,2.495c-2.824,3.601-6.201,6.65-8.844,10.433
			c-7.417,10.047-14.95,19.977-20.186,32.206c-2.411-1.521-5.055-2.808-7.484-4.309c-0.076,0-0.151,0-0.227,0
			c0.881-5.95-1.168-13.25,0-19.505c0.421-2.25,2.651-5.006,3.855-7.257c1.362-2.544,2.656-5.061,3.856-7.257
			c2.756-5.046,5.165-10.1,8.392-13.835c6.725-7.783,16.718-13.386,25.855-19.278c9.055-5.84,17.495-12.918,25.629-19.279
			c8.375-6.55,17.167-12.892,24.948-19.958c12.037-10.932,21.606-23.041,28.35-39.237c-2.836,3.242-4.284,7.548-6.351,11.567
			c-1.947,3.788-4.686,7.299-7.257,10.66c-10.343,13.519-24.002,23.01-37.195,34.02c-6.646,5.546-13.408,11.154-20.639,15.876
			c-0.139,0.202-0.274,0.406,0,0.454c-10.871,7.878-23.589,13.909-32.659,23.588c6.096-12.123,17.356-21.049,27.442-29.938
			c17.944-14.336,34.806-29.756,48.535-48.308c-2.769,0.864-4.321,4.231-6.351,6.577c-6.017,6.953-11.886,14.862-19.278,20.639
			c-0.661,0.851-1.417,1.607-2.268,2.267c-12.543,11.206-25.42,21.583-37.648,33.113c-6.055,5.708-10.318,13.477-14.516,20.865
			c-4.253,7.488-9.252,14.721-12.474,22.907c-0.415-11.291-0.227-22.045-0.227-33.793c0-3.715-0.671-8.066,0-11.34
			c0.465-2.267,3.976-5.563,6.125-7.711c6.77-6.77,15.103-12.828,22.226-18.597c10.425-8.445,22.541-14.08,33.34-21.093
			c5.453-3.541,10.935-7.413,16.103-11.34c5.334-4.054,10.477-7.887,14.516-12.701c8.257-9.841,14.596-20.785,19.958-34.02
			c-3.917,6.084-7.178,14.006-10.887,20.866c-2.018,3.733-5.347,7.371-8.165,10.886c-8.416,10.502-20.441,17.261-31.298,25.402
			c-0.151,0-0.303,0-0.454,0c-9.979,6.501-20.758,12.202-30.392,19.052c1.896-3.051,4.756-5.491,7.485-7.939
			c5.445-4.886,11.251-9.867,16.329-15.423c2.587-2.829,4.726-6.083,7.484-8.617c9.837-13.523,19.521-27.201,26.99-43.093
			c-2.51,1.102-2.429,3.868-3.402,5.897c-0.995,2.073-2.639,4.036-3.855,6.123c-8.394,14.396-17.95,28.757-29.031,40.597
			c-0.888,1.078-1.87,2.061-2.949,2.948c-4.945,5.26-10.685,9.728-15.875,14.743c-0.963,1.153-2.022,2.211-3.176,3.175
			c-7.672,7.901-16.753,14.393-24.947,21.772c-0.661,0.852-1.418,1.608-2.269,2.269c-1.236,1.712-2.698,3.198-3.628,5.217
			c0.639-3.934-1.587-10.542-0.227-14.743c0.607-1.874,4.536-3.196,5.217-5.216c0.964-1.154,2.022-2.212,3.175-3.175
			c3.914-3.949,7.681-8.045,11.794-11.794c0.812-1.001,1.72-1.909,2.722-2.722c6.31-6.859,11.506-14.464,17.01-21.999
			c5.466-7.483,10.862-15.443,12.702-26.31c18.326-10.25,36.218-20.936,54.431-31.298c4.05,1.999,7.732,4.364,11.567,6.577
			C161.456,39.664,167.847,42.496,172.998,46.567z"/>
		<path d="M453.444,84.853c-7.504,9.2-8.916,23.83-14.288,34.928c-2.322,4.794-6.389,7.252-9.073,11.34
			c2.103-2.223,5.239-4.118,7.257-6.804c4.679-6.223,6.56-16.035,9.3-24.495c1.733-5.353,4.349-10.073,6.804-14.288
			c0.228,0,0.27-0.184,0.454-0.227C453.872,85.03,453.831,84.769,453.444,84.853z"/>
		<path d="M391.528,108.44c-3.018,5.573-7.743,9.593-12.247,14.062c-5.775,5.729-13.398,9.171-19.051,15.875
			c13.023-10.185,28.915-19.469,35.154-37.194c0.238-0.013,0.179-0.291-0.227-0.227C393.406,103.006,392.701,106.273,391.528,108.44
			z"/>
		<path d="M454.578,124.997c-8.429,8.959-18.031,16.745-27.216,24.947c-0.812,1.002-1.72,1.91-2.722,2.722
			c-0.817,0.467-1.224,1.346-2.042,1.814c-0.888,1.078-1.871,2.061-2.948,2.948c-14.957,16.115-29.739,32.406-37.422,55.793
			c2.073-1.19,2.366-4.027,3.175-6.123c6.39-16.56,16.949-28.884,27.217-41.051c0.812-1.002,1.719-1.91,2.722-2.722
			c2.816-3.004,5.494-6.146,8.618-8.845c0.812-1.001,1.719-1.908,2.721-2.722c0.527-0.153,0.608-0.753,1.134-0.907
			c0.661-0.851,1.417-1.607,2.268-2.268c6.227-5.34,12.443-10.691,18.372-16.33c1.115-1.304,2.325-2.514,3.628-3.628
			c5.283-4.708,10.136-10.468,14.062-16.33c1.344-2.007,2.81-4.079,3.402-6.351c-4.283,5.543-7.664,11.993-12.701,16.783
			C456.186,123.579,455.429,124.335,454.578,124.997z"/>
		<path d="M444.146,118.646c-2.004,4.48-3.958,8.892-6.578,12.475c-0.736,0.926-1.568,1.758-2.494,2.494
			c-2.023,1.53-4.069,3.038-5.67,4.99c2.755-2.246,5.772-3.593,8.165-6.123c6.44-6.813,7.624-18.498,13.154-26.309
			C446.928,108.925,446.104,114.271,444.146,118.646z"/>
		<path d="M370.208,121.141c-5.499,8.237-12.189,14.913-20.412,20.412c-8.086,5.408-16.314,10.966-24.041,16.783
			c-0.963,1.153-2.022,2.211-3.175,3.175c-0.342,0.716-1.226,0.891-1.134,2.042C335.961,148.583,360.184,141.357,370.208,121.141z"
			/>
		<path d="M353.425,131.574c-2.903,4.943-7.34,7.718-11.793,11.566c-9.438,8.156-22.462,13.844-30.845,22.227
			c-1.854,1.854-4.402,4.734-4.083,7.257c0.647-2.075,2.037-3.405,3.175-4.989c0.661-0.852,1.417-1.607,2.269-2.269
			c9.336-7.969,21.062-14.216,30.618-22C347.077,139.856,351.964,136.309,353.425,131.574z"/>
		<path d="M384.951,176.707c0.784-2.39,2.472-3.879,3.856-5.67c1.039-1.229,2.173-2.362,3.401-3.401
			c2.488-2.451,4.948-5.12,6.805-8.393c1.808-3.187,3.864-6.555,4.536-10.206c-3.059,8.685-9.023,14.745-14.515,20.866
			C387.332,171.799,384.562,173.804,384.951,176.707z"/>
		<path d="M387.672,162.646c-2.757,3.988-5.505,7.896-8.618,11.567c-6.095,7.187-13.795,14.005-15.876,24.268
			c7.872-19.193,25.759-29.58,32.433-49.216C393.125,154,390.57,158.454,387.672,162.646z"/>
		<path d="M359.322,153.12c-0.025-0.277-0.068-0.537-0.454-0.454c-3.691,8.114-6.854,15.305-12.247,21.546
			c-5.212,6.031-11.676,11.552-13.381,20.185c2.813-7.415,8.015-12.523,12.474-17.917
			C351.496,169.485,355.55,162.441,359.322,153.12z"/>
		<path d="M350.25,156.068c-0.339,0.416-0.946,0.565-1.134,1.134c-0.737,0.926-1.569,1.758-2.495,2.495
			c-15.188,18.075-22.262,44.266-35.154,64.638c2.909-1.483,3.733-4.953,5.217-7.711c10.22-19.015,17.883-41.022,31.071-56.7
			C348.669,158.837,350.03,157.603,350.25,156.068z"/>
		<path d="M394.022,27.699c-27,15.591-54.238,31.159-80.967,46.721c-8.971,5.223-18.123,10.165-26.763,15.875
			c0,41.279,0,82.555,0,123.833c35.825,20.953,71.756,41.796,107.958,62.371c35.928-20.543,71.574-41.374,107.503-61.917
			c0-41.58,0-83.16,0-124.74C465.721,69.253,430.194,48.15,394.022,27.699z M286.972,90.75
			c12.939-8.154,26.664-15.522,39.917-23.361c3.822-2.302,7.852-4.396,11.567-6.803c-1.002,9.522-6.017,17.273-11.34,24.267
			c-5.277,6.936-9.766,14.6-15.649,20.412c-1.422,1.98-3.213,3.591-4.989,5.217c-1.267,1.455-2.628,2.816-4.083,4.083
			c-1.678,1.497-3.121,3.23-4.763,4.763c-0.737,0.926-1.568,1.758-2.495,2.495c-2.998,2.219-4.726,5.707-8.166,7.484
			C286.972,116.454,286.972,103.602,286.972,90.75z M295.364,218.438c3.648-9.797,10.421-19.223,16.557-27.669
			c5.728-7.885,12.481-15.082,18.371-20.866c2.14-2.773,4.75-5.077,7.257-7.484c0.736-0.926,1.568-1.758,2.494-2.494
			c19.272-17.471,42.841-30.644,62.371-47.855c2.703-2.892,5.5-5.688,8.392-8.392c0.474-0.281,0.852-0.66,1.133-1.134
			c1.04-1.229,2.173-2.363,3.403-3.402c2.242-2.52,4.554-4.971,6.577-7.711c3.008-4.704,5.937-9.485,9.752-13.381
			c0.635-0.431,1.194-2.124,1.815-1.814c-3.119,8.274-4.584,16.344-7.711,23.814c-2.969,7.09-7.989,13.177-12.247,19.278
			c-6.488,9.294-13,18.225-20.186,26.989c-2.606,3.179-4.793,6.733-7.711,9.525c-8.172,10.804-17.879,20.073-27.216,29.711
			c6.588-18.889,18.691-32.263,27.669-48.762c-0.029-0.407,0.277-0.478,0.226-0.907c-1.181-0.004-1.703,2.499-2.947,3.176
			c-7.687,13.869-17.561,27.355-24.948,42.638c-1.831,3.787-2.74,8.626-4.083,12.927c-1.339,4.289-2.669,8.58-4.083,12.701
			c-2.897,8.449-6.358,16.736-9.072,24.721c-1.34,3.943-2.668,6.836-4.763,10.206C322.674,234.372,308.87,226.555,295.364,218.438z
			 M355.919,253.593c-1.919-1.029-3.655-2.242-5.669-3.176c-4.312-2.643-8.767-5.143-13.155-7.711
			c4.584-7.059,7.203-16.083,10.66-24.268c2.36-7.129,4.975-15.168,7.257-22.453c0.946-3.018,1.588-6.783,2.949-8.845
			c1.932-2.929,5.1-4.396,6.804-7.031c1.039-1.229,2.173-2.362,3.402-3.402c3.08-3.648,6.468-6.988,9.752-10.433
			c17.312-19.959,33.343-41.199,47.855-63.957c-0.89,2.814-1.652,5.757-2.721,8.392c-5.966,19.133-11.758,38.44-19.506,55.792
			c-8.085,8.435-14.449,19.548-21.093,29.938c-3.668,5.737-6.661,11.001-9.979,17.464c-1.181,2.3-2.745,4.516-3.629,6.803
			c-1.456,3.766-2.526,8.6-3.629,12.701c-1.1,4.092-3.004,7.807-4.762,11.567C358.469,247.577,358.608,251.414,355.919,253.593z
			 M438.929,249.737c-5.489,3.356-11.161,6.529-16.783,9.753c-0.597,0.551-0.764,0.127-1.361,0.68
			c-8.672,5.313-17.688,10.285-26.535,15.423c-4.368-2.36-8.83-4.628-12.701-7.485c-0.151,0-0.302,0-0.453,0
			c-1.265-0.625-2.402-1.378-3.629-2.041c7.728-12.024,14.231-25.056,21.999-36.968c3.918-6.008,7.782-11.865,12.701-16.784
			c4.854-4.854,10.194-9.081,15.649-13.607c1.19-1.38,2.475-2.666,3.855-3.856c0.154-0.527,0.754-0.607,0.908-1.134
			c1.115-1.304,2.324-2.514,3.628-3.629c6.18-8.788,13.198-16.739,18.824-26.082c0.827-1.365,1.577-2.808,2.949-3.629
			c-1.728,4.624-0.345,12.356-4.083,14.969c-9.427,16.202-24.283,26.974-38.329,38.557c-1.721,1.909-3.535,3.723-5.444,5.443
			c-5.593,6.805-10.676,14.12-14.742,22.453c2.374-1.346,2.892-4.923,4.309-7.257c0.764-1.257,2.09-2.341,2.949-3.629
			c2.547-3.82,5.152-8.128,8.392-11.34c0.737-0.927,1.569-1.758,2.496-2.496c13.161-12.24,28.606-22.196,38.556-37.648
			c1.345-1.831,2.373-3.978,4.083-5.443c0,1.587,0,3.175,0,4.763c-9.742,15.583-23.823,26.83-37.196,38.783
			c-3.498,3.91-7.115,7.702-8.391,13.834c0.561-0.196,0.833-0.679,0.907-1.36c1.998-6.394,6.987-11.762,12.247-15.65
			c4.304-4.012,8.792-7.84,13.154-11.793c6.587-7.399,14.121-13.852,19.278-22.68c-0.149,6.619,1.302,12.694,0.453,18.598
			c-1.181,8.219-3.458,16.677-6.35,23.814c-2.214,5.46-3.847,11.043-5.897,16.556c-1.16,3.119-3.208,5.94-3.628,9.979
			C440.039,249.032,439.687,249.587,438.929,249.737z M490.413,220.252c-3.728,2.787-8.426,4.037-12.248,7.031
			c4.126-6.006,12.22-10.006,16.784-16.33c2.63-1.224,3.776-3.935,5.67-5.897c-2.321,1.524-4.065,4.172-6.351,6.124
			c-0.824,0.703-1.959,1.056-2.722,1.814c-0.573,0.57-0.806,1.447-1.36,2.041c-4.437,4.755-11.106,7.352-14.062,13.381
			c-1.547,0.874-3.188,1.652-4.537,2.722c0.978-6.297,1.826-13.257,2.495-20.412c0.077-0.817,0.167-1.633,0.269-2.447
			c0.078-0.616,0.168-1.229,0.26-1.841c0.029-0.197,0.053-0.395,0.083-0.591c0.094-0.604,0.2-1.202,0.307-1.799
			c0.036-0.202,0.066-0.407,0.104-0.608c0.116-0.628,0.243-1.248,0.371-1.868c0.034-0.166,0.064-0.335,0.1-0.5
			c0.138-0.651,0.286-1.293,0.436-1.933c0.03-0.128,0.057-0.26,0.087-0.388c0.174-0.727,0.355-1.444,0.542-2.152
			c0.009-0.035,0.018-0.071,0.027-0.105c0.196-0.738,0.398-1.464,0.606-2.178c0.001-0.004,0.002-0.009,0.004-0.014
			c0.209-0.718,0.424-1.423,0.644-2.114c0.006-0.02,0.012-0.04,0.018-0.059c-0.006-0.001-0.008,0-0.014,0c-0.002,0-0.003,0-0.005,0
			c-0.171-0.027-0.196,0.094-0.208,0.227c-0.076,0-0.151,0-0.227,0c-0.685,2.037-1.229,4.215-2.268,5.897
			c-1.388,11.285-2.825,23.309-4.762,33.34c-2.068,1.259-4.145,2.509-6.351,3.628c2.217-6.602,2.32-14,3.403-21.545
			c-0.376-0.245-0.376-2.024,0-2.269c-0.56-13.772-0.548-30.131,3.628-40.597c-1.791,0.718-1.685,2.95-2.041,4.536
			c-1.699,7.577-2.443,17.933-2.722,28.124c-0.104,3.793,0.472,7.668,0.227,11.34c-0.517,7.709-2.271,14.695-3.402,21.092
			c-2.693,1.239-5.586,3.485-7.938,4.31c2.646-7.623,4.579-16.172,5.896-25.629c1.349-9.669,0.792-19.89,1.361-30.165
			c0.197-3.563,1.125-7.144,1.587-10.66c1.839-13.972,5.714-25.826,14.289-32.659c-1.287,0.042-2.351,1.367-3.175,2.268
			c-6.297,6.88-10.118,17.372-11.793,29.938c-0.467,3.5-1.313,7.038-1.587,10.433c-0.841,10.385,0.156,21.099-1.361,31.071
			c-1.511,9.93-4.027,18.403-6.35,26.309c-4.244,2.258-8.166,4.838-12.475,7.031c6.061-17.299,13.457-33.265,16.103-53.978
			c0-1.135,0-2.269,0-3.403c0.026-1.991-0.727-3.205-0.454-5.443c-0.375-0.392-0.375-2.33,0-2.722c0-0.907,0-1.813,0-2.721
			c-0.517-0.315-0.084-1.579-0.226-2.268c0-1.21,0-2.419,0-3.629c0.144-0.838-0.294-2.259,0.226-2.721
			c-0.073-4.557,1.226-11.279,2.723-15.65c3.358-9.811,11.014-14.853,17.917-21.319c1.418-1.606,2.929-3.119,4.536-4.536
			c7.082-7.811,12.904-16.883,18.37-26.31c-0.478-0.821-0.393,0.79-1.133,0.454c-1.824,4.457-4.802,8.229-7.484,12.021
			c-2.646,3.736-4.809,7.977-8.393,10.887c-0.55,1.415-1.983,1.948-2.721,3.175c-1.417,1.607-2.929,3.119-4.536,4.536
			c-6.737,6.328-13.941,10.804-17.464,20.64c-0.362,1.011-0.175,2.043-0.681,3.175c-0.533,1.196-1.918,2.22-2.949,3.629
			c-2.679,3.668-5.267,8.183-7.938,11.793c-1.839,2.487-4.166,4.805-5.897,7.258c-3.102,4.394-5.033,8.55-9.071,11.794
			c-1.04,1.228-2.173,2.362-3.402,3.401c-5.094,5.565-11.841,9.479-17.01,14.969c-0.661,0.851-1.417,1.607-2.268,2.268
			c-10.363,12.543-18.513,27.3-26.989,41.731c-1.013,0.802-1.19,2.439-2.269,3.176c-0.866,2.837-2.266,5.142-3.855,7.257
			c-6.591-3.614-12.838-7.574-19.504-11.113c2.155-4.048,3.729-8.307,5.67-12.474c3.99-8.565,5.314-18.161,9.526-26.536
			c5.895-11.726,13.497-22.705,20.412-33.567c4.646-7.296,9.482-14.431,16.557-19.504c0.813-1.002,1.719-1.909,2.722-2.721
			c6.267-5.603,12.984-10.754,18.598-17.01c3.23-3.651,6.376-7.383,9.979-10.66c0.628-0.657,1.239-1.331,1.814-2.041
			c0.66-0.851,1.417-1.607,2.268-2.268c6.195-7.333,12.403-14.648,18.143-22.454c2.83-3.846,4.912-8.351,7.711-12.473
			c2.809-4.138,5.678-8.388,6.577-13.609c-1.755,1.996-2.377,4.519-3.401,6.804c-1.043,2.327-2.411,4.186-3.856,6.35
			c-2.761,4.136-5.026,8.494-7.938,12.475c-5.698,7.789-11.577,15.52-18.143,22.453c-11.545,14.084-25.247,26.011-39.01,37.875
			c5.178-10.535,9.667-26.141,13.381-37.195c0.262-0.781-0.061-0.234,0.453,0c4.567-16.118,9.594-33.54,14.969-49.216
			c1.913-5.578,2.524-11.578,4.537-16.783c0.694-1.796,2.425-3.658,2.268-5.897c-2.245,2.896-3.229,7.054-4.763,10.66
			c-0.306,0.88-0.604,2.278-0.68,2.721c-0.234,2.867-1.234,4.965-2.949,6.352c-0.229,0.451-0.392,0.968-0.907,1.133
			c-2.88,3.849-5.862,7.596-8.392,11.794c-5.997,9.048-14.095,15.994-21.773,23.361c3.14-7.52,7.38-13.939,10.433-21.546
			c5.144-13.227,7.81-28.932,10.886-44.226c0.254-0.28,0.197-0.466-0.226-0.454c-4.952,18.636-6.77,40.406-16.33,54.433
			c-1.798,4.779-4.453,8.701-6.351,13.381c-23.149,19.337-50.843,34.13-70.762,56.7c-0.661,0.851-1.417,1.606-2.268,2.267
			c-0.043,0.184-0.228,0.226-0.227,0.455c-0.737,0.926-1.569,1.758-2.496,2.494c-2.825,3.601-6.202,6.65-8.845,10.433
			c-7.417,10.047-14.95,19.977-20.185,32.206c-2.411-1.521-5.055-2.808-7.484-4.309c-0.076,0-0.151,0-0.228,0
			c0.881-5.949-1.168-13.25,0-19.505c0.421-2.25,2.651-5.006,3.855-7.258c1.362-2.544,2.657-5.061,3.856-7.257
			c2.756-5.046,5.164-10.1,8.391-13.835c6.725-7.783,16.718-13.386,25.855-19.278c9.055-5.84,17.496-12.918,25.629-19.278
			c8.375-6.55,17.167-12.893,24.948-19.958c12.037-10.932,21.606-23.041,28.35-39.237c-2.836,3.242-4.284,7.548-6.352,11.567
			c-1.947,3.788-4.686,7.3-7.257,10.66c-10.343,13.519-24.002,23.01-37.196,34.02c-6.646,5.546-13.408,11.154-20.639,15.876
			c-0.139,0.202-0.274,0.406,0,0.454c-10.871,7.877-23.589,13.908-32.659,23.587c6.096-12.123,17.356-21.049,27.443-29.938
			c17.944-14.336,34.805-29.756,48.535-48.308c-2.769,0.864-4.321,4.231-6.35,6.578c-6.017,6.953-11.887,14.861-19.278,20.638
			c-0.661,0.851-1.417,1.607-2.268,2.267c-12.543,11.206-25.42,21.583-37.648,33.113c-6.055,5.709-10.317,13.477-14.516,20.866
			c-4.253,7.487-9.252,14.72-12.474,22.907c-0.416-11.291-0.228-22.045-0.228-33.793c0-3.715-0.671-8.066,0-11.34
			c0.465-2.267,3.976-5.563,6.125-7.711c6.77-6.77,15.104-12.828,22.226-18.597c10.425-8.445,22.541-14.08,33.34-21.093
			c5.453-3.541,10.935-7.413,16.103-11.34c5.334-4.054,10.477-7.887,14.516-12.701c8.257-9.841,14.596-20.785,19.958-34.02
			c-3.917,6.084-7.178,14.006-10.887,20.866c-2.017,3.733-5.347,7.371-8.165,10.887c-8.416,10.502-20.441,17.26-31.298,25.401
			c-0.151,0-0.303,0-0.454,0c-9.979,6.501-20.759,12.202-30.392,19.052c1.896-3.051,4.756-5.491,7.485-7.938
			c5.445-4.887,11.25-9.868,16.329-15.423c2.587-2.829,4.726-6.083,7.484-8.618c9.837-13.523,19.521-27.201,26.99-43.092
			c-2.51,1.102-2.429,3.868-3.402,5.897c-0.995,2.073-2.639,4.036-3.855,6.123c-8.394,14.396-17.95,28.757-29.031,40.597
			c-0.887,1.078-1.87,2.061-2.948,2.949c-4.946,5.26-10.685,9.728-15.876,14.742c-0.963,1.153-2.022,2.211-3.175,3.175
			c-7.673,7.901-16.753,14.394-24.947,21.772c-0.661,0.852-1.418,1.608-2.269,2.269c-1.236,1.712-2.698,3.198-3.628,5.216
			c0.638-3.934-1.587-10.542-0.228-14.742c0.607-1.875,4.536-3.197,5.217-5.216c0.964-1.154,2.022-2.212,3.175-3.175
			c3.914-3.949,7.681-8.044,11.794-11.794c0.812-1.001,1.72-1.909,2.722-2.722c6.31-6.859,11.506-14.465,17.01-21.999
			c5.466-7.483,10.862-15.443,12.702-26.31c18.326-10.25,36.218-20.936,54.431-31.298c4.05,1.999,7.732,4.364,11.567,6.577
			c5.695,3.53,12.086,6.362,17.237,10.433c0-0.074,0-0.151,0-0.226c11.722,6.121,23.818,13.83,35.834,20.412
			c-5.233,5.983-10.151,13.6-13.608,22.227c-1.662,4.148-2.965,8.927-4.536,13.38c-1.542,4.375-4.264,8.414-5.443,12.475
			c-0.516,1.777-0.545,3.288-1.361,4.762c0.184,0.043,0.226,0.228,0.454,0.227c0.074-0.614,0.137-1.575,0.908-2.041
			c1.151-4.624,3.756-8.807,5.443-13.381c5.08-13.779,8.886-28.366,19.278-36.969c0.221,0.232,0.449,0.46,0.68,0.681
			c1.377,0.209,1.986,1.188,3.175,1.587c0.49,0.341,1.41,0.253,1.587,0.907c5.224,3.168,10.677,6.107,15.876,9.299
			c0.184,0.195,0.621,0.135,0.681,0.455c4.808,2.599,9.521,5.297,14.062,8.164c1.946,0.7,3.24,2.052,5.215,2.721
			c0,4.386,0,8.771,0,13.155c0,33.568,0,67.132,0,100.7c-0.272,0.298-0.087,0.357,0,0.68c0,1.814,0,3.628,0,5.444
			c-2.04,1.419-3.913,3.005-5.67,4.762C493.742,216.696,492.246,218.882,490.413,220.252z M501.072,214.128
			c-2.658,1.273-5.147,2.715-7.484,4.31c1.301-2.631,5.095-4.732,7.258-7.257C501.367,211.717,500.926,213.216,501.072,214.128z"/>
	</g>
</g>
<g id="CUT_zigzag">
	<g id="_x33_rd_cut">
		<g id="_x31__1_">
			<path fill="none" stroke="#EC1E25" stroke-width="0.001" stroke-miterlimit="10" d="M268.889,224.714
				c0.002-0.004,0.004-0.002,0.006,0c0.002,0.004,0.001,0.006-0.001,0.006l-13.639,7.883l-0.006-0.002l0.008-0.008l-0.006-0.002
				l-0.002,0.002c-1.942,1.115-3.893,2.248-5.778,3.34c-1.599,0.927-3.25,1.885-4.836,2.797c-0.486,0.279-1.023,0.589-1.585,0.913
				c-0.741,0.427-1.525,0.878-2.288,1.317c-0.195,0.113-0.385,0.226-0.568,0.334c-0.36,0.217-0.7,0.42-1.071,0.615
				c-1.045,0.548-1.91,0.982-2.747,1.15c-0.798,0.162-0.893,0.015-0.948-0.072c-0.019-0.028-0.035-0.051-0.065-0.055
				c-1.353-1.3-0.801-2.896-0.216-4.583c0.551-1.591,1.121-3.238-0.086-4.594c-0.042-0.021-0.104-0.08-0.182-0.156
				c-0.198-0.189-0.494-0.476-0.873-0.543l0.003-0.004h-0.017l-24.938,14.402l0.002-0.004l-0.014,0.008
				c-2.076,1.2-3.848,2.274-4.499,3.275c-0.979,1.511-1.231,3.07-0.77,4.77c0.424,1.559,1.381,3.078,2.407,4.628
				c0.112,0.168,0.225,0.338,0.337,0.509c2.188,3.283,4.451,6.679,2.173,10.194c-0.654,1.003-2.423,2.073-4.494,3.269
				l-24.953,14.407c-0.378-0.07-0.676-0.355-0.874-0.543c-0.079-0.076-0.142-0.135-0.184-0.158c-1.2-1.35-0.631-2.992-0.082-4.582
				c0.559-1.618,1.138-3.292-0.221-4.598c-0.029-0.004-0.042-0.024-0.061-0.051c-0.058-0.09-0.157-0.238-0.959-0.076
				c-0.837,0.17-1.704,0.603-2.749,1.152c-0.382,0.201-0.733,0.41-1.103,0.632c-0.173,0.104-0.353,0.211-0.539,0.32
				c-0.791,0.453-1.608,0.923-2.375,1.366c-0.53,0.306-1.037,0.597-1.497,0.861c-1.505,0.868-3.071,1.776-4.586,2.654
				c-1.966,1.14-4,2.319-6.022,3.482l-0.005-0.002l-13.729,7.906c-0.002,0-0.003,0.002-0.001,0.006c0,0,0.001,0.002,0.003,0.002
				c0.001,0,0.002,0,0.003-0.002"/>
			<path fill="none" stroke="#EC1E25" stroke-width="0.001" stroke-miterlimit="10" d="M143.933,8.727l13.884,7.989
				c1.483,0.854,9.15,5.273,10.621,6.123c0.515,0.299,1.088,0.631,1.688,0.978c0.709,0.411,1.454,0.842,2.178,1.263
				c0.198,0.115,0.395,0.223,0.583,0.328c0.365,0.203,0.709,0.393,1.061,0.616c0.963,0.61,1.806,1.166,2.373,1.806
				c0.542,0.614,0.46,0.773,0.414,0.868c-0.016,0.029-0.027,0.051-0.016,0.079c-0.451,1.829-2.189,2.164-3.87,2.488
				c-1.652,0.319-3.359,0.649-3.928,2.362c0.003,0.047-0.018,0.132-0.044,0.239c-0.065,0.266-0.164,0.668-0.032,1.029l24.965,14.413
				h-0.002c2.067,1.193,3.875,2.185,5.065,2.25c0.133,0.007,0.264,0.01,0.393,0.01c3.578,0,5.196-2.66,6.919-6.122
				c0.09-0.181,0.181-0.363,0.271-0.545c1.702-3.44,3.462-6.995,7.401-6.995c0.115,0,0.232,0.002,0.351,0.009
				c1.191,0.063,3.009,1.06,5.088,2.258l0.015,0.009h-0.004l24.938,14.396l0.002-0.001c0.134,0.367,0.034,0.773-0.033,1.042
				c-0.026,0.104-0.046,0.188-0.045,0.236c-0.569,1.719-2.279,2.049-3.933,2.369c-1.678,0.324-3.412,0.659-3.861,2.479
				c0.011,0.028-0.001,0.054-0.017,0.083c-0.047,0.093-0.127,0.249,0.412,0.858c0.565,0.64,1.408,1.196,2.371,1.804
				c0.358,0.227,0.708,0.422,1.082,0.629c0.182,0.101,0.371,0.206,0.563,0.316c0.837,0.487,1.703,0.989,2.511,1.456
				c0.478,0.277,0.935,0.542,1.354,0.784c1.507,0.872,3.08,1.776,4.602,2.651c1.967,1.132,4.001,2.303,6.02,3.473l0.002,0.001v0.006
				l13.478,7.788c0.001,0.001,0.002,0.004,0,0.007c0,0.001-0.001,0.002-0.003,0.002c-0.001,0-0.002,0-0.003,0"/>
			<path fill="none" stroke="#EC1E25" stroke-width="0.001" stroke-miterlimit="10" d="M19.304,80.878
				c-0.002,0.001-0.003,0.004-0.001,0.006c0.001,0.001,0.001,0.002,0.003,0.002c0.001,0,0.002,0,0.003,0l13.721-7.902l0.006,0.001
				l0.001,0c1.991-1.144,3.99-2.303,5.922-3.423c1.551-0.898,3.152-1.827,4.692-2.713c0.342-0.198,0.71-0.41,1.095-0.632
				c0.865-0.499,1.846-1.063,2.778-1.597c0.189-0.111,0.374-0.221,0.553-0.328c0.365-0.219,0.71-0.425,1.087-0.623
				c1.006-0.529,1.906-0.981,2.747-1.151c0.799-0.162,0.892-0.016,0.95,0.072c0.018,0.027,0.034,0.051,0.063,0.055
				c1.354,1.3,0.775,2.97,0.217,4.585c-0.55,1.592-1.122,3.238,0.084,4.592c0.043,0.022,0.105,0.082,0.186,0.158
				c0.199,0.192,0.5,0.48,0.884,0.545l24.949-14.407l0.001,0.001c2.075-1.198,3.846-2.272,4.5-3.274
				c2.282-3.521,0.014-6.923-2.178-10.213c-0.111-0.167-0.223-0.334-0.334-0.501c-2.211-3.338-3.737-6.149-1.636-9.387
				c0.653-1.003,2.422-2.075,4.494-3.271l0.002,0.001l24.951-14.406c0.376,0.066,0.674,0.352,0.87,0.541
				c0.081,0.077,0.146,0.138,0.188,0.16c1.2,1.349,0.631,2.992,0.081,4.583c-0.559,1.617-1.138,3.29,0.221,4.595
				c0.03,0.005,0.043,0.025,0.062,0.053c0.058,0.089,0.15,0.238,0.958,0.076c0.839-0.17,1.742-0.622,2.751-1.152
				c0.364-0.191,0.7-0.391,1.053-0.603c0.19-0.114,0.385-0.23,0.588-0.347c0.872-0.501,1.774-1.021,2.61-1.502
				c0.444-0.256,0.87-0.501,1.26-0.726c1.583-0.912,3.231-1.868,4.825-2.791c1.89-1.096,19.424-11.227,19.424-11.227"/>
			<path fill="none" stroke="#EC1E25" stroke-width="0.001" stroke-miterlimit="10" d="M144.042,296.757
				c0.004,0,0.004,0.002,0.003,0.005c-0.003,0.004-0.005,0.005-0.006,0.003l-13.646-7.871l-0.001-0.006l0.011,0.002l-0.001-0.006
				l-0.003-0.001c-1.938-1.124-3.893-2.247-5.782-3.333c-1.603-0.922-3.257-1.872-4.841-2.791c-0.484-0.281-1.021-0.592-1.583-0.917
				c-0.739-0.428-1.521-0.88-2.284-1.322c-0.194-0.112-0.388-0.22-0.572-0.324c-0.37-0.204-0.715-0.397-1.069-0.622
				c-0.996-0.629-1.806-1.162-2.37-1.802c-0.538-0.61-0.459-0.768-0.412-0.859c0.016-0.03,0.027-0.055,0.016-0.083
				c0.45-1.822,2.107-2.142,3.861-2.479c1.653-0.319,3.365-0.648,3.935-2.372c-0.002-0.046,0.019-0.129,0.046-0.234
				c0.063-0.267,0.164-0.667,0.033-1.028l0.005,0.001l-0.009-0.016l-24.94-14.396h0.004l-0.013-0.006
				c-2.078-1.2-3.895-2.197-5.086-2.259c-1.799-0.093-3.275,0.467-4.517,1.717c-1.138,1.146-1.975,2.736-2.806,4.399
				c-0.088,0.182-0.18,0.365-0.271,0.547c-1.749,3.536-3.56,7.194-7.742,6.979c-1.196-0.065-3.008-1.062-5.078-2.258L43.97,251.02
				c-0.129-0.362-0.03-0.762,0.033-1.028c0.026-0.105,0.047-0.19,0.046-0.237c0.568-1.713,2.275-2.043,3.926-2.362
				c1.681-0.326,3.42-0.66,3.871-2.491c-0.01-0.027,0-0.05,0.014-0.079c0.05-0.094,0.129-0.253-0.412-0.867
				c-0.567-0.641-1.375-1.174-2.374-1.805c-0.364-0.23-0.721-0.429-1.098-0.64c-0.178-0.097-0.359-0.199-0.546-0.305
				c-0.789-0.459-1.604-0.931-2.371-1.374c-0.529-0.308-1.035-0.601-1.494-0.866c-1.504-0.871-3.074-1.773-4.592-2.647
				c-1.971-1.131-4.009-2.303-6.026-3.473l-0.002-0.006l-13.71-7.936c-0.001-0.001-0.004-0.002-0.006,0.001
				c0.001,0.001-0.001,0.003,0,0.004c0,0,0.001,0.002,0.003,0"/>
		</g>
		<g id="_x32__1_">
			<path fill="none" stroke="#EC1E25" stroke-width="0.001" stroke-miterlimit="10" d="M518.329,224.389
				c0.002-0.004,0.005-0.002,0.007,0c0.002,0.004,0.002,0.006,0,0.006l-13.641,7.883l-0.006-0.002l0.008-0.008l-0.006-0.002
				l-0.002,0.002c-1.941,1.116-3.893,2.248-5.777,3.341c-1.6,0.927-3.25,1.885-4.838,2.797c-0.486,0.279-1.023,0.588-1.585,0.913
				c-0.74,0.426-1.523,0.877-2.286,1.316c-0.195,0.113-0.386,0.226-0.568,0.334c-0.361,0.217-0.701,0.42-1.072,0.615
				c-1.045,0.547-1.91,0.982-2.746,1.15c-0.798,0.162-0.895,0.014-0.949-0.072c-0.02-0.029-0.035-0.051-0.064-0.056
				c-1.354-1.3-0.802-2.896-0.217-4.583c0.551-1.591,1.121-3.238-0.086-4.594c-0.041-0.021-0.104-0.08-0.182-0.156
				c-0.198-0.188-0.494-0.476-0.873-0.543l0.004-0.004h-0.018l-24.938,14.401l0.002-0.004l-0.012,0.008
				c-2.078,1.2-3.85,2.274-4.5,3.275c-0.98,1.511-1.232,3.07-0.771,4.77c0.425,1.559,1.382,3.078,2.407,4.629
				c0.113,0.168,0.227,0.338,0.339,0.508c2.188,3.283,4.45,6.68,2.171,10.194c-0.653,1.003-2.422,2.074-4.492,3.269l-24.954,14.407
				c-0.378-0.07-0.675-0.354-0.874-0.543c-0.078-0.076-0.141-0.135-0.182-0.158c-1.2-1.35-0.633-2.992-0.082-4.582
				c0.557-1.618,1.138-3.292-0.223-4.598c-0.028-0.004-0.043-0.025-0.061-0.051c-0.059-0.09-0.156-0.238-0.958-0.076
				c-0.839,0.17-1.704,0.603-2.751,1.153c-0.381,0.201-0.731,0.41-1.103,0.631c-0.173,0.104-0.353,0.211-0.538,0.32
				c-0.791,0.454-1.607,0.923-2.374,1.366c-0.531,0.305-1.038,0.597-1.497,0.861c-1.506,0.867-3.072,1.776-4.588,2.653
				c-1.965,1.141-3.999,2.32-6.021,3.482l-0.006-0.002l-13.728,7.906c-0.002,0-0.004,0.002-0.002,0.006
				c0.002,0,0.002,0.002,0.004,0.002c0,0,0.002,0,0.002-0.002"/>
			<path fill="none" stroke="#EC1E25" stroke-width="0.001" stroke-miterlimit="10" d="M393.373,8.402l13.884,7.989
				c1.484,0.853,9.15,5.272,10.621,6.123c0.515,0.299,1.089,0.631,1.688,0.978c0.71,0.411,1.454,0.842,2.178,1.263
				c0.199,0.115,0.396,0.223,0.585,0.328c0.364,0.203,0.708,0.394,1.06,0.616c0.963,0.61,1.805,1.166,2.373,1.807
				c0.541,0.614,0.459,0.772,0.412,0.868c-0.014,0.029-0.026,0.051-0.014,0.079c-0.451,1.829-2.19,2.164-3.87,2.489
				c-1.653,0.319-3.359,0.649-3.929,2.362c0.004,0.048-0.018,0.132-0.043,0.239c-0.066,0.266-0.164,0.668-0.033,1.029l24.966,14.413
				h-0.002c2.067,1.194,3.874,2.185,5.065,2.25c0.133,0.007,0.265,0.01,0.392,0.01c3.579,0,5.196-2.661,6.919-6.122
				c0.091-0.181,0.184-0.363,0.271-0.545c1.701-3.44,3.461-6.995,7.4-6.995c0.115,0,0.232,0.003,0.352,0.009
				c1.191,0.063,3.008,1.061,5.088,2.258l0.014,0.009h-0.004l24.938,14.396l0.002-0.001c0.135,0.367,0.034,0.774-0.033,1.042
				c-0.027,0.104-0.045,0.188-0.045,0.236c-0.568,1.719-2.279,2.05-3.932,2.369c-1.68,0.324-3.412,0.659-3.861,2.48
				c0.01,0.028-0.002,0.053-0.017,0.083c-0.048,0.093-0.128,0.248,0.412,0.858c0.563,0.64,1.407,1.196,2.37,1.804
				c0.357,0.227,0.708,0.422,1.081,0.629c0.183,0.101,0.372,0.206,0.563,0.316c0.838,0.486,1.703,0.988,2.511,1.456
				c0.478,0.277,0.935,0.541,1.354,0.783c1.507,0.872,3.081,1.776,4.603,2.651c1.967,1.132,4,2.303,6.021,3.473l0.002,0.001v0.006
				l13.478,7.788c0,0.002,0.002,0.004,0,0.007c0,0.001-0.002,0.002-0.004,0.002c0,0-0.002,0-0.002,0"/>
			<path fill="none" stroke="#EC1E25" stroke-width="0.001" stroke-miterlimit="10" d="M268.745,80.553
				c-0.002,0.001-0.003,0.004-0.001,0.007c0.001,0.001,0.001,0.002,0.003,0.002c0.001,0,0.002,0,0.003,0l13.721-7.902l0.006,0.001
				l0.001,0c1.991-1.144,3.99-2.302,5.922-3.423c1.55-0.898,3.152-1.827,4.692-2.713c0.343-0.197,0.712-0.41,1.095-0.632
				c0.865-0.498,1.845-1.063,2.778-1.596c0.188-0.111,0.373-0.222,0.552-0.328c0.365-0.219,0.711-0.426,1.087-0.623
				c1.007-0.529,1.907-0.981,2.748-1.151c0.798-0.162,0.892-0.016,0.949,0.072c0.017,0.027,0.033,0.051,0.062,0.055
				c1.354,1.3,0.775,2.97,0.218,4.585c-0.55,1.592-1.122,3.238,0.084,4.592c0.043,0.022,0.106,0.082,0.187,0.158
				c0.199,0.192,0.5,0.48,0.884,0.546l24.948-14.407l0.002,0.001c2.076-1.198,3.845-2.272,4.5-3.275
				c2.283-3.521,0.015-6.923-2.178-10.213c-0.113-0.167-0.224-0.333-0.334-0.501c-2.21-3.338-3.736-6.149-1.636-9.387
				c0.654-1.003,2.422-2.074,4.493-3.271l0.002,0.001l24.952-14.406c0.375,0.066,0.673,0.352,0.87,0.541
				c0.08,0.077,0.146,0.138,0.189,0.16c1.2,1.349,0.629,2.992,0.08,4.582c-0.558,1.617-1.138,3.29,0.222,4.595
				c0.029,0.004,0.043,0.025,0.062,0.053c0.058,0.088,0.15,0.238,0.958,0.075c0.839-0.17,1.741-0.622,2.75-1.152
				c0.365-0.191,0.699-0.391,1.054-0.604c0.189-0.113,0.384-0.23,0.589-0.347c0.872-0.501,1.774-1.021,2.608-1.502
				c0.445-0.255,0.87-0.5,1.261-0.725c1.583-0.912,3.23-1.868,4.826-2.791c1.889-1.096,19.423-11.227,19.423-11.227"/>
			<path fill="none" stroke="#EC1E25" stroke-width="0.001" stroke-miterlimit="10" d="M393.474,296.425
				c0.004,0,0.004,0.002,0.003,0.005c-0.003,0.004-0.005,0.005-0.006,0.003l-13.646-7.871l-0.001-0.006l0.011,0.002l-0.001-0.006
				l-0.003-0.001c-1.938-1.124-3.893-2.247-5.782-3.333c-1.603-0.922-3.257-1.872-4.841-2.791c-0.484-0.281-1.021-0.592-1.583-0.917
				c-0.739-0.428-1.521-0.88-2.284-1.322c-0.194-0.112-0.388-0.22-0.572-0.324c-0.37-0.204-0.715-0.397-1.069-0.622
				c-0.996-0.629-1.806-1.162-2.37-1.802c-0.538-0.61-0.459-0.768-0.412-0.859c0.016-0.03,0.027-0.055,0.016-0.083
				c0.45-1.822,2.107-2.142,3.861-2.479c1.653-0.319,3.365-0.648,3.935-2.372c-0.002-0.046,0.019-0.129,0.046-0.234
				c0.063-0.267,0.164-0.667,0.033-1.028l0.005,0.001l-0.009-0.016l-24.94-14.396h0.004l-0.013-0.006
				c-2.078-1.2-3.895-2.197-5.086-2.259c-1.799-0.093-3.275,0.467-4.517,1.717c-1.138,1.146-1.975,2.736-2.806,4.399
				c-0.088,0.182-0.18,0.365-0.271,0.547c-1.749,3.536-3.56,7.194-7.742,6.979c-1.196-0.065-3.008-1.062-5.078-2.258l-24.953-14.407
				c-0.129-0.362-0.03-0.762,0.033-1.028c0.026-0.105,0.047-0.19,0.046-0.237c0.568-1.713,2.275-2.043,3.926-2.362
				c1.681-0.326,3.42-0.66,3.871-2.491c-0.01-0.027,0-0.05,0.014-0.079c0.05-0.094,0.129-0.253-0.412-0.867
				c-0.567-0.641-1.375-1.174-2.374-1.805c-0.364-0.23-0.721-0.429-1.098-0.64c-0.178-0.097-0.359-0.199-0.546-0.305
				c-0.789-0.459-1.604-0.931-2.371-1.374c-0.529-0.308-1.035-0.601-1.494-0.866c-1.504-0.871-3.074-1.773-4.592-2.647
				c-1.971-1.131-4.009-2.303-6.026-3.473l-0.002-0.006l-13.71-7.936c-0.001-0.001-0.004-0.002-0.006,0.001
				c0.001,0.001-0.001,0.003,0,0.004c0,0,0.001,0.002,0.003,0"/>
		</g>
	</g>
	<g id="_x32_nd_Cut_1_">
		<path fill="none" stroke="#FFDA00" stroke-width="0.001" stroke-miterlimit="10" d="M19.302,80.883c0-0.005,0.009-0.005,0.009,0
			l-0.007,16.081l-0.003,0.001c-0.005,2.253-0.001,4.523,0.003,6.718c0.002,1.831,0.005,3.724,0.003,5.541
			c0,0.361-0.001,0.747-0.001,1.148h-0.009c-0.002,1.034-0.002,2.205-0.006,3.318c0.001,0.226,0.004,0.445,0.007,0.658
			c0.007,0.42,0.014,0.818-0.002,1.239h0.009c-0.045,1.137-0.105,2.145-0.378,2.957c-0.261,0.776-0.438,0.786-0.546,0.792
			c-0.033,0.002-0.056,0.004-0.075,0.027c-0.276,0.08-0.538,0.117-0.785,0.117c-1.377,0-2.354-1.128-3.304-2.223
			c-0.975-1.124-1.979-2.283-3.421-2.283c-0.188,0-0.384,0.021-0.588,0.062c-0.04,0.027-0.123,0.05-0.228,0.081
			c-0.265,0.076-0.661,0.191-0.91,0.487v28.808c0,2.395,0.045,4.464,0.586,5.53c1.753,3.438,5.554,3.485,9.555,3.237
			c3.942-0.252,8.02-0.515,9.926,3.221c0.54,1.063,0.586,3.136,0.587,5.534v0.011l-0.001-0.001v28.799l0.002,0.002
			c-0.25,0.3-0.652,0.417-0.918,0.492c-0.104,0.031-0.187,0.056-0.228,0.08c-0.205,0.043-0.402,0.063-0.592,0.063
			c-1.446,0-2.451-1.159-3.427-2.284c-0.948-1.095-1.926-2.221-3.299-2.221l-0.859,0.144c-0.104,0.004-0.278,0.014-0.537,0.786
			c-0.274,0.816-0.333,1.821-0.377,2.953c-0.018,0.426-0.01,0.828-0.003,1.255c0.003,0.207,0.006,0.422,0.007,0.644
			c-0.004,1.111-0.005,2.282-0.005,3.316c-0.001,0.404-0.001,0.79-0.002,1.15c-0.002,1.762,0.002,3.599,0.004,5.377
			c0.004,2.248,0.008,4.573,0.003,6.882v0.002l-0.003,0.004l-0.038,15.653"/>
		<path fill="none" stroke="#FFDA00" stroke-width="0.001" stroke-miterlimit="10" d="M268.743,80.558c0-0.005,0.009-0.005,0.009,0
			l-0.007,16.081l-0.003,0.002c-0.003,2.308,0,4.633,0.004,6.88c0.003,1.778,0.006,3.616,0.005,5.377
			c-0.002,0.571-0.002,1.204-0.003,1.864c-0.001,0.855-0.002,1.739-0.005,2.604c0.001,0.22,0.005,0.435,0.008,0.642
			c0.007,0.426,0.014,0.829-0.004,1.254c-0.045,1.138-0.105,2.146-0.376,2.958c-0.261,0.777-0.44,0.786-0.545,0.792
			c-0.034,0.002-0.057,0.003-0.076,0.025c-1.813,0.526-2.969-0.813-4.09-2.105l0.007-0.006c-0.977-1.125-1.982-2.287-3.428-2.287
			c-0.189,0-0.386,0.021-0.593,0.063l0.004,0.009c-0.04,0.027-0.124,0.051-0.23,0.082c-0.263,0.076-0.659,0.191-0.905,0.484
			l-0.002,28.813l-0.007-0.005l-0.002,0.001c0,2.395,0.044,4.466,0.586,5.534c0.819,1.604,2.044,2.603,3.746,3.051
			c1.563,0.413,3.357,0.347,5.211,0.23c0.203-0.012,0.407-0.025,0.61-0.038c3.941-0.251,8.013-0.514,9.915,3.217
			c0.542,1.064,0.585,3.133,0.585,5.529v28.807c-0.247,0.295-0.645,0.41-0.909,0.488c-0.105,0.029-0.188,0.053-0.228,0.08
			c-0.204,0.041-0.4,0.062-0.587,0.062c-1.443,0-2.448-1.159-3.422-2.283c-0.949-1.095-1.928-2.223-3.305-2.223
			c-0.247,0-0.51,0.037-0.786,0.117c-0.017,0.022-0.042,0.024-0.075,0.024c-0.106,0.006-0.285,0.017-0.546,0.792
			c-0.271,0.814-0.331,1.823-0.376,2.959c-0.018,0.424-0.011,0.829-0.004,1.255c0.003,0.208,0.007,0.423,0.008,0.642
			c-0.002,0.742-0.003,1.503-0.004,2.239c-0.001,0.792-0.002,1.555-0.004,2.228c-0.001,1.729,0.002,3.529,0.006,5.268
			c0.003,2.285,0.007,4.645,0.002,6.991h-0.002l-0.037,15.662c0,0.002,0.002,0.004,0.004,0.004c0.003,0,0.005-0.002,0.005-0.004"/>
		<path fill="none" stroke="#FFDA00" stroke-width="0.001" stroke-miterlimit="10" d="M518.183,80.233c0-0.005,0.008-0.005,0.008,0
			l-0.006,16.081l-0.004,0.002c-0.002,2.308,0,4.633,0.004,6.88c0.004,1.778,0.006,3.616,0.006,5.377
			c-0.002,0.571-0.002,1.204-0.004,1.864c0,0.855-0.002,1.739-0.004,2.604c0,0.219,0.004,0.435,0.008,0.642
			c0.006,0.427,0.013,0.829-0.004,1.254c-0.045,1.138-0.106,2.146-0.377,2.958c-0.261,0.777-0.439,0.787-0.546,0.792
			c-0.032,0.002-0.058,0.003-0.075,0.026c-1.813,0.526-2.968-0.813-4.09-2.105l0.006-0.006c-0.976-1.126-1.98-2.287-3.426-2.287
			c-0.191,0-0.389,0.021-0.594,0.063l0.004,0.009c-0.041,0.026-0.125,0.051-0.229,0.082c-0.266,0.076-0.661,0.19-0.907,0.484
			l-0.002,28.813l-0.006-0.005l-0.003,0.001c0,2.395,0.044,4.466,0.588,5.534c0.817,1.604,2.042,2.603,3.744,3.052
			c1.563,0.412,3.357,0.347,5.211,0.229c0.203-0.012,0.408-0.024,0.611-0.038c3.939-0.251,8.012-0.514,9.913,3.217
			c0.542,1.064,0.587,3.134,0.587,5.529v28.808c-0.248,0.295-0.646,0.41-0.91,0.488c-0.105,0.029-0.188,0.054-0.229,0.08
			c-0.203,0.041-0.399,0.062-0.586,0.062c-1.443,0-2.449-1.159-3.423-2.282c-0.95-1.095-1.928-2.223-3.304-2.223
			c-0.248,0-0.511,0.037-0.785,0.117c-0.02,0.022-0.043,0.025-0.076,0.025c-0.107,0.006-0.285,0.016-0.546,0.792
			c-0.271,0.814-0.332,1.823-0.378,2.959c-0.016,0.425-0.01,0.829-0.004,1.255c0.004,0.207,0.009,0.422,0.009,0.642
			c-0.002,0.743-0.002,1.503-0.005,2.24c0,0.792-0.002,1.554-0.004,2.227c0,1.729,0.002,3.529,0.007,5.269
			c0.004,2.285,0.008,4.645,0.002,6.991h-0.002l-0.037,15.662c0,0.002,0.002,0.004,0.004,0.004c0.005,0,0.007-0.002,0.007-0.004"/>
	</g>
</g>
<g id="alignment_mark">
	<line fill="none" stroke="#000000" stroke-width="0.25" stroke-miterlimit="10" x1="8.07" y1="12.604" x2="8.07" y2="7.093"/>
	<line fill="none" stroke="#000000" stroke-width="0.25" stroke-miterlimit="10" x1="8.07" y1="7.093" x2="13.354" y2="7.093"/>
</g>
</svg>
