<?xml version="1.0" encoding="utf-8"?>
<!-- Generator: Adobe Illustrator 24.0.0, SVG Export Plug-In . SVG Version: 6.00 Build 0)  -->
<svg version="1.1" id="Capa_1" xmlns="http://www.w3.org/2000/svg" xmlns:xlink="http://www.w3.org/1999/xlink" x="0px" y="0px"
	 viewBox="0 0 1728 1296" style="enable-background:new 0 0 1728 1296;" xml:space="preserve">
<style type="text/css">
	.st0{fill:none;stroke:#000000;stroke-width:0.216;stroke-miterlimit:288;}
</style>
<g id="cutting_x0020_vectors">
	<path class="st0" d="M388.5,306.6c0,14.2-11.5,25.8-25.8,25.8c-14.2,0-25.8-11.5-25.8-25.8c0-14.2,11.5-25.8,25.8-25.8
		C377,280.8,388.5,292.3,388.5,306.6L388.5,306.6z"/>
	<path class="st0" d="M549.5,212.7c0,14.2-11.5,25.8-25.8,25.8c-14.2,0-25.8-11.5-25.8-25.8c0-14.2,11.5-25.8,25.8-25.8
		C537.9,187,549.5,198.5,549.5,212.7z"/>
	<path class="st0" d="M710.7,120.1c0,14.2-11.5,25.8-25.8,25.8c-14.2,0-25.8-11.5-25.8-25.8c0-14.2,11.5-25.8,25.8-25.8
		C699.2,94.3,710.7,105.9,710.7,120.1z"/>
	<path class="st0" d="M549.9,399.5c0,14.2-11.5,25.8-25.8,25.8c-14.2,0-25.8-11.5-25.8-25.8c0-14.2,11.5-25.8,25.8-25.8
		C538.4,373.8,549.9,385.3,549.9,399.5L549.9,399.5z"/>
	<path class="st0" d="M710.9,305.7c0,14.2-11.5,25.8-25.8,25.8c-14.2,0-25.8-11.5-25.8-25.8c0-14.2,11.5-25.8,25.8-25.8
		C699.4,279.9,710.9,291.5,710.9,305.7z"/>
	<path class="st0" d="M872.2,213.1c0,14.2-11.5,25.8-25.8,25.8c-14.2,0-25.8-11.5-25.8-25.8c0-14.2,11.5-25.8,25.8-25.8
		C860.7,187.3,872.2,198.8,872.2,213.1L872.2,213.1z"/>
	<path class="st0" d="M711.5,491.2c0,14.2-11.5,25.8-25.8,25.8c-14.2,0-25.8-11.5-25.8-25.8c0-14.2,11.5-25.8,25.8-25.8
		C699.9,465.4,711.5,477,711.5,491.2z"/>
	<path class="st0" d="M872.2,397.3c0,14.2-11.5,25.8-25.8,25.8c-14.2,0-25.8-11.5-25.8-25.8c0-14.2,11.5-25.8,25.8-25.8
		C860.7,371.6,872.2,383.1,872.2,397.3z"/>
	<path class="st0" d="M1033.7,304.7c0,14.2-11.5,25.8-25.8,25.8c-14.2,0-25.8-11.5-25.8-25.8c0-14.2,11.5-25.8,25.8-25.8
		C1022.2,278.9,1033.7,290.5,1033.7,304.7z"/>
	<path class="st0" d="M388.5,492.3c0,14.2-11.5,25.8-25.8,25.8c-14.2,0-25.8-11.5-25.8-25.8c0-14.2,11.5-25.8,25.8-25.8
		C377,466.5,388.5,478.1,388.5,492.3L388.5,492.3z"/>
	<path class="st0" d="M388.5,676.6c0,14.2-11.5,25.8-25.8,25.8c-14.2,0-25.8-11.5-25.8-25.8c0-14.2,11.5-25.8,25.8-25.8
		C377,650.8,388.5,662.4,388.5,676.6L388.5,676.6z"/>
	<path class="st0" d="M549.5,584c0,14.2-11.5,25.8-25.8,25.8c-14.2,0-25.8-11.5-25.8-25.8c0-14.2,11.5-25.8,25.8-25.8
		C538,558.2,549.5,569.7,549.5,584z"/>
	<path class="st0" d="M1195.5,397.7c0,14.2-11.5,25.8-25.8,25.8c-14.2,0-25.8-11.5-25.8-25.8c0-14.2,11.5-25.8,25.8-25.8
		C1184,371.9,1195.5,383.5,1195.5,397.7z"/>
	<path class="st0" d="M710.5,675.9c0,14.2-11.5,25.8-25.8,25.8c-14.2,0-25.8-11.5-25.8-25.8c0-14.2,11.5-25.8,25.8-25.8
		C699,650.1,710.5,661.6,710.5,675.9z"/>
	<path class="st0" d="M871.8,583.2c0,14.2-11.5,25.8-25.8,25.8c-14.2,0-25.8-11.5-25.8-25.8c0-14.2,11.5-25.8,25.8-25.8
		C860.2,557.5,871.8,569,871.8,583.2z"/>
	<path class="st0" d="M1033.2,676.2c0,14.2-11.5,25.8-25.8,25.8c-14.2,0-25.8-11.5-25.8-25.8c0-14.2,11.5-25.8,25.8-25.8
		C1021.7,650.4,1033.2,662,1033.2,676.2z"/>
	<path class="st0" d="M1033.7,490.2c0,14.2-11.5,25.8-25.8,25.8c-14.2,0-25.8-11.5-25.8-25.8c0-14.2,11.5-25.8,25.8-25.8
		C1022.2,464.5,1033.7,476,1033.7,490.2z"/>
	<path class="st0" d="M1194.4,583.7c0,14.2-11.5,25.8-25.8,25.8c-14.2,0-25.8-11.5-25.8-25.8c0-14.2,11.5-25.8,25.8-25.8
		C1182.9,558,1194.4,569.5,1194.4,583.7z"/>
	<path class="st0" d="M148.3,610.9c0.1-38.8,0.1-77.5,0.2-116.3c53.5-22.1,53.1-22.1,107.1,0v116.3l-31.5,0.5l7.7-7.7H202v15.5
		h-31.5l7.7-7.7L148.3,610.9L148.3,610.9z"/>
	<path class="st0" d="M1134.6,148.4c0.1-38.8,0.1-77.5,0.2-116.3c53.5-22.1,53.1-22.1,107.1,0v116.3l-31.5,0.5l7.7-7.7h-29.8v15.5
		h-31.5l7.7-7.7L1134.6,148.4L1134.6,148.4z"/>
	<path class="st0" d="M41.1,610.9c0.1-38.8,0.1-77.5,0.2-116.3c53.5-22.1,53.1-22.1,107.1,0v116.3l-31.5,0.5l7.7-7.7H94.7v15.5H63.3
		l7.7-7.7L41.1,610.9L41.1,610.9z"/>
	<path class="st0" d="M148.3,610.9c-0.1,38.8-0.1,77.5-0.2,116.3c-53.5,22.1-53.1,22.1-107.1,0V610.9l31.5-0.5l-7.7,7.7h29.8v-15.5
		h31.5l-7.7,7.7L148.3,610.9L148.3,610.9z"/>
	<path class="st0" d="M255.6,610.9c-0.1,38.8-0.1,77.5-0.2,116.3c-53.5,22.1-53.1,22.1-107.1,0V610.9l31.5-0.5l-7.7,7.7H202v-15.5
		h31.5l-7.7,7.7L255.6,610.9L255.6,610.9z"/>
	<path class="st0" d="M1241.8,148.4c-0.1,38.8-0.1,77.5-0.2,116.3c-53.5,22.1-53.1,22.1-107.1,0V148.4l31.5-0.5l-7.7,7.7h29.8v-15.5
		h31.5l-7.7,7.7L1241.8,148.4L1241.8,148.4z"/>
	<path class="st0" d="M148.7,334.3c0.1-38.8,0.1-77.5,0.2-116.3c53.5-22.1,53.1-22.1,107.1,0v116.3l-31.5,0.5l7.7-7.7h-29.8v15.5
		h-31.5l7.7-7.7L148.7,334.3L148.7,334.3z"/>
	<path class="st0" d="M255.9,334.3c-0.1,38.8-0.1,77.5-0.2,116.3c-53.5,22.1-53.1,22.1-107.1,0V334.3l31.5-0.5l-7.7,7.7h29.8v-15.5
		h31.5l-7.7,7.7L255.9,334.3L255.9,334.3z"/>
	<path class="st0" d="M148.7,334.3c-0.1,38.8-0.1,77.5-0.2,116.3c-53.5,22.1-53.1,22.1-107.1,0V334.3l31.5-0.5l-7.7,7.7h29.8v-15.5
		h31.5l-7.7,7.7L148.7,334.3L148.7,334.3z"/>
	<path class="st0" d="M147.3,60.5c-0.1,38.8-0.1,77.5-0.2,116.3c-53.5,22.1-53.1,22.1-107.1,0V60.5L71.6,60l-7.7,7.7h29.8V52.3h31.5
		l-7.7,7.7L147.3,60.5L147.3,60.5z"/>
	<path class="st0" d="M361.8,60.5c-0.1,38.8-0.1,77.5-0.2,116.3c-53.5,22.1-53.1,22.1-107.1,0V60.5l31.5-0.5l-7.7,7.7h29.8V52.3
		h31.5L332,60L361.8,60.5L361.8,60.5z"/>
	<path class="st0" d="M254.6,60.5c-0.1,38.8-0.1,77.5-0.2,116.3c-53.5,22.1-53.1,22.1-107.1,0V60.5l31.5-0.5l-7.7,7.7H201V52.3h31.5
		l-7.7,7.7L254.6,60.5L254.6,60.5z"/>
	<path class="st0" d="M395.2,12.9C434,13,472.7,13,511.5,13.1c22.1,53.5,22.1,53.1,0,107.1H395.2l-0.5-31.5l7.7,7.7V66.5H387V35.1
		l7.7,7.7L395.2,12.9L395.2,12.9z"/>
	<path class="st0" d="M41.4,334.3c0.1-38.8,0.1-77.5,0.2-116.3c53.5-22.1,53.1-22.1,107.1,0v116.3l-31.5,0.5l7.7-7.7H95.1v15.5H63.6
		l7.7-7.7L41.4,334.3L41.4,334.3z"/>
	<g id="_242092720">
		<polyline id="_225433872" class="st0" points="416.4,770 386.5,769.5 394.2,761.7 362.7,761.7 362.7,777.2 332.9,777.2 
			340.6,769.5 309.1,770 		"/>
		<polyline id="_247366016" class="st0" points="470,677.1 454.7,702.7 451.8,692.1 436,719.4 449.4,727.1 434.5,753 431.7,742.5 
			416.4,770 		"/>
		<polyline id="_241774736" class="st0" points="416.4,584.2 386.5,583.7 394.2,576 362.7,576 362.7,591.5 332.9,591.5 340.6,583.7 
			309.1,584.2 		"/>
		<polyline id="_246318176" class="st0" points="416.4,398.5 386.5,398 394.2,390.2 362.7,390.2 362.7,405.7 332.9,405.7 340.6,398 
			309.1,398.5 		"/>
		<polyline id="_241668360" class="st0" points="416.4,212.7 386.5,212.2 394.2,204.5 362.7,204.5 362.7,220 332.9,220 340.6,212.2 
			309.1,212.7 		"/>
		<polyline id="_241774928" class="st0" points="309.1,770 294.6,743.9 305.2,746.7 289.4,719.4 276,727.1 261.1,701.3 271.6,704.1 
			255.5,677.1 		"/>
		<polyline id="_246374912" class="st0" points="309.1,584.2 294.6,558.2 305.2,560.9 289.4,533.7 276,541.4 261.1,515.6 
			271.6,518.3 255.5,491.3 		"/>
		<polyline id="_242642600" class="st0" points="309.1,398.5 294.6,372.4 305.2,375.2 289.4,347.9 276,355.6 261.1,329.8 
			271.6,332.6 255.5,305.6 		"/>
		<polyline id="_241774568" class="st0" points="255.5,677.1 270.8,651.5 273.7,662 289.4,634.8 276,627 290.9,601.2 293.8,611.7 
			309.1,584.2 		"/>
		<polyline id="_246492496" class="st0" points="255.5,491.3 270.8,465.8 273.7,476.3 289.4,449 276,441.3 290.9,415.5 293.8,426 
			309.1,398.5 		"/>
		<polyline id="_243657128" class="st0" points="255.5,305.6 270.8,280 273.7,290.5 289.4,263.3 276,255.5 290.9,229.7 293.8,240.2 
			309.1,212.7 		"/>
	</g>
	<polyline class="st0" points="1274.3,584.2 1259,609.8 1256.1,599.3 1240.4,626.5 1253.8,634.3 1238.9,660.1 1236,649.6 
		1220.7,677.1 	"/>
	<polyline class="st0" points="1274.3,584.2 1259.8,558.2 1270.3,560.9 1254.6,533.7 1241.2,541.4 1226.3,515.6 1236.8,518.3 
		1220.7,491.3 	"/>
	<polyline class="st0" points="1274.3,398.5 1259.8,372.4 1270.3,375.2 1254.6,347.9 1241.2,355.6 1226.3,329.8 1236.8,332.6 
		1220.7,305.6 	"/>
	<polyline class="st0" points="1220.7,491.3 1236,465.8 1238.9,476.3 1254.6,449 1241.2,441.3 1256.1,415.5 1259,426 1274.3,398.5 	
		"/>
	<g id="_246733832">
		<polyline id="_246173736" class="st0" points="1059.8,770 1030,769.5 1037.7,761.7 1006.2,761.7 1006.2,777.2 976.4,777.2 
			984,769.5 952.6,770 		"/>
		<polyline id="_246173928" class="st0" points="1113.4,677.1 1098.1,702.7 1095.2,692.1 1079.5,719.4 1092.9,727.1 1078,753 
			1075.1,742.5 1059.8,770 		"/>
		<polyline id="_247605608" class="st0" points="1059.8,584.2 1030,583.7 1037.7,576 1006.2,576 1006.2,591.5 976.4,591.5 
			984,583.7 952.6,584.2 		"/>
		<polyline id="_246173808" class="st0" points="1059.8,398.5 1030,398 1037.7,390.2 1006.2,390.2 1006.2,405.7 976.4,405.7 
			984,398 952.6,398.5 		"/>
		<polyline id="_246178568" class="st0" points="1059.8,212.7 1030,212.2 1037.7,204.5 1006.2,204.5 1006.2,220 976.4,220 
			984,212.2 952.6,212.7 		"/>
		<polyline id="_246178760" class="st0" points="952.6,770 938.1,743.9 948.6,746.7 932.9,719.4 919.5,727.1 904.6,701.3 
			915.1,704.1 898.9,677.1 		"/>
		<polyline id="_245939856" class="st0" points="952.6,584.2 938.1,558.2 948.6,560.9 932.9,533.7 919.5,541.4 904.6,515.6 
			915.1,518.3 898.9,491.3 		"/>
		<polyline id="_245940048" class="st0" points="952.6,398.5 938.1,372.4 948.6,375.2 932.9,347.9 919.5,355.6 904.6,329.8 
			915.1,332.6 898.9,305.6 		"/>
		<polyline id="_245940240" class="st0" points="898.9,677.1 914.3,651.5 917.1,662 932.9,634.8 919.5,627 934.4,601.2 937.2,611.7 
			952.6,584.2 		"/>
		<polyline id="_245504152" class="st0" points="898.9,491.3 914.3,465.8 917.1,476.3 932.9,449 919.5,441.3 934.4,415.5 937.2,426 
			952.6,398.5 		"/>
		<polyline id="_245940120" class="st0" points="898.9,305.6 914.3,280 917.1,290.5 932.9,263.3 919.5,255.5 934.4,229.7 
			937.2,240.2 952.6,212.7 		"/>
	</g>
	<polyline class="st0" points="738.1,770 708.3,769.5 715.9,761.7 684.5,761.7 684.5,777.2 654.6,777.2 662.3,769.5 630.8,770 	"/>
	<polyline class="st0" points="791.7,677.1 776.4,702.7 773.5,692.1 757.8,719.4 771.2,727.1 756.3,753 753.4,742.5 738.1,770 	"/>
	<polyline class="st0" points="738.1,584.2 708.3,583.7 715.9,576 684.5,576 684.5,591.5 654.6,591.5 662.3,583.7 630.8,584.2 	"/>
	<polyline class="st0" points="738.1,398.5 708.3,398 715.9,390.2 684.5,390.2 684.5,405.7 654.6,405.7 662.3,398 630.8,398.5 	"/>
	<polyline class="st0" points="738.1,212.7 708.3,212.2 715.9,204.5 684.5,204.5 684.5,220 654.6,220 662.3,212.2 630.8,212.7 	"/>
	<polyline class="st0" points="630.8,770 616.4,743.9 626.9,746.7 611.1,719.4 597.7,727.1 582.8,701.3 593.4,704.1 577.2,677.1 	
		"/>
	<polyline class="st0" points="630.8,584.2 616.4,558.2 626.9,560.9 611.1,533.7 597.7,541.4 582.8,515.6 593.4,518.3 577.2,491.3 	
		"/>
	<polyline class="st0" points="630.8,398.5 616.4,372.4 626.9,375.2 611.1,347.9 597.7,355.6 582.8,329.8 593.4,332.6 577.2,305.6 	
		"/>
	<polyline class="st0" points="630.8,212.7 616.4,186.7 626.9,189.4 611.1,162.2 597.7,169.9 582.8,144.1 593.4,146.9 577.2,119.8 	
		"/>
	<polyline class="st0" points="952.6,212.7 938.1,186.7 948.6,189.4 932.9,162.2 919.5,169.9 904.6,144.1 915.1,146.9 898.9,119.8 	
		"/>
	<polyline class="st0" points="791.7,119.8 777.2,93.8 787.7,96.5 772,69.3 758.6,77 743.7,51.2 754.2,54 738.1,27 	"/>
	<polyline class="st0" points="1113.4,119.8 1098.9,93.8 1109.5,96.5 1093.7,69.3 1080.3,77 1065.4,51.2 1076,54 1059.8,27 	"/>
	<polyline class="st0" points="577.2,677.1 592.5,651.5 595.4,662 611.1,634.8 597.7,627 612.6,601.2 615.5,611.7 630.8,584.2 	"/>
	<polyline class="st0" points="577.2,491.3 592.5,465.8 595.4,476.3 611.1,449 597.7,441.3 612.6,415.5 615.5,426 630.8,398.5 	"/>
	<polyline class="st0" points="577.2,305.6 592.5,280 595.4,290.5 611.1,263.3 597.7,255.5 612.6,229.7 615.5,240.2 630.8,212.7 	
		"/>
	<polyline class="st0" points="577.2,677.1 547.4,676.6 555.1,668.9 523.6,668.9 523.6,684.3 493.8,684.3 501.4,676.6 470,677.1 	
		"/>
	<polyline class="st0" points="1220.7,677.1 1190.9,676.6 1198.5,668.9 1167,668.9 1167,684.3 1137.2,684.3 1144.9,676.6 
		1113.4,677.1 	"/>
	<polyline class="st0" points="898.9,677.1 869.1,676.6 876.8,668.9 845.3,668.9 845.3,684.3 815.5,684.3 823.2,676.6 791.7,677.1 	
		"/>
	<polyline class="st0" points="577.2,491.3 547.4,490.8 555.1,483.1 523.6,483.1 523.6,498.6 493.8,498.6 501.4,490.8 470,491.3 	
		"/>
	<polyline class="st0" points="1220.7,491.3 1190.9,490.8 1198.5,483.1 1167,483.1 1167,498.6 1137.2,498.6 1144.9,490.8 
		1113.4,491.3 	"/>
	<polyline class="st0" points="898.9,491.3 869.1,490.8 876.8,483.1 845.3,483.1 845.3,498.6 815.5,498.6 823.2,490.8 791.7,491.3 	
		"/>
	<polyline class="st0" points="577.2,305.6 547.4,305.1 555.1,297.4 523.6,297.4 523.6,312.8 493.8,312.8 501.4,305.1 470,305.6 	
		"/>
	<polyline class="st0" points="1220.7,305.6 1190.9,305.1 1198.5,297.4 1167,297.4 1167,312.8 1137.2,312.8 1144.9,305.1 
		1113.4,305.6 	"/>
	<polyline class="st0" points="898.9,305.6 869.1,305.1 876.8,297.4 845.3,297.4 845.3,312.8 815.5,312.8 823.2,305.1 791.7,305.6 	
		"/>
	<polyline class="st0" points="577.2,119.8 547.4,119.4 555.1,111.6 523.6,111.6 523.6,127.1 493.8,127.1 501.4,119.4 470,119.8 	
		"/>
	<polyline class="st0" points="738.1,27 708.3,26.5 715.9,18.7 684.5,18.7 684.5,34.2 654.6,34.2 662.3,26.5 630.8,27 	"/>
	<polyline class="st0" points="1059.8,27 1030,26.5 1037.7,18.7 1006.2,18.7 1006.2,34.2 976.4,34.2 984,26.5 952.6,27 	"/>
	<polyline class="st0" points="898.9,119.8 869.1,119.4 876.8,111.6 845.3,111.6 845.3,127.1 815.5,127.1 823.2,119.4 791.7,119.8 	
		"/>
	<polyline class="st0" points="470,677.1 455.5,651 466,653.8 450.3,626.5 436.9,634.3 422,608.5 432.5,611.2 416.4,584.2 	"/>
	<polyline class="st0" points="1113.4,677.1 1098.9,651 1109.5,653.8 1093.7,626.5 1080.3,634.3 1065.4,608.5 1076,611.2 
		1059.8,584.2 	"/>
	<polyline class="st0" points="791.7,677.1 777.2,651 787.7,653.8 772,626.5 758.6,634.3 743.7,608.5 754.2,611.2 738.1,584.2 	"/>
	<polyline class="st0" points="470,491.3 455.5,465.3 466,468 450.3,440.8 436.9,448.5 422,422.7 432.5,425.5 416.4,398.5 	"/>
	<polyline class="st0" points="1113.4,491.3 1098.9,465.3 1109.5,468 1093.7,440.8 1080.3,448.5 1065.4,422.7 1076,425.5 
		1059.8,398.5 	"/>
	<polyline class="st0" points="791.7,491.3 777.2,465.3 787.7,468 772,440.8 758.6,448.5 743.7,422.7 754.2,425.5 738.1,398.5 	"/>
	<polyline class="st0" points="470,305.6 455.5,279.5 466,282.3 450.3,255 436.9,262.8 422,237 432.5,239.7 416.4,212.7 	"/>
	<polyline class="st0" points="1113.4,305.6 1098.9,279.5 1109.5,282.3 1093.7,255 1080.3,262.8 1065.4,237 1076,239.7 
		1059.8,212.7 	"/>
	<polyline class="st0" points="791.7,305.6 777.2,279.5 787.7,282.3 772,255 758.6,262.8 743.7,237 754.2,239.7 738.1,212.7 	"/>
	<polyline class="st0" points="416.4,584.2 431.7,558.6 434.5,569.1 450.3,541.9 436.9,534.1 451.8,508.3 454.7,518.8 470,491.3 	
		"/>
	<polyline class="st0" points="1059.8,584.2 1075.1,558.6 1078,569.1 1093.7,541.9 1080.3,534.1 1095.2,508.3 1098.1,518.8 
		1113.4,491.3 	"/>
	<polyline class="st0" points="738.1,584.2 753.4,558.6 756.3,569.1 772,541.9 758.6,534.1 773.5,508.3 776.4,518.8 791.7,491.3 	
		"/>
	<polyline class="st0" points="416.4,398.5 431.7,372.9 434.5,383.4 450.3,356.1 436.9,348.4 451.8,322.6 454.7,333.1 470,305.6 	
		"/>
	<polyline class="st0" points="1059.8,398.5 1075.1,372.9 1078,383.4 1093.7,356.1 1080.3,348.4 1095.2,322.6 1098.1,333.1 
		1113.4,305.6 	"/>
	<polyline class="st0" points="738.1,398.5 753.4,372.9 756.3,383.4 772,356.1 758.6,348.4 773.5,322.6 776.4,333.1 791.7,305.6 	
		"/>
	<polyline class="st0" points="416.4,212.7 431.7,187.1 434.5,197.6 450.3,170.4 436.9,162.6 451.8,136.8 454.7,147.3 470,119.8 	
		"/>
	<polyline class="st0" points="1059.8,212.7 1075.1,187.1 1078,197.6 1093.7,170.4 1080.3,162.6 1095.2,136.8 1098.1,147.3 
		1113.4,119.8 	"/>
	<polyline class="st0" points="577.2,119.8 592.5,94.3 595.4,104.8 611.1,77.5 597.7,69.8 612.6,44 615.5,54.5 630.8,27 	"/>
	<polyline class="st0" points="898.9,119.8 914.3,94.3 917.1,104.8 932.9,77.5 919.5,69.8 934.4,44 937.2,54.5 952.6,27 	"/>
	<polyline class="st0" points="738.1,212.7 753.4,187.1 756.3,197.6 772,170.4 758.6,162.6 773.5,136.8 776.4,147.3 791.7,119.8 	
		"/>
</g>
</svg>
